<?xml version="1.0" encoding="utf-8"?>
<!-- Generator: Adobe Illustrator 21.1.0, SVG Export Plug-In . SVG Version: 6.00 Build 0)  -->
<svg version="1.1" id="Layer_1" xmlns="http://www.w3.org/2000/svg" xmlns:xlink="http://www.w3.org/1999/xlink" x="0px" y="0px"
	 viewBox="0 0 1424 580.5" style="enable-background:new 0 0 1424 580.5;" xml:space="preserve">
<style type="text/css">
	.st0{fill:#242847;}
	.st1{fill:#F2B94A;stroke:#F2B94A;stroke-width:15.1746;}
	.st2{fill:#F2B94A;stroke:#F2B94A;stroke-width:12.5;}
	.st3{fill:#F2B94A;stroke:#F2B94A;stroke-width:10.7279;}
	.st4{fill:#F2B94A;stroke:#F2B94A;stroke-miterlimit:10;}
	.st5{fill:#D88074;stroke:#D88074;stroke-miterlimit:10;}
</style>
<g>
	<g>
		<g>
			<path class="st0" d="M889.6,360c-4.3,0-8.5,0-12.8,0c-10.6-3.2-21.3-7.2-26.3-17.7c-3.9-8-9.3-8.7-16.7-8.7
				c-62.6,0.3-125.2,0.6-187.8,0.7c-39.2,0-78.4-0.4-117.6-0.5c-4.3,0-10-1.4-12.3,3.6c-5.7,12.3-16.2,18.2-27.9,22.6
				c-4.9,0-9.7,0-14.6,0c-11.7-4.6-22.5-10.3-27.8-22.8c-1.5-3.5-5.2-3.4-7.9-3.3c-21.5,1.6-40.9-7.2-61.2-12
				c-7.5-1.8-11.3-10.6-8.1-17.4c0.7-1.6,2-2.3,3.6-2c1.8,0.4,2.4,2,2.1,3.5c-1.4,8.2,4,9.4,10,10.7c9.2,1.9,18.3,4.2,27.4,6.5
				c3.9,1,5.9,0,5.9-4.2c0-2.1,0.3-4.3,0-6.4c-1.5-9.1,2.8-12,11.3-10.9c8.1,1.1,13.7-1.5,19.2-8.5c15.6-20.1,46-22.2,62.2-3
				c8.9,10.6,18.1,12.4,29.9,11.6c3.3-0.2,6.7,0,10.1-0.1c26.2-0.3,21.3,2.5,21.6-21.8c0.2-15.4-1.3-16.7-16.6-16.7
				c-57.8,0-115.5,0-173.3,0c-14,0-14.3-0.2-14.3-14.3c-0.1-32-0.1-63.9-0.1-95.8c0-16.7,2.3-18.7,19.7-17.5
				c-0.6,1.1-1.2,2.2-1.7,3.2c-6.8,13.6-4,18.3,10.6,18.4c58.7,0.1,117.4,0.1,176,0.3c152,0.3,304,0.6,456.1,1.1
				c5.3,0,8.9-1.1,11.8-6.1c3.9-6.8,10.4-11.3,18.3-12.2c18.4-2.2,41.7,0.8,50.3,27.9c0,0.6,0,1.2,0,1.8c-0.4,3.6-1.1,7.1-1.1,10.7
				c-0.2,21.3-0.1,42.6-0.2,63.9c-0.1,14.5-0.3,14.6-14.3,16.7c-9.7,1.5-19.3,2.4-29,2.1s-19.5,0.2-29.2-0.5
				c-8-0.6-11.2,3-11.4,10.3c-0.3,6.7-0.1,13.4-0.5,20.1c-0.3,5.5,1,8.9,7.3,8.6c2.8-0.1,4.8,1.1,4.8,4.2c-0.2,5.8,3.4,5.2,7.4,4.6
				c19.5-2.8,39.1-5.3,58.6-8.5c5.5-0.9,6.4,0.8,5.9,5.4c-0.6,4.7-2.6,7.8-7.7,8.7c-6.6,1.2-12.9,3.3-19.4,4.5
				c-23.4,4.6-46.1,13.1-70.4,13.1c-27.4,0-54.7-0.2-82.1-0.2c-3.6,0-7.7-0.7-9.5,3.4C912.2,349.8,901.4,355.4,889.6,360z
				 M796.4,263.1L796.4,263.1c-12.2-0.1-24.3-0.1-36.5-0.1c-28.3,0-56.6,0.1-84.8-0.1c-5.4,0-9.7,0.5-9.4,7.6
				c0.2,6.7,0.1,13.4-0.6,20c-1,8.9,2.4,11.5,11.2,11.4c52.6-0.3,105.2-0.2,157.8-0.1c6.2,0,10.4-1.6,14.4-7.1
				c17-23.3,50.6-23.2,68.1-0.4c1.3,1.7,2.3,3.6,3.7,5.2c1.8,2,4.2,2.4,6.7,1.6c2.4-0.8,2.8-2.9,2.8-5.2c-0.1-7.3,0-14.6-0.3-21.9
				c-0.3-7.9-3.7-11.4-12.5-11.3C876.7,263.4,836.6,263.1,796.4,263.1z M1016.9,246.2c0-20.1,0-40.1,0-60.2c0-21.2,0-21.2-20.8-21
				c-11.8,0.1-13,1.3-13,13.1c0,42.2,0,84.5,0,126.7c0,22.4,0,22.1,22.5,22c8.1-0.1,11.5-3,11.4-11.3
				C1016.7,292.5,1016.9,269.4,1016.9,246.2z M612,246.9c0-20.1,0-40.1,0-60.2c0-21.6,0-21.6-21.4-21.3
				c-10.9,0.2-12.6,1.9-12.6,12.8c-0.1,42.2,0.1,84.5-0.1,126.7c-0.1,23.9-1.1,21.7,22.4,22.1c8.6,0.1,12-3,11.8-11.7
				C611.7,292.5,612,269.6,612,246.9z M935.6,246c0,20.1,0,40.1,0,60.1c0,20.7,0,20.7,21.2,20.6c12-0.1,13-1,13-13.1
				c0.1-42.2-0.1-84.4,0.1-126.6c0.1-24,1.2-21.7-22.4-22c-8.6-0.1-12.1,3.2-12,11.8C935.8,199.8,935.6,222.9,935.6,246z
				 M625.2,245.6c0,20.3,0,40.7,0,61s0,20.3,20.3,20.3c12.6-0.1,13.6-1,13.6-13.5c0-41.9,0-83.8,0-125.7c0-22.5,0-22.3-22.8-21.8
				c-8.1,0.2-11.4,3.1-11.3,11.4C625.4,200.1,625.2,222.9,625.2,245.6z M1045.6,164.9c-0.3,0.8-0.5,1.6-0.8,2.5
				c4.6,0.8,11.4,0,9.2,7.2c-2.1,6.7,7.4,18.1-7.5,19.9c-4,0.5-3.4,3.7-3.4,6.3c-0.1,15.5,0.1,30.9-0.1,46.4c-0.1,5,1.9,7.2,7,7.1
				c15.2-0.4,30.3-0.7,45.5-1c5.1-0.1,7.8-2.1,7.8-7.6c-0.2-22.5-0.1-44.9-0.1-67.4c0-3.3-0.5-5.9-4.6-6.4
				C1080.8,169.7,1063.2,167.3,1045.6,164.9z M796.3,229.9c7.6,0,15.2,0,22.8,0c6.6,0,10.3-2.6,10.1-9.8c-0.2-8.2-0.2-16.4,0-24.7
				c0.2-5-1.6-7.1-6.8-7.1c-17.4,0.2-34.7,0.2-52,0c-4.7-0.1-6.5,1.9-6.4,6.5c0.2,8.5,0.2,17,0,25.6c-0.1,6.6,3.2,9.4,9.5,9.4
				C781.1,229.9,788.7,229.9,796.3,229.9z M713.4,188.4c-8.5,0-17,0.3-25.5-0.1c-6.5-0.3-8.6,2.3-8.2,8.5c0.4,7.6,0.3,15.2,0,22.8
				c-0.3,6.9,2.6,10.3,9.4,10.3c15.5,0,31,0.1,46.4,0c6.4-0.1,9.3-3.5,9.2-9.8c-0.1-8.2-0.2-16.4,0.1-24.6c0.2-5.8-2.6-7.2-7.8-7.1
				C729.2,188.7,721.4,188.4,713.4,188.4z M881.9,188.5c-8.5,0-17,0.2-25.5-0.1c-5.6-0.2-7.6,2.2-7.5,7.6c0.2,8.5,0.1,17,0.1,25.5
				c0,5.7,3,8.4,8.4,8.4c15.8,0.1,31.6,0.1,47.4,0c5.9,0,8.9-3,8.8-9.1c-0.1-8.5-0.2-17,0-25.5c0.1-5.1-2.1-7.1-7.1-6.9
				C898.3,188.6,890.1,188.5,881.9,188.5z M439,228.9C439,229,439,229,439,228.9c7.6,0.1,15.2-0.1,22.8,0.1
				c6.8,0.2,10.2-2.4,9.9-9.6c-0.3-7.9-0.3-15.8,0-23.7c0.2-5.4-1.8-7.7-7.4-7.6c-16.7,0.2-33.4,0.2-50.1,0
				c-5.2-0.1-7.9,1.6-7.8,7.3c0.2,8.2,0.2,16.4,0.1,24.6c-0.1,6,2.8,9,8.8,9C423.2,228.9,431.1,228.9,439,228.9z M524.2,188.2
				c-8.5,0-17,0.1-25.5-0.1c-4.8-0.1-7.5,1.5-7.4,6.7c0.2,8.8,0.1,17.6,0.1,26.4c0,5.3,2.9,7.7,8,7.7c16.1,0,32.1,0,48.2,0.1
				c5.7,0,8.3-2.7,8.2-8.4c-0.1-8.5-0.1-17,0-25.5c0.1-5.1-2.2-7.1-7.1-7C540.6,188.3,532.4,188.2,524.2,188.2z M480.9,345.3
				c14-0.1,24-10.1,23.8-24.1c-0.1-13.6-10.9-24.4-24.1-24.3c-13.3,0.1-24,11.1-23.9,24.7C456.7,335.3,466.9,345.4,480.9,345.3z
				 M882.2,345.3c13.9,0.1,24.1-10,24.1-23.9c0.1-13.6-10.5-24.5-23.9-24.6c-13.3-0.1-24.1,10.8-24.1,24.3
				C858.4,335.2,868.3,345.2,882.2,345.3z M796.4,183.4c8.2,0,16.4-0.1,24.5,0c4.6,0.1,8.6-0.4,8.2-6.7c-0.4-5.5,1.6-13-6.8-13.3
				c-17.2-0.6-34.5-0.6-51.8,0.1c-7.7,0.3-6.1,7.5-6.5,12.8c-0.3,5.8,2.8,7.2,7.9,7.1C780.1,183.3,788.3,183.4,796.4,183.4z
				 M439.4,183.1c8.2,0,16.4-0.2,24.5,0.1c5.2,0.1,8.2-1.4,7.6-7.2c-0.5-5.2,1.4-12.4-6.6-12.6c-17.2-0.6-34.5-0.6-51.8-0.1
				c-7.8,0.2-6.6,7.1-6.8,12.5c-0.3,5.5,2.2,7.5,7.5,7.4C422.4,183,430.9,183.1,439.4,183.1z M712.5,183.4c8.2,0,16.3-0.1,24.5,0.1
				c5,0.1,8.3-1.1,7.9-7.1c-0.3-5.6,1-12.8-7.4-13.1c-17-0.5-33.9-0.5-50.8,0.1c-8.6,0.3-6.4,7.8-6.8,13.3c-0.5,6.1,3.4,6.8,8.1,6.8
				C696.1,183.4,704.2,183.4,712.5,183.4z M523.7,183.1c8.2,0,16.3-0.1,24.5,0.1c5.2,0.1,8.2-1.6,7.7-7.2c-0.5-5.1,2-12.4-6.3-12.6
				c-17.2-0.6-34.5-0.6-51.7,0c-8.1,0.3-6,7.5-6.4,12.6c-0.5,5.7,2.6,7.4,7.8,7.2C507.3,183,515.5,183.1,523.7,183.1z M881.7,183.4
				c7.9,0,15.8-0.1,23.7,0.1c4.9,0.1,8.4-1,8.1-7c-0.3-5.2,1.7-12.6-6.2-12.9c-17.3-0.7-34.6-0.7-51.9,0c-7.8,0.3-6.1,7.6-6.4,12.9
				c-0.3,5.8,3.2,7.1,8.2,7.1C865.3,183.3,873.5,183.4,881.7,183.4z"/>
			<path class="st0" d="M480.6,334.2c-6.8,0.2-12.9-5.5-13-12.4c-0.2-7,5.2-13,12.1-13.3c7-0.3,12.8,5.1,13,12.2
				C492.9,327.8,487.3,334,480.6,334.2z"/>
			<path class="st0" d="M894.4,321.3c0,6.9-5.9,12.9-12.6,12.9c-6.8-0.1-12.6-5.9-12.7-12.8c-0.1-6.9,5.7-12.8,12.6-12.8
				C888.6,308.5,894.4,314.4,894.4,321.3z"/>
		</g>
	</g>
	<path class="st0" d="M367.8,143.2c2-2.1,5.4-5.2,10.1-8c7.1-4.1,13.9-5.4,18.2-6c70.4-9.6,149.7-5,149.7-5
		c26.6,1.5,53.2,1.5,79.8,2.3c58.2,1.8,168.6,3.6,278.2,0.7c8.6-0.2,60.2-2.2,106.2,3.5c36.6,4.5,71.9,13.5,71.9,13.5
		c5.3,1.4,9.7,2.6,12.9,3.5"/>
</g>
<g id="layer1" transform="translate(1207.4676,135.10546)" inkscape:groupmode="layer" inkscape:label="Ebene 1">
	<g id="g4074">
		<rect id="rect3994" x="49.3" y="109.4" class="st1" width="15.4" height="214.1"/>
		<path id="path3213" class="st2" d="M86.1-11.4l41.3,41.2l0.1,58.4l-41.2,41.3l-58.4,0.1l-41.3-41.2L-13.5,30l41.2-41.3L86.1-11.4
			L86.1-11.4z"/>
		<path id="path3988" class="st3" d="M82-1.4L117.5,34l0.1,50.1l-35.4,35.5L32,119.6L-3.5,84.2l-0.1-50.1L31.9-1.3L82-1.4L82-1.4z"
			/>
		<g id="g4068" transform="translate(-0.657514,21.539214)">
			<path id="path4007" class="st4" d="M31.9,43.6c0,3.2-1,5.8-2.9,7.9c-1.9,2-4.5,3-7.8,3c-1.9,0-3.5-0.2-5-0.7
				c-1.4-0.5-2.7-1.1-3.9-1.8v-7.8H13c1.2,1.4,2.6,2.5,4.1,3.2c1.5,0.7,3,1.1,4.4,1.1c0.4,0,0.8,0,1.4-0.1c0.6-0.1,1.1-0.2,1.4-0.4
				c0.5-0.3,0.8-0.6,1.1-1c0.3-0.4,0.4-1,0.4-1.8c0-0.7-0.2-1.3-0.6-1.8c-0.4-0.5-1-0.9-1.9-1.2c-0.9-0.3-1.8-0.6-2.7-0.8
				c-1-0.3-1.8-0.6-2.7-1c-1.9-0.9-3.3-2.1-4.2-3.6c-0.8-1.5-1.3-3.4-1.3-5.7c0-3,1-5.5,2.9-7.5c1.9-1.9,4.4-2.9,7.4-2.9
				c1.5,0,3,0.2,4.5,0.6c1.5,0.4,2.7,0.9,3.8,1.6v7.5h-0.6c-0.9-1.1-2.1-1.9-3.4-2.6c-1.3-0.7-2.7-1.1-4.1-1.1c-0.5,0-1,0.1-1.5,0.2
				c-0.5,0.1-0.9,0.3-1.4,0.5c-0.4,0.2-0.7,0.6-1,1c-0.3,0.4-0.4,0.9-0.4,1.5c0,0.9,0.2,1.5,0.7,2c0.5,0.5,1.3,0.9,2.6,1.3
				c0.8,0.2,1.6,0.5,2.4,0.7c0.8,0.2,1.6,0.6,2.5,1c1.8,0.8,3,1.9,3.9,3.4C31.5,39.6,31.9,41.4,31.9,43.6"/>
			<path id="path4009" class="st4" d="M53.8,27.5h-7.1v26.4h-5.9V27.5h-7.1v-6.3h20.2V27.5"/>
			<path id="path4011" class="st4" d="M79.6,37.6c0,5.2-1,9.4-3.1,12.4c-2.1,3.1-5,4.6-8.7,4.6c-3.7,0-6.6-1.5-8.6-4.6
				c-2.1-3.1-3.1-7.2-3.1-12.4c0-5.3,1-9.4,3.1-12.5c2.1-3.1,5-4.6,8.6-4.6c3.7,0,6.5,1.5,8.6,4.6C78.6,28.2,79.6,32.3,79.6,37.6
				 M71.8,45.9c0.6-1,1-2.2,1.3-3.5c0.3-1.4,0.4-3,0.4-4.8c0-2-0.2-3.6-0.5-5c-0.3-1.4-0.7-2.5-1.2-3.3c-0.5-0.9-1.1-1.5-1.8-1.9
				c-0.7-0.4-1.4-0.6-2.1-0.6c-0.7,0-1.5,0.2-2.1,0.6c-0.7,0.4-1.3,1-1.8,1.9c-0.5,0.8-0.9,2-1.3,3.4c-0.3,1.4-0.5,3.1-0.5,5
				c0,1.9,0.2,3.6,0.5,5c0.3,1.4,0.7,2.5,1.2,3.3c0.5,0.9,1.1,1.5,1.8,1.9c0.7,0.4,1.4,0.6,2.2,0.6c0.8,0,1.5-0.2,2.2-0.6
				C70.7,47.4,71.3,46.7,71.8,45.9"/>
			<path id="path4013" class="st4" d="M103,31.5c0,1.5-0.2,2.9-0.5,4.3c-0.4,1.4-0.9,2.6-1.5,3.5c-0.9,1.3-1.9,2.3-3.1,2.9
				c-1.1,0.7-2.5,1-4.2,1H90v10.7h-5.9V21.2h9.7c1.5,0,2.7,0.2,3.7,0.5c1,0.4,1.9,0.9,2.7,1.6c0.9,0.9,1.6,2,2.1,3.3
				C102.7,28,103,29.6,103,31.5 M96.9,31.7c0-0.9-0.2-1.7-0.5-2.4c-0.3-0.7-0.8-1.1-1.2-1.4c-0.6-0.4-1.2-0.5-1.8-0.6
				c-0.6,0-1.4-0.1-2.3-0.1h-1v9.8h1.7c1,0,1.8-0.1,2.5-0.3c0.7-0.2,1.2-0.5,1.6-1.1c0.4-0.5,0.6-1,0.8-1.7
				C96.8,33.5,96.9,32.7,96.9,31.7"/>
		</g>
	</g>
</g>
<g>
	<path class="st5" d="M288.3,393c12.9,2.9,25.8,5.8,38.8,8.5c2.6,0.5,4.2,1.6,5.4,3.7c7.4,13.3,13.1,27.3,19.1,41.2
		c0.7,1.7,0.6,3-1.6,3.1c-2.5,0.1-5.1,4.2-7.5-0.1c-4.1-7.2-7.8-14.6-12.3-21.6c-11.5-17.9-7.6-14.3-27.6-15.6
		c-14.5-0.9-29.2-0.8-43.7-1.2c-2.9-0.1-5.4,0.5-8,1.8c-14.5,7.1-29.1,14.1-44.5,19.8c-6.1,2.3-11.7,2.1-17.5-0.9
		c-13.2-6.8-25.5-14.8-37.7-22.9c-1.8-1.2-2.1-2.2-0.6-3.8c1-1.1,2-2.3,2.7-3.6c1.2-2.2,2.6-1.9,4.6-0.8c11.3,6,22.7,11.8,34,17.8
		c7.7,4.1,9.4,4.1,16.1-1.3c10.4-8.4,20.3-17.2,30.1-26.4c-9-3-9-3-7.9-11.9c0.1-0.7,0.1-1.4,0.2-2.2c0.7-10.1,1.5-10.3,12.8-10.9
		c7.9-0.5,16.2-2,22.5-6.7c2.4-1.7,1.1-1.8,5.9-6.9c4.3-4.6,6.6-7,10.2-8.6c3.7-1.6,6.8-1.6,11-1.6c5.4,0,14.6,0,15.9,3.3
		c2.1,5.3-16.1,19-23.8,15.4c-1.3-0.6-3.5-2.3-5.3-4.3c-1.6-1.8-3.3-4.5-2.9-4.8c0.4-0.3,3.5,2,3.1,2.8c-0.4,0.8-4.2,0.1-4.2,0
		c0,0,0.5,0.2,1.9,0c2.3-0.2,4.9,0.3,6.7-0.9c1.7-1.1,0.9-2.4,2.1-3.1c3.4-2.1,11.7,6.9,15,5c1.3-0.8,1.7-3.1,1.1-3.6
		c-0.4-0.4-1.8,0-2.1,0.8c-0.2,0.4,0.1,0.7,0,1.1c-0.2,1-2.2,1.7-3.9,1.7c-2.4,0-4.6-1.4-5.2-1.9c-0.9-0.6-1.8-1.3-2-1.2
		c-0.2,0.1,0,0.5,0.1,0.8c0.4,0.9,1.4,0.5,2.4,0.2c3.1-0.9,6.6-0.1,9.6-1.7c0.9-0.5,2.5-0.8,2.8-1.4c0.7-2.2,4.2-3.7,2.6-6
		c-1.1-1.6-3.5,0.6-5.4,0.8c-5.8,0.4-11.6,0.3-17.4-0.2c-3.1-0.3-3.5-1.4-1.7-3.5c2.2-2.6,1.1-3.7-2-4.9
		c-24.6-9.6-24.5-9.6-50.3-3.8c-4.6,1-9.2,1.9-13.7,3.1c-1.6,0.4-2.7,0.4-3.3-1.2c-0.5-1.4-0.9-2.8-1.4-4.2c0.7-0.5,1.4-1.3,2.2-1.6
		c12.4-4.5,24.8-9,37.2-13.5c1.8-0.7,3.6-0.6,5.5-0.2c17.7,3.6,35.2,8.3,52.7,12.6c2.6,0.6,3.8,1.8,3.1,4.4
		c-1.6,2.2-0.6,5.1-3.1,7.2c-1.3,1,0.9,1.1,1.8,1.2c0.2,1.7,0.4,3.4,0.5,5.1c-0.4,0.7-0.8,1.3-1.1,2c-3.1,0-3.4,2.5-4.4,4.4
		c-7.5,18.5-23,29.2-42.8,36.6C272.1,389.9,280,392.4,288.3,393z"/>
	<path class="st5" d="M207.6,340.6c1.4,7.7,1.5,7.8-6,12.1c-2,1.1-1.3,2.4-0.9,3.7c1,3.2,1.9,6.4,3,9.6c0.9,2.6,0.1,3.8-2,4.9
		c-11.6,6.3-24.1,10.3-37.2,13c-3.1,0.6-4.1-1.5-5.1-3.5c-6.3-11.8-11.2-24.2-15.7-36.7c-1.6-4.4-2.8-8.9-4.2-13.3
		c-1.1-3.3-0.1-5.6,3.3-7.1c10.9-4.9,22.4-8,34.2-10.6c5.6-1.2,7.8,1.8,9.2,5.7c1.3,3.7,3.1,5.2,7.4,3.2c3.8-1.8,6.6-0.5,7.8,3.4
		c0.5,1.5,1.2,3,1.8,4.4c-0.9,0.2-1.7,0.4-2.6,0.6c-0.5-1.4-0.9-2.7-1.5-4.1c-1.7-4-4.6-1.5-7.1-1c-3.2,0.7-1.6,2.6-1,4.1
		c2.4,5.8,4.7,11.7,6.6,17.6c0.5,1.4,1.2,3.7,3,3.4c2.1-0.4,4.7-1.3,5.4-3.7c0.5-1.7-0.5-3.4-1.1-5
		C205.6,340.4,206.6,340.4,207.6,340.6z M173.7,348c-0.1-1.8-1-2.5-2.8-2.3c-1.7,0.1-2.7,1-2.6,2.4c0.1,1.7,1.4,2.6,3.2,2.5
		C173.3,350.6,173.5,349.2,173.7,348z"/>
	<path class="st5" d="M382.2,292.3c-7.3,4-13.3,9.7-19.9,14.5c-2.5,1.8-1.4,4.9-2,7.4c-0.6,2.5-1.1,4.4-4.5,3
		c-1.8-0.7-2.6,0.5-3.4,1.5c-2.5,3.2-5.1,6.3-8.2,9c-4.6,4-7.3,4-12-0.3c-5.6-5-7.8-11.8-11.3-17.8c-4.2-7.4-2.1-14.7,0.3-21.9
		c0.8-2.4,0.9-4.2-1-6.3c-3.9-4.4-2.7-7.3,3.3-9.4c2.6,4.4,2.6,4.4,6,0.4c2.2-2.5,4.7-4.6,7.8-6.1c7.9-3.8,12.6-2.1,18.6,4.3
		C363.6,278.7,370.8,287.8,382.2,292.3z M353.5,301.1c1.6-0.3,3-0.9,3.1-2.6c0.2-2-1.1-3.1-3-3.1c-1.7,0-2.9,1-2.9,2.7
		C350.6,299.9,351.9,300.7,353.5,301.1z"/>
	<path class="st5" d="M382.2,292.3c-11.4-4.5-18.6-13.6-26.3-21.9c-6-6.4-10.7-8.2-18.6-4.3c-3.1,1.5-5.7,3.6-7.8,6.1
		c-3.4,4-3.4,4-6-0.4c0.7-6.6,2.8-12.7,7.7-17.8c3.3-3.5,7.4-5.8,12.5-6.3c4.1-0.4,7.4,1,9.6,4.3c0.7,1,0.9,2.6,2.9,2
		c6.9-1.8,11.6,2,16.2,5.8c3.2,2.7,5.9,5.9,9,8.8c1.7,1.6,3.7,2.7,6.3,2.1c4.1-1,4.2-3.7,3.1-6.7c0.4-0.1,0.8-0.4,1-0.3
		c7.2,3.7,11.7,16.9,7.9,23.4c-2.2,3.8-6,5.3-10.5,5.3C386.9,292.7,384.5,292.5,382.2,292.3z"/>
	<path class="st5" d="M378.3,346c3.6,3,1.6,5-1.5,6.8c-6.3,3.7-12.4,7.4-18.7,11c-5.1,2.9-9.7,0-13.9-1.9
		c-8.3-3.6-11.5-4.8-19.4-6.2c-4.8-0.8-8.7-0.8-11.1-0.7c-0.1-0.3-0.3-1.2,0.1-2.2c0.6-1.4,2-2,2.3-2.1c-6.6,18.2-10.8,27-12.6,26.6
		c-1.6-0.3-1.3-7.7,0.8-22c-0.1-2.8,0.1-6,0.7-9.6c1.3-7.5,4.1-13.3,6.5-17.3c10.7,3.8,17.4,8.4,21.6,12c5.2,4.5,11.5,7.9,17.3,11.9
		c3,2.1,5.7,2.5,9.3,0.4c4.1-2.3,7.4-5.9,12.1-7.3C373.9,345.7,376.1,345.9,378.3,346z"/>
	<path class="st5" d="M288.3,393c-8.3-0.6-16.2-3.1-25.2-4.7c19.8-7.4,35.3-18.1,42.8-36.6c1.7,1.4,1,3.2,1,4.9
		c0,2.5-0.4,5.2,0.9,7.2c2.6,4.1,0.4,7-1.8,10.1C301,381.1,294.8,387.2,288.3,393z"/>
	<path class="st5" d="M114.6,425.9c-1-2.8-0.7-5.6,0.8-8c4.4-7.2,9.2-14.2,18.2-17.5c1.8-0.6,1.1-2.2,1.5-2.7
		c1.8-2.5,3.3-5.9,7.1-6.4c4.5-0.5,5.2,3.3,6.4,5.9c1.5,3.1-1.8,4.8-3.7,6.7c-0.8,0.8-2.2,1-3.4,1.5c-9.6,3.8-17.4,9.7-23.6,17.4
		C117,423.8,116.5,425.3,114.6,425.9z"/>
	<path class="st5" d="M388.4,438.5c0.5,2.7-0.6,5.1-2.4,6.8c-6.3,6.2-13.1,11.6-22.7,12.9c-1.2,0.2-2.2,0-2.9,1.9
		c-1,2.8-4.4,4.1-7.3,4.8c-2,0.5-4.6-0.6-4.8-3.1c-0.1-2.5-3.6-5.5,0.9-7.6c2.1-1,4.1-1.9,6.5-2.3c10.7-1.6,20.5-5.2,29-11.5
		C385.8,439.7,386.8,438.7,388.4,438.5z"/>
	<path class="st5" d="M379.9,350.2c-0.2-0.5-1.6-3.4-4.9-4.4c-1.3-0.4-2.5-0.3-3.3-0.2c1.5-4.9,9.8-9.7,14.8-8.5
		c1.9,0.5,3.4,0.1,4.9-0.7c3.5-1.9,5.8-0.4,8.1,2.1c2.5,2.7-0.2,4.2-1.6,5.9c-0.9,1.1-3.3,2.8-6.8,3.4c-2.2,0.4-2.7-0.1-5.1,0.2
		C383.3,348.4,381.2,349.4,379.9,350.2z"/>
	<path class="st5" d="M200.5,329.9c0.9-0.2,1.7-0.4,2.6-0.6c2.8,0,5.5,1.8,8.4,0.8c0.5,1.4,0.9,2.8,1.4,4.2
		c-1.9,1.9-2.9,4.6-5.3,6.2c-1-0.1-2-0.1-2.7,0.7c-2.9,0.2-5.4-0.3-6-3.4C198.3,335.1,196.2,331.9,200.5,329.9z"/>
	<path class="st5" d="M200.5,329.9c-4.3,2-2.2,5.1-1.6,7.9c0.6,3.1,3.1,3.6,6,3.4c0.6,1.6,1.6,3.3,1.1,5c-0.7,2.3-3.3,3.3-5.4,3.7
		c-1.8,0.3-2.6-1.9-3-3.4c-1.9-6-4.2-11.8-6.6-17.6c-0.6-1.5-2.2-3.4,1-4.1c2.5-0.5,5.3-3,7.1,1C199.6,327.2,200,328.6,200.5,329.9z
		"/>
	<path class="st5" d="M173.7,348c-0.2,1.2-0.4,2.6-2.2,2.6c-1.7,0-3.1-0.8-3.2-2.5c-0.1-1.5,0.9-2.3,2.6-2.4
		C172.7,345.6,173.6,346.2,173.7,348z"/>
	<path class="st5" d="M353.5,301.1c-1.7-0.5-2.9-1.2-2.8-3c0.1-1.7,1.2-2.8,2.9-2.7c1.9,0,3.2,1.1,3,3.1
		C356.5,300.3,355.1,300.8,353.5,301.1z"/>
</g>
<path class="st5" d="M279.5,347.1"/>
</svg>
