<?xml version="1.0" encoding="UTF-8" standalone="no"?>
<!-- Created with Inkscape (http://www.inkscape.org/) -->

<svg
   xmlns:dc="http://purl.org/dc/elements/1.1/"
   xmlns:cc="http://creativecommons.org/ns#"
   xmlns:rdf="http://www.w3.org/1999/02/22-rdf-syntax-ns#"
   xmlns:svg="http://www.w3.org/2000/svg"
   xmlns="http://www.w3.org/2000/svg"
   xmlns:xlink="http://www.w3.org/1999/xlink"
   xmlns:sodipodi="http://sodipodi.sourceforge.net/DTD/sodipodi-0.dtd"
   xmlns:inkscape="http://www.inkscape.org/namespaces/inkscape"
   width="1209.2209"
   height="2855.7046"
   id="svg2881"
   sodipodi:version="0.32"
   inkscape:version="0.46+devel"
   version="1.0"
   sodipodi:docname="stop.svg"
   inkscape:output_extension="org.inkscape.output.svg.inkscape">
  <title
     id="title4084">Stop Schild</title>
  <defs
     id="defs2883">
    <linearGradient
       inkscape:collect="always"
       id="linearGradient3996">
      <stop
         style="stop-color:#b8b8b8;stop-opacity:1;"
         offset="0"
         id="stop3998" />
      <stop
         style="stop-color:#b8b8b8;stop-opacity:0;"
         offset="1"
         id="stop4000" />
    </linearGradient>
    <inkscape:perspective
       sodipodi:type="inkscape:persp3d"
       inkscape:vp_x="0 : 526.18109 : 1"
       inkscape:vp_y="0 : 1000 : 0"
       inkscape:vp_z="744.09448 : 526.18109 : 1"
       inkscape:persp3d-origin="372.04724 : 350.78739 : 1"
       id="perspective2889" />
    <inkscape:perspective
       id="perspective2956"
       inkscape:persp3d-origin="0.5 : 0.33333333 : 1"
       inkscape:vp_z="1 : 0.5 : 1"
       inkscape:vp_y="0 : 1000 : 0"
       inkscape:vp_x="0 : 0.5 : 1"
       sodipodi:type="inkscape:persp3d" />
    <inkscape:perspective
       sodipodi:type="inkscape:persp3d"
       inkscape:vp_x="0 : 526.18109 : 1"
       inkscape:vp_y="0 : 1000 : 0"
       inkscape:vp_z="744.09448 : 526.18109 : 1"
       inkscape:persp3d-origin="372.04724 : 350.78739 : 1"
       id="perspective2697" />
    <linearGradient
       inkscape:collect="always"
       xlink:href="#linearGradient3996"
       id="linearGradient4027"
       gradientUnits="userSpaceOnUse"
       gradientTransform="matrix(0.97994177,0,0,1.5038759,-12.092225,-449.52009)"
       x1="-481.63879"
       y1="1498.8496"
       x2="-727.92688"
       y2="1498.8496" />
    <linearGradient
       inkscape:collect="always"
       xlink:href="#linearGradient3996"
       id="linearGradient4057"
       gradientUnits="userSpaceOnUse"
       gradientTransform="matrix(1.1726642,0,0,1.2567202,-14.470369,-375.64336)"
       x1="-481.63879"
       y1="1498.8496"
       x2="-727.92688"
       y2="1498.8496" />
    <linearGradient
       inkscape:collect="always"
       xlink:href="#linearGradient3996"
       id="linearGradient4066"
       gradientUnits="userSpaceOnUse"
       gradientTransform="matrix(0.97994181,0,0,1.5038758,-12.092225,-449.52009)"
       x1="-481.63879"
       y1="1498.8496"
       x2="-727.92688"
       y2="1498.8496" />
  </defs>
  <sodipodi:namedview
     id="base"
     pagecolor="#ffffff"
     bordercolor="#666666"
     borderopacity="1.0"
     inkscape:pageopacity="0.0"
     inkscape:pageshadow="2"
     inkscape:zoom="0.175"
     inkscape:cx="422.57498"
     inkscape:cy="1274.9692"
     inkscape:document-units="px"
     inkscape:current-layer="layer1"
     showgrid="false"
     showguides="true"
     inkscape:guide-bbox="true"
     inkscape:window-width="1400"
     inkscape:window-height="993"
     inkscape:window-x="0"
     inkscape:window-y="27" />
  <metadata
     id="metadata2886">
    <rdf:RDF>
      <cc:Work
         rdf:about="">
        <dc:format>image/svg+xml</dc:format>
        <dc:type
           rdf:resource="http://purl.org/dc/dcmitype/StillImage" />
        <dc:title>Stop Schild</dc:title>
        <cc:license
           rdf:resource="http://creativecommons.org/licenses/publicdomain/" />
        <dc:creator>
          <cc:Agent>
            <dc:title>Remi Meier</dc:title>
          </cc:Agent>
        </dc:creator>
        <dc:subject>
          <rdf:Bag>
            <rdf:li>stop schild sign signalisation verkehr traffic</rdf:li>
          </rdf:Bag>
        </dc:subject>
      </cc:Work>
      <cc:License
         rdf:about="http://creativecommons.org/licenses/publicdomain/">
        <cc:permits
           rdf:resource="http://creativecommons.org/ns#Reproduction" />
        <cc:permits
           rdf:resource="http://creativecommons.org/ns#Distribution" />
        <cc:permits
           rdf:resource="http://creativecommons.org/ns#DerivativeWorks" />
      </cc:License>
    </rdf:RDF>
  </metadata>
  <g
     inkscape:label="Ebene 1"
     inkscape:groupmode="layer"
     id="layer1"
     transform="translate(1207.4676,135.10546)">
    <g
       id="g4074">
      <rect
         style="font-size:68.41708374px;font-style:normal;font-variant:normal;font-weight:bold;font-stretch:normal;text-align:center;text-anchor:middle;fill:url(#linearGradient4066);fill-opacity:1;stroke:#000000;stroke-width:15.1745615;stroke-miterlimit:4;stroke-opacity:1;stroke-dasharray:none;font-family:Gentium;-inkscape-font-specification:Verdana Bold"
         id="rect3994"
         width="130.66557"
         height="1816.8962"
         x="-668.18988"
         y="896.11572" />
      <path
         style="font-size:68.41708374px;font-style:normal;font-variant:normal;font-weight:bold;font-stretch:normal;text-align:center;text-anchor:middle;fill:#ffffff;fill-opacity:1;stroke:#000000;stroke-width:12.5;stroke-miterlimit:4;stroke-opacity:1;stroke-dasharray:none;font-family:Gentium;-inkscape-font-specification:Verdana Bold"
         d="m -355.9882,-128.85546 350.798537,349.81844 0.69302,495.41102 -349.818437,350.7985 -495.41108,0.693 -350.79844,-349.81839 -0.693,-495.41103 349.81838,-350.79851 495.41102,-0.69303 z"
         id="path3213" />
      <path
         id="path3988"
         d="m -390.98626,-44.027223 301.066605,300.225463 0.594777,425.1777 -300.225462,301.06659 -425.17771,0.59471 -301.06655,-300.2254 -0.5948,-425.1777 300.22544,-301.06659 425.1777,-0.594773 z"
         style="font-size:68.41708374px;font-style:normal;font-variant:normal;font-weight:bold;font-stretch:normal;text-align:center;text-anchor:middle;fill:#f30000;fill-opacity:1;stroke:#000000;stroke-width:10.72790337;stroke-miterlimit:4;stroke-opacity:1;stroke-dasharray:none;font-family:Gentium;-inkscape-font-specification:Verdana Bold" />
      <g
         transform="translate(-0.657514,21.539214)"
         id="g4068">
        <path
           id="path4007"
           style="font-size:319.27972412px;font-style:normal;font-variant:normal;font-weight:bold;font-stretch:normal;text-align:center;text-anchor:middle;fill:#ffffff;fill-opacity:1;stroke:none;font-family:Verdana;-inkscape-font-specification:Verdana Bold"
           d="m -820.80458,499.54919 c -1.8e-4,27.36196 -8.12078,49.62457 -24.36183,66.7879 -16.15445,17.03901 -38.12789,25.5585 -65.92017,25.5585 -16.06762,0 -30.09408,-1.98996 -42.07953,-5.96986 -11.89863,-4.10428 -23.05905,-9.26572 -33.48116,-15.48435 l 0,-66.60135 5.47162,0 c 10.33528,11.81544 21.88653,20.8946 34.65366,27.23752 12.85395,6.34304 25.18687,9.51454 36.99876,9.51449 3.03969,5e-5 7.03478,-0.37307 11.98545,-1.11935 4.95042,-0.74618 8.98897,-1.98992 12.11573,-3.73117 3.82137,-2.23865 6.94805,-5.03703 9.37997,-8.39513 2.51858,-3.35799 3.77791,-8.33287 3.77808,-14.92468 -1.7e-4,-6.09415 -1.82407,-11.31777 -5.4717,-15.67089 -3.56097,-4.47731 -8.81548,-7.89755 -15.76353,-10.26072 -7.2956,-2.48734 -15.02531,-4.78822 -23.18932,-6.90266 -8.07718,-2.23859 -15.67671,-5.03696 -22.79849,-8.39512 -16.3281,-7.58659 -28.09645,-17.84729 -35.30505,-30.78214 -7.12186,-13.05893 -10.68275,-29.2273 -10.68275,-48.50518 0,-25.8692 8.07718,-46.95028 24.23154,-63.24329 16.2412,-16.41687 37.0855,-24.62542 62.53301,-24.62571 12.76705,2.9e-4 25.36052,1.80368 37.78035,5.4102 12.50649,3.48269 23.31943,7.8979 32.43901,13.24564 l 0,63.98953 -5.34136,0 c -7.81677,-8.9546 -17.41384,-16.41692 -28.79127,-22.38701 -11.29078,-6.094 -22.84202,-9.14113 -34.65366,-9.14135 -4.169,2.2e-4 -8.33783,0.43552 -12.50657,1.3059 -4.08217,0.74646 -8.0339,2.23892 -11.85526,4.4774 -3.38724,1.86581 -6.29682,4.72637 -8.72858,8.58168 -2.43192,3.73139 -3.64779,8.02223 -3.64771,12.87254 -8e-5,7.33815 1.95409,12.99708 5.86245,16.9768 3.90827,3.85573 11.29061,7.40034 22.14709,10.63384 7.1217,2.1145 13.93955,4.16664 20.45348,6.15642 6.60058,1.99013 13.67899,4.72631 21.23522,8.20858 14.85142,6.965 25.79464,16.47946 32.8298,28.54343 7.12164,11.93985 10.68254,27.48637 10.68272,46.63959" />
        <path
           id="path4009"
           style="font-size:319.27972412px;font-style:normal;font-variant:normal;font-weight:bold;font-stretch:normal;text-align:center;text-anchor:middle;fill:#ffffff;fill-opacity:1;stroke:none;font-family:Verdana;-inkscape-font-specification:Verdana Bold"
           d="m -634.63863,362.8019 -60.57885,0 0,224.05662 -50.02639,0 0,-224.05662 -60.57884,0 0,-53.72883 171.18408,0 0,53.72883" />
        <path
           id="path4011"
           style="font-size:319.27972412px;font-style:normal;font-variant:normal;font-weight:bold;font-stretch:normal;text-align:center;text-anchor:middle;fill:#ffffff;fill-opacity:1;stroke:none;font-family:Verdana;-inkscape-font-specification:Verdana Bold"
           d="m -415.90344,448.05908 c -2e-4,44.27661 -8.85904,79.47393 -26.57652,105.59204 -17.71785,25.99382 -42.20991,38.9907 -73.47627,38.9907 -31.17973,0 -55.62837,-12.99688 -73.346,-38.9907 -17.7177,-26.11811 -26.57653,-61.31543 -26.57652,-105.59204 -1e-5,-44.64946 8.85882,-79.90896 26.57652,-105.77861 17.71763,-25.99353 42.16627,-38.99042 73.346,-38.9907 31.09265,2.8e-4 55.5413,12.99717 73.346,38.9907 17.80433,25.86965 26.70659,61.12915 26.70679,105.77861 m -66.31102,70.33251 c 4.86352,-8.45724 8.46785,-18.40701 10.813,-29.84935 2.34482,-11.5665 3.51731,-25.12307 3.51747,-40.66972 -1.6e-4,-16.66572 -1.34635,-30.84415 -4.03859,-42.53531 -2.69254,-11.69081 -6.21002,-21.14309 -10.55244,-28.35687 -4.42956,-7.46212 -9.55379,-12.87231 -15.3727,-16.23059 -5.73231,-3.35781 -11.72505,-5.03685 -17.97823,-5.03707 -6.34026,2.2e-4 -12.333,1.61706 -17.97824,4.85052 -5.55858,3.2339 -10.6828,8.5819 -15.37269,16.04402 -4.34265,6.96504 -7.90355,16.60388 -10.68272,28.91655 -2.69246,12.18864 -4.03866,26.36706 -4.03859,42.53531 -7e-5,16.54162 1.3027,30.65787 3.90831,42.34874 2.69232,11.56671 6.2098,21.019 10.55244,28.35689 4.34249,7.33802 9.42329,12.7482 15.24242,16.23058 5.81894,3.48246 11.94196,5.22368 18.36907,5.22363 6.42688,5e-5 12.5499,-1.74117 18.36907,-5.22363 5.8189,-3.60675 10.89971,-9.14131 15.24242,-16.6037" />
        <path
           id="path4013"
           style="font-size:319.27972412px;font-style:normal;font-variant:normal;font-weight:bold;font-stretch:normal;text-align:center;text-anchor:middle;fill:#ffffff;fill-opacity:1;stroke:none;font-family:Verdana;-inkscape-font-specification:Verdana Bold"
           d="m -217.75198,396.75552 c -1.9e-4,12.43741 -1.52009,24.62587 -4.5597,36.56544 -3.03998,11.81551 -7.38255,21.76528 -13.02771,29.84934 -7.72993,10.94488 -16.37163,19.21562 -25.92514,24.81228 -9.46693,5.59683 -21.27871,8.39521 -35.43536,8.39512 l -31.13623,0 0,90.48082 -50.0264,0 0,-277.78545 82.33512,0 c 12.33278,2.9e-4 22.71151,1.55494 31.13622,4.66397 8.51129,2.9852 16.02393,7.52478 22.53793,13.61876 7.81646,7.33822 13.76578,16.72831 17.84797,28.17032 4.16868,11.44247 6.25311,25.18558 6.2533,41.2294 m -51.72001,1.67902 c -1.3e-4,-7.83525 -1.4766,-14.55135 -4.42941,-20.14831 -2.95308,-5.7209 -6.38371,-9.7008 -10.2919,-11.93973 -5.2112,-2.9847 -10.29199,-4.60154 -15.24241,-4.85051 -4.95063,-0.37289 -11.55133,-0.55945 -19.80212,-0.55968 l -8.59829,0 0,83.20505 14.33048,0 c 8.51134,1.3e-4 15.50287,-0.7461 20.97461,-2.23871 5.55837,-1.49232 10.20492,-4.47725 13.93965,-8.9548 3.21337,-3.97976 5.51493,-8.7059 6.90469,-14.17844 1.47634,-5.59658 2.21457,-12.37486 2.2147,-20.33487" />
      </g>
    </g>
  </g>
</svg>
