<?xml version="1.0" encoding="utf-8"?>
<!-- Generator: Adobe Illustrator 21.1.0, SVG Export Plug-In . SVG Version: 6.00 Build 0)  -->
<svg version="1.1" id="Layer_1" xmlns="http://www.w3.org/2000/svg" xmlns:xlink="http://www.w3.org/1999/xlink" x="0px" y="0px"
	 viewBox="0 0 176.4 129.1" style="enable-background:new 0 0 176.4 129.1;" xml:space="preserve">
<style type="text/css">
	.st0{fill:#F2B94A;}
	.st1{fill:#FFFFFF;}
	.st2{fill:#242847;}
	.st3{font-family:'Avenir-HeavyOblique';}
	.st4{font-size:16px;}
</style>
<g>
	<g>
		
			<image style="overflow:visible;opacity:0.75;" width="182" height="135" xlink:href="FF61A89192DC6DAE.png"  transform="matrix(1 0 0 1 -1.9843 -2.5118)">
		</image>
		<g>
			<path class="st0" d="M25,110c-2.4,0-4.5-2.1-4.5-4.5v-81c0-2.4,2.1-4.5,4.5-4.5h101.1c5,7.1,9.9,14.4,14.6,21.6
				c5.2,8,10.4,16.3,15.3,24.5l-15.2,21.1L126,110H25z"/>
			<path class="st1" d="M122.2,27.5c4.2,6,8.3,12.1,12.2,18.2c4.3,6.6,8.5,13.3,12.6,20.1l-12.2,17l-0.2,0.3l-0.2,0.3l-12.6,19.2H28
				v-75H122.2 M130,12.5H25c-6.6,0-12,5.4-12,12v81c0,6.6,5.4,12,12,12h105c5.7-8.7,11.3-17.3,17-26c6-8.3,12-16.7,18-25
				c-5.6-9.4-11.6-19.1-18-29C141.3,28.8,135.7,20.4,130,12.5L130,12.5z"/>
		</g>
	</g>
	<g>
		
			<image style="overflow:visible;opacity:0.75;" width="117" height="68" xlink:href="FF61A89192DC6DAA.png"  transform="matrix(1 0 0 1 28.0157 36.4882)">
		</image>
		<g>
			<text transform="matrix(1 0 0 1 36.4073 58.8256)"><tspan x="0" y="0" class="st2 st3 st4">MAP OUT  </tspan><tspan x="0" y="19.2" class="st2 st3 st4">PROBLEMS</tspan></text>
		</g>
	</g>
</g>
</svg>
