<?xml version="1.0" encoding="utf-8"?>
<!-- Generator: Adobe Illustrator 21.1.0, SVG Export Plug-In . SVG Version: 6.00 Build 0)  -->
<svg version="1.1" id="Layer_1" xmlns="http://www.w3.org/2000/svg" xmlns:xlink="http://www.w3.org/1999/xlink" x="0px" y="0px"
	 viewBox="0 0 208.7 141.7" style="enable-background:new 0 0 208.7 141.7;" xml:space="preserve">
<style type="text/css">
	.st0{fill:#F2B94A;}
	.st1{fill:#FFFFFF;}
	.st2{fill:#242847;}
	.st3{font-family:'Avenir-HeavyOblique';}
	.st4{font-size:16px;}
</style>
<g>
	<g>
		
			<image style="overflow:visible;opacity:0.75;" width="212" height="138" xlink:href="B415F33036D4FA79.png"  transform="matrix(1 0 0 1 -1.4488 1.2126)">
		</image>
		<g>
			<path class="st0" d="M27.4,115.4c0.7-0.8,1.3-1.7,2.1-2.6c2.1-2.7,2.7-3.8,3.9-5.6c1-1.6,2.4-3.9,6.4-9.7
				c5-7.2,10.3-14.5,15.8-21.7l3.2-4.1l-2.8-4.4c-3.9-6.3-8.1-12.4-12.2-18.3c-2.4-3.4-4.6-6.9-6.9-10.7c-2.8-4.5-5.6-9.1-8.9-13.5
				c0.8,0,1.7,0,2.5-0.1c1.4,0,2.8-0.1,4.2-0.1c1.3,0,2.4,0,3.4,0.1c6.4,0.5,24,0.6,44.5,0.8c25,0.2,53.3,0.4,68.6,1.3
				c1.1,0.1,3,0.2,5,1.2c2.8,1.4,4.5,3.9,8.8,11.9c4.4,8.1,6.6,12.1,7.8,14.6c3.9,8.2,8.4,16.7,13.5,25.1l-28.5,33.6l-14.6,1.6H38.3
				l-0.3,0C34.5,115,30.9,115.2,27.4,115.4z"/>
			<path class="st1" d="M42,32.4c7.8,0.3,21.2,0.4,40.4,0.5c24.9,0.2,53.1,0.4,68.2,1.2c0.7,0,1.5,0.1,2.1,0.4
				c1.1,0.6,3.9,5.5,5.7,8.8c4.2,7.7,6.5,11.9,7.6,14.2c3.3,7,7,14.1,11.1,21.2l-3.7,4.3L154,106l-3.1,0.3l-8.2,0.9H42.2
				c0.9-1.4,2.1-3.1,3.7-5.5c4.9-7.1,10.1-14.3,15.5-21.4l6.4-8.3l-5.6-8.8c-4-6.4-8.2-12.7-12.5-18.7c-2.3-3.2-4.4-6.6-6.6-10.3
				C42.8,33.7,42.4,33,42,32.4 M34.6,17.1c-2.9,0-5.9,0.2-8.9,0.2c-0.7,0-1.4,0-2.2,0c-1.6-0.1-3-0.1-4.1-0.1
				c-2.1,0-3.3,0.2-3.9,1.1c-1.1,1.9,2.1,5.6,4,8c6.9,8.4,11.8,18.2,18,27c2.9,4.2,7.1,10.3,12,18c-6.8,8.8-12.1,16.3-16,22
				c-7.9,11.6-6.1,9.9-10,15c-5.7,7.4-10.3,11.8-9,14c0.5,0.9,1.7,1,3.5,1c0.5,0,1,0,1.5,0c5-0.1,11.4-0.4,19-1h105
				c6-0.7,12-1.3,18-2c11.3-13.3,22.7-26.7,34-40c-7.7-12.1-12.8-22.1-16-29c-1.2-2.7-3.5-6.8-8-15c-4.4-8.1-7-12.5-12-15
				c-3.3-1.7-6.4-1.9-8-2c-28.2-1.6-99.4-1-113-2C37.2,17.1,35.9,17.1,34.6,17.1L34.6,17.1z"/>
		</g>
	</g>
	<g>
		
			<image style="overflow:visible;opacity:0.75;" width="112" height="68" xlink:href="B415F33036D4FA7B.png"  transform="matrix(1 0 0 1 67.5512 42.2126)">
		</image>
		<g>
			<text transform="matrix(1 0 0 1 75.9428 64.55)"><tspan x="0" y="0" class="st2 st3 st4">USABILITY</tspan><tspan x="0" y="19.2" class="st2 st3 st4">TESTING</tspan></text>
		</g>
	</g>
</g>
</svg>
