<?xml version="1.0" encoding="utf-8"?>
<!-- Generator: Adobe Illustrator 21.1.0, SVG Export Plug-In . SVG Version: 6.00 Build 0)  -->
<svg version="1.1" id="Layer_1" xmlns="http://www.w3.org/2000/svg" xmlns:xlink="http://www.w3.org/1999/xlink" x="0px" y="0px"
	 viewBox="0 0 1920 1080" style="enable-background:new 0 0 1920 1080;" xml:space="preserve">
<style type="text/css">
	.st0{fill:#072383;}
	.st1{fill:none;stroke:#B54655;stroke-width:7;stroke-miterlimit:10;}
	.st2{fill:none;stroke:#FFFFFF;stroke-width:7;stroke-miterlimit:10;}
	.st3{fill:none;stroke:#BF3F89;stroke-width:9;stroke-miterlimit:10;}
	.st4{fill:none;stroke:#9998FC;stroke-width:16;stroke-miterlimit:10;}
	.st5{fill:#BF3F89;stroke:#BF3F89;stroke-width:3;stroke-miterlimit:10;}
	.st6{fill:#BF3F89;}
	.st7{fill:none;stroke:#9998FC;stroke-width:6;stroke-miterlimit:10;}
	.st8{fill:none;stroke:#9998FC;stroke-miterlimit:10;}
	.st9{fill:none;stroke:#FFFFFF;stroke-width:4;stroke-miterlimit:10;}
	.st10{fill:none;stroke:#9998FC;stroke-width:4;stroke-miterlimit:10;}
	.st11{fill:#072383;stroke:#9998FC;stroke-miterlimit:10;}
	.st12{fill:none;stroke:#FFFFFF;stroke-miterlimit:10;}
	.st13{fill:none;stroke:#FFFFFF;stroke-width:2;stroke-miterlimit:10;}
	.st14{fill:none;stroke:#BF3F89;stroke-miterlimit:10;}
	.st15{fill:#FFFFFF;stroke:#BF3F89;stroke-miterlimit:10;}
	.st16{fill:none;stroke:#FFFFFF;stroke-width:9;stroke-miterlimit:10;}
	.st17{fill:#FFFFFF;stroke:#FFFFFF;stroke-miterlimit:10;}
	.st18{fill:none;stroke:#BF3F89;stroke-width:6;stroke-miterlimit:10;}
	.st19{fill:none;stroke:#FFFFFF;stroke-width:3;stroke-miterlimit:10;}
	.st20{fill:#9998FC;stroke:#FFFFFF;stroke-width:3;stroke-miterlimit:10;}
	.st21{fill:#FFFFFF;}
	.st22{fill:none;stroke:#BF3F89;stroke-width:12;stroke-miterlimit:10;}
	.st23{fill:#9998FC;}
	.st24{fill:none;stroke:#9998FC;stroke-width:9;stroke-miterlimit:10;}
	.st25{fill:none;stroke:#9998FC;stroke-width:5;stroke-miterlimit:10;}
	.st26{fill:#9998FC;stroke:#9998FC;stroke-miterlimit:10;}
	.st27{fill:none;stroke:#BF3F89;stroke-width:3;stroke-miterlimit:10;}
	.st28{fill:none;stroke:#FFFFFF;stroke-width:5;stroke-miterlimit:10;}
	.st29{fill:none;stroke:#BF3F89;stroke-width:2;stroke-miterlimit:10;}
	.st30{fill:none;stroke:#9998FC;stroke-width:3;stroke-miterlimit:10;}
</style>
<rect x="-0.9" class="st0" width="1920.9" height="1080"/>
<g>
	
		<ellipse transform="matrix(0.9969 -7.906958e-02 7.906958e-02 0.9969 -15.338 10.2287)" class="st1" cx="121.5" cy="198.8" rx="24.2" ry="24.2"/>
	<line class="st1" x1="105.4" y1="180.8" x2="137.9" y2="216.5"/>
	<line class="st1" x1="141.1" y1="180.4" x2="101.9" y2="217.2"/>
</g>
<g>
	
		<ellipse transform="matrix(0.9969 -7.906958e-02 7.906958e-02 0.9969 -56.0685 72.2065)" class="st2" cx="883.7" cy="744.1" rx="24.2" ry="24.2"/>
	<line class="st2" x1="867.6" y1="726.1" x2="900.1" y2="761.8"/>
	<line class="st2" x1="903.4" y1="725.7" x2="864.1" y2="762.5"/>
</g>
<g>
	
		<ellipse transform="matrix(0.9969 -7.906958e-02 7.906958e-02 0.9969 -27.4151 10.7294)" class="st1" cx="121.8" cy="351.5" rx="24.2" ry="24.2"/>
	<line class="st1" x1="105.7" y1="333.5" x2="138.2" y2="369.3"/>
	<line class="st1" x1="141.4" y1="333.2" x2="102.1" y2="369.9"/>
</g>
<g>
	
		<ellipse transform="matrix(0.9969 -7.906958e-02 7.906958e-02 0.9969 -20.9771 10.4632)" class="st1" cx="121.6" cy="270.1" rx="24.2" ry="24.2"/>
	<line class="st1" x1="105.5" y1="252.1" x2="138" y2="287.9"/>
	<line class="st1" x1="141.3" y1="251.8" x2="102" y2="288.5"/>
</g>
<g>
	
		<ellipse transform="matrix(0.9969 -7.906958e-02 7.906958e-02 0.9969 -31.4091 90.0245)" class="st3" cx="1121.1" cy="441.6" rx="24.2" ry="24.2"/>
	<line class="st3" x1="1105" y1="423.6" x2="1137.4" y2="459.4"/>
	<line class="st3" x1="1140.7" y1="423.3" x2="1101.4" y2="460"/>
</g>
<g>
	
		<ellipse transform="matrix(0.9969 -7.906958e-02 7.906958e-02 0.9969 -44.7182 90.481)" class="st3" cx="1120.2" cy="609.9" rx="24.2" ry="24.2"/>
	<line class="st3" x1="1104.1" y1="591.9" x2="1136.6" y2="627.7"/>
	<line class="st3" x1="1139.8" y1="591.5" x2="1100.5" y2="628.3"/>
</g>
<g>
	
		<ellipse transform="matrix(0.9969 -7.906958e-02 7.906958e-02 0.9969 -44.1896 107.4159)" class="st3" cx="1334.3" cy="611.7" rx="24.2" ry="24.2"/>
	<line class="st3" x1="1318.2" y1="593.7" x2="1350.7" y2="629.4"/>
	<line class="st3" x1="1353.9" y1="593.3" x2="1314.6" y2="630.1"/>
</g>
<g>
	
		<ellipse transform="matrix(0.9969 -7.906958e-02 7.906958e-02 0.9969 -30.7044 106.8707)" class="st3" cx="1334.1" cy="441.1" rx="24.2" ry="24.2"/>
	<line class="st3" x1="1318" y1="423.1" x2="1350.5" y2="458.9"/>
	<line class="st3" x1="1353.8" y1="422.8" x2="1314.5" y2="459.5"/>
</g>
<circle class="st4" cx="562.5" cy="719.9" r="51.5"/>
<line class="st5" x1="465.7" y1="743.1" x2="596.3" y2="820.8"/>
<circle class="st6" cx="511" cy="782" r="2.5"/>
<circle class="st6" cx="524" cy="793.8" r="2.5"/>
<circle class="st6" cx="500.1" cy="786.4" r="2.5"/>
<circle class="st6" cx="483.9" cy="771.5" r="2.5"/>
<circle class="st6" cx="508.5" cy="796.2" r="2.5"/>
<circle class="st6" cx="486.4" cy="784" r="2.5"/>
<circle class="st6" cx="495.2" cy="773.9" r="2.5"/>
<rect x="587.9" y="285.7" class="st7" width="32.1" height="302.7"/>
<rect x="672" y="285.7" class="st7" width="32.1" height="302.7"/>
<rect x="761.8" y="285.7" class="st7" width="32.1" height="302.7"/>
<rect x="851.6" y="285.7" class="st7" width="32.1" height="302.7"/>
<rect x="569.8" y="312.9" class="st8" width="68.1" height="21.4"/>
<rect x="654" y="312.9" class="st8" width="68.1" height="21.4"/>
<rect x="569.8" y="490.7" class="st8" width="68.1" height="21.4"/>
<rect x="569.8" y="431.4" class="st8" width="68.1" height="21.4"/>
<rect x="569.8" y="372.1" class="st8" width="68.1" height="21.4"/>
<rect x="654" y="490.7" class="st8" width="68.1" height="21.4"/>
<rect x="654" y="431.4" class="st8" width="68.1" height="21.4"/>
<rect x="654" y="372.1" class="st8" width="68.1" height="21.4"/>
<rect x="743.8" y="490.6" class="st8" width="68.1" height="21.4"/>
<rect x="743.8" y="431.4" class="st8" width="68.1" height="21.4"/>
<rect x="743.8" y="372.1" class="st8" width="68.1" height="21.4"/>
<rect x="743.8" y="312.9" class="st8" width="68.1" height="21.4"/>
<rect x="833.6" y="490.6" class="st8" width="68.1" height="21.4"/>
<rect x="833.6" y="431.4" class="st8" width="68.1" height="21.4"/>
<rect x="833.6" y="372.1" class="st8" width="68.1" height="21.4"/>
<rect x="833.6" y="312.9" class="st8" width="68.1" height="21.4"/>
<line class="st8" x1="450" y1="294.3" x2="450" y2="437"/>
<circle class="st9" cx="431.6" cy="320.2" r="10.2"/>
<circle class="st10" cx="477.5" cy="371.6" r="10.2"/>
<circle class="st10" cx="431.6" cy="418.7" r="10.2"/>
<g>
	<g>
		<line class="st11" x1="419" y1="458.9" x2="480.8" y2="458.9"/>
		<rect x="480.7" y="457.5" class="st11" width="5.3" height="2.7"/>
	</g>
	<g>
		<line class="st11" x1="419" y1="467.8" x2="480.8" y2="467.8"/>
		<rect x="480.7" y="466.5" class="st11" width="5.3" height="2.7"/>
	</g>
	<g>
		<line class="st11" x1="419" y1="476.9" x2="480.8" y2="476.9"/>
		<rect x="480.7" y="475.5" class="st11" width="5.3" height="2.7"/>
	</g>
	<g>
		<line class="st11" x1="419" y1="485.7" x2="480.8" y2="485.7"/>
		<rect x="480.7" y="484.3" class="st11" width="5.3" height="2.7"/>
	</g>
</g>
<rect x="996.9" y="260.6" class="st10" width="271.2" height="17.8"/>
<rect x="996.9" y="335.5" class="st10" width="271.2" height="17.8"/>
<rect x="996.9" y="298.5" class="st10" width="271.2" height="17.8"/>
<rect x="1116.9" y="254.2" class="st12" width="12.4" height="30.7"/>
<rect x="1116.9" y="329.1" class="st12" width="12.4" height="30.7"/>
<rect x="1116.9" y="291.6" class="st12" width="12.4" height="30.7"/>
<rect x="1283.9" y="258.8" class="st13" width="19.6" height="19.6"/>
<rect x="1283.9" y="294.8" class="st13" width="19.6" height="19.6"/>
<rect x="1283.9" y="334.6" class="st13" width="19.6" height="19.6"/>
<rect x="963" y="334.6" class="st13" width="19.6" height="19.6"/>
<rect x="963" y="297.6" class="st13" width="19.6" height="19.6"/>
<rect x="963" y="258.8" class="st13" width="19.6" height="19.6"/>
<circle class="st9" cx="1167.6" cy="789.3" r="36.1"/>
<circle class="st14" cx="1167.1" cy="788.5" r="47.8"/>
<rect x="997.2" y="616.8" transform="matrix(-0.5819 0.8133 -0.8133 -0.5819 2138.1221 183.6799)" class="st14" width="49.3" height="49.3"/>
<line class="st14" x1="1022.1" y1="641.1" x2="962.6" y2="599.5"/>
<ellipse transform="matrix(0.5819 -0.8133 0.8133 0.5819 -94.346 1101.3195)" class="st15" cx="1023.9" cy="642.4" rx="2.4" ry="2.4"/>
<ellipse transform="matrix(0.675 -0.7378 0.7378 0.675 -128.4862 979.7684)" class="st14" cx="1047.9" cy="635.7" rx="2.4" ry="2.4"/>
<ellipse transform="matrix(0.5819 -0.8133 0.8133 0.5819 -74.61 1087.4215)" class="st14" cx="1020.3" cy="616.3" rx="2.4" ry="2.4"/>
<ellipse transform="matrix(0.5819 -0.8133 0.8133 0.5819 -77.6739 1108.2303)" class="st14" cx="1039" cy="629.7" rx="2.4" ry="2.4"/>
<ellipse transform="matrix(0.5819 -0.8133 0.8133 0.5819 -90.0744 1116.9354)" class="st14" cx="1041.3" cy="646.1" rx="2.4" ry="2.4"/>
<ellipse transform="matrix(0.5819 -0.8133 0.8133 0.5819 -108.8356 1082.3821)" class="st14" cx="998.3" cy="647" rx="2.4" ry="2.4"/>
<ellipse transform="matrix(0.5819 -0.8133 0.8133 0.5819 -111.8995 1103.1909)" class="st14" cx="1017" cy="660.4" rx="2.4" ry="2.4"/>
<ellipse transform="matrix(0.5819 -0.8133 0.8133 0.5819 -113.4172 1113.4983)" class="st14" cx="1026.2" cy="667.1" rx="2.4" ry="2.4"/>
<ellipse transform="matrix(0.5819 -0.8133 0.8133 0.5819 -76.1419 1097.8259)" class="st14" cx="1029.6" cy="623" rx="2.4" ry="2.4"/>
<ellipse transform="matrix(0.5819 -0.8133 0.8133 0.5819 -101.4767 1115.2565)" class="st14" cx="1033.9" cy="656.3" rx="2.4" ry="2.4"/>
<ellipse transform="matrix(0.5819 -0.8133 0.8133 0.5819 -110.3676 1092.7865)" class="st14" cx="1007.6" cy="653.7" rx="2.4" ry="2.4"/>
<ellipse transform="matrix(0.5819 -0.8133 0.8133 0.5819 -85.4928 1085.8191)" class="st14" cx="1013.3" cy="626.1" rx="2.4" ry="2.4"/>
<ellipse transform="matrix(0.5819 -0.8133 0.8133 0.5819 -97.1642 1084.1006)" class="st14" cx="1005.8" cy="636.5" rx="2.4" ry="2.4"/>
<line class="st16" x1="1146.9" y1="609.8" x2="1310.3" y2="608.9"/>
<line class="st16" x1="1149.7" y1="441.5" x2="1309.4" y2="440.6"/>
<line class="st16" x1="1337.1" y1="587.4" x2="1336" y2="465.2"/>
<line class="st16" x1="1122.2" y1="465" x2="1120.2" y2="584.1"/>
<ellipse transform="matrix(0.5819 -0.8133 0.8133 0.5819 -85.2672 1036.9852)" class="st17" cx="965.9" cy="601.4" rx="7.3" ry="7.3"/>
<g>
	<circle class="st6" cx="1099.7" cy="215.7" r="4.1"/>
	<circle class="st6" cx="1108.5" cy="215.7" r="4.1"/>
	<circle class="st6" cx="1117.4" cy="215.7" r="4.1"/>
	<circle class="st6" cx="1126.6" cy="215.7" r="4.1"/>
	<circle class="st6" cx="1135.5" cy="215.5" r="4.1"/>
	<circle class="st6" cx="1144.7" cy="215.5" r="4.1"/>
</g>
<g>
	<rect x="1193.1" y="74" class="st18" width="193.5" height="114.6"/>
	<line class="st19" x1="1227.3" y1="85.7" x2="1227.3" y2="115.5"/>
	<line class="st19" x1="1283.9" y1="85.7" x2="1283.9" y2="115.5"/>
	<line class="st19" x1="1346.9" y1="85.7" x2="1346.9" y2="115.5"/>
	<rect x="1248" y="133.8" class="st2" width="82.1" height="105.1"/>
</g>
<g>
	<g>
		<g>
			<circle class="st6" cx="1044.5" cy="169.9" r="4.1"/>
			<circle class="st6" cx="1053.3" cy="169.9" r="4.1"/>
			<circle class="st6" cx="1062.2" cy="169.9" r="4.1"/>
			<circle class="st6" cx="1071.5" cy="169.9" r="4.1"/>
			<circle class="st6" cx="1080.3" cy="169.7" r="4.1"/>
			<circle class="st6" cx="1089.5" cy="169.7" r="4.1"/>
		</g>
		<g>
			<circle class="st6" cx="1044.2" cy="187.9" r="4.1"/>
			<circle class="st6" cx="1053" cy="187.9" r="4.1"/>
			<circle class="st6" cx="1061.9" cy="187.9" r="4.1"/>
			<circle class="st6" cx="1071.1" cy="187.9" r="4.1"/>
			<circle class="st6" cx="1080" cy="187.7" r="4.1"/>
			<circle class="st6" cx="1089.2" cy="187.7" r="4.1"/>
		</g>
		<g>
			<circle class="st6" cx="1044.6" cy="178.9" r="4.1"/>
			<circle class="st6" cx="1053.4" cy="178.9" r="4.1"/>
			<circle class="st6" cx="1062.3" cy="178.9" r="4.1"/>
			<circle class="st6" cx="1071.5" cy="178.9" r="4.1"/>
			<circle class="st6" cx="1080.4" cy="178.7" r="4.1"/>
			<circle class="st6" cx="1089.5" cy="178.7" r="4.1"/>
		</g>
		<g>
			<circle class="st6" cx="1044.7" cy="197" r="4.1"/>
			<circle class="st6" cx="1053.6" cy="197" r="4.1"/>
			<circle class="st6" cx="1062.4" cy="197" r="4.1"/>
			<circle class="st6" cx="1071.7" cy="197" r="4.1"/>
			<circle class="st6" cx="1080.6" cy="196.8" r="4.1"/>
			<circle class="st6" cx="1089.7" cy="196.8" r="4.1"/>
		</g>
		<g>
			<circle class="st6" cx="1044.4" cy="215.1" r="4.1"/>
			<circle class="st6" cx="1053.2" cy="215.1" r="4.1"/>
			<circle class="st6" cx="1062.1" cy="215.1" r="4.1"/>
			<circle class="st6" cx="1071.3" cy="215.1" r="4.1"/>
			<circle class="st6" cx="1080.2" cy="214.8" r="4.1"/>
			<circle class="st6" cx="1089.4" cy="214.8" r="4.1"/>
		</g>
		<g>
			<circle class="st6" cx="1044.7" cy="206" r="4.1"/>
			<circle class="st6" cx="1053.6" cy="206" r="4.1"/>
			<circle class="st6" cx="1062.4" cy="206" r="4.1"/>
			<circle class="st6" cx="1071.7" cy="206" r="4.1"/>
			<circle class="st6" cx="1080.6" cy="205.8" r="4.1"/>
			<circle class="st6" cx="1089.7" cy="205.8" r="4.1"/>
		</g>
	</g>
	<g>
		<circle class="st6" cx="1045" cy="115.7" r="4.1"/>
		<circle class="st6" cx="1053.8" cy="115.7" r="4.1"/>
		<circle class="st6" cx="1062.7" cy="115.7" r="4.1"/>
		<circle class="st6" cx="1072" cy="115.7" r="4.1"/>
		<circle class="st6" cx="1080.8" cy="115.4" r="4.1"/>
		<circle class="st6" cx="1090" cy="115.4" r="4.1"/>
	</g>
	<g>
		<circle class="st6" cx="1044.7" cy="133.7" r="4.1"/>
		<circle class="st6" cx="1053.5" cy="133.7" r="4.1"/>
		<circle class="st6" cx="1062.4" cy="133.7" r="4.1"/>
		<circle class="st6" cx="1071.6" cy="133.7" r="4.1"/>
		<circle class="st6" cx="1080.5" cy="133.5" r="4.1"/>
		<circle class="st6" cx="1089.7" cy="133.5" r="4.1"/>
	</g>
	<g>
		<circle class="st6" cx="1045.1" cy="124.7" r="4.1"/>
		<circle class="st6" cx="1053.9" cy="124.7" r="4.1"/>
		<circle class="st6" cx="1062.8" cy="124.7" r="4.1"/>
		<circle class="st6" cx="1072" cy="124.7" r="4.1"/>
		<circle class="st6" cx="1080.9" cy="124.5" r="4.1"/>
		<circle class="st6" cx="1090" cy="124.5" r="4.1"/>
	</g>
	<g>
		<circle class="st6" cx="1045.2" cy="142.8" r="4.1"/>
		<circle class="st6" cx="1054.1" cy="142.8" r="4.1"/>
		<circle class="st6" cx="1062.9" cy="142.8" r="4.1"/>
		<circle class="st6" cx="1072.2" cy="142.8" r="4.1"/>
		<circle class="st6" cx="1081" cy="142.6" r="4.1"/>
		<circle class="st6" cx="1090.2" cy="142.6" r="4.1"/>
	</g>
	<g>
		<circle class="st6" cx="1044.9" cy="160.8" r="4.1"/>
		<circle class="st6" cx="1053.7" cy="160.8" r="4.1"/>
		<circle class="st6" cx="1062.6" cy="160.8" r="4.1"/>
		<circle class="st6" cx="1071.8" cy="160.8" r="4.1"/>
		<circle class="st6" cx="1080.7" cy="160.6" r="4.1"/>
		<circle class="st6" cx="1089.9" cy="160.6" r="4.1"/>
	</g>
	<g>
		<circle class="st6" cx="1045.2" cy="151.8" r="4.1"/>
		<circle class="st6" cx="1054.1" cy="151.8" r="4.1"/>
		<circle class="st6" cx="1062.9" cy="151.8" r="4.1"/>
		<circle class="st6" cx="1072.2" cy="151.8" r="4.1"/>
		<circle class="st6" cx="1081" cy="151.5" r="4.1"/>
		<circle class="st6" cx="1090.2" cy="151.5" r="4.1"/>
	</g>
	<g>
		<circle class="st6" cx="1099.4" cy="115.7" r="4.1"/>
		<circle class="st6" cx="1108.2" cy="115.7" r="4.1"/>
		<circle class="st6" cx="1117.1" cy="115.7" r="4.1"/>
		<circle class="st6" cx="1126.4" cy="115.7" r="4.1"/>
		<circle class="st6" cx="1135.2" cy="115.4" r="4.1"/>
		<circle class="st6" cx="1144.4" cy="115.4" r="4.1"/>
	</g>
	<g>
		<circle class="st6" cx="1099.1" cy="133.7" r="4.1"/>
		<circle class="st6" cx="1107.9" cy="133.7" r="4.1"/>
		<circle class="st6" cx="1116.8" cy="133.7" r="4.1"/>
		<circle class="st6" cx="1126" cy="133.7" r="4.1"/>
		<circle class="st6" cx="1134.9" cy="133.5" r="4.1"/>
		<circle class="st6" cx="1144.1" cy="133.5" r="4.1"/>
	</g>
	<g>
		<circle class="st6" cx="1099.5" cy="124.7" r="4.1"/>
		<circle class="st6" cx="1108.3" cy="124.7" r="4.1"/>
		<circle class="st6" cx="1117.2" cy="124.7" r="4.1"/>
		<circle class="st6" cx="1126.4" cy="124.7" r="4.1"/>
		<circle class="st6" cx="1135.3" cy="124.5" r="4.1"/>
		<circle class="st6" cx="1144.4" cy="124.5" r="4.1"/>
	</g>
	<g>
		<circle class="st6" cx="1099.6" cy="142.8" r="4.1"/>
		<circle class="st6" cx="1108.5" cy="142.8" r="4.1"/>
		<circle class="st6" cx="1117.3" cy="142.8" r="4.1"/>
		<circle class="st6" cx="1126.6" cy="142.8" r="4.1"/>
		<circle class="st6" cx="1135.4" cy="142.6" r="4.1"/>
		<circle class="st6" cx="1144.6" cy="142.6" r="4.1"/>
	</g>
	<g>
		<circle class="st6" cx="1099.3" cy="160.8" r="4.1"/>
		<circle class="st6" cx="1108.1" cy="160.8" r="4.1"/>
		<circle class="st6" cx="1117" cy="160.8" r="4.1"/>
		<circle class="st6" cx="1126.2" cy="160.8" r="4.1"/>
		<circle class="st6" cx="1135.1" cy="160.6" r="4.1"/>
		<circle class="st6" cx="1144.3" cy="160.6" r="4.1"/>
	</g>
	<g>
		<circle class="st6" cx="1099.6" cy="151.8" r="4.1"/>
		<circle class="st6" cx="1108.5" cy="151.8" r="4.1"/>
		<circle class="st6" cx="1117.3" cy="151.8" r="4.1"/>
		<circle class="st6" cx="1126.6" cy="151.8" r="4.1"/>
		<circle class="st6" cx="1135.4" cy="151.5" r="4.1"/>
		<circle class="st6" cx="1144.6" cy="151.5" r="4.1"/>
	</g>
	<g>
		<circle class="st6" cx="1099.1" cy="170.5" r="4.1"/>
		<circle class="st6" cx="1107.9" cy="170.5" r="4.1"/>
		<circle class="st6" cx="1116.8" cy="170.5" r="4.1"/>
		<circle class="st6" cx="1126" cy="170.5" r="4.1"/>
		<circle class="st6" cx="1134.9" cy="170.3" r="4.1"/>
		<circle class="st6" cx="1144" cy="170.3" r="4.1"/>
	</g>
	<g>
		<circle class="st6" cx="1098.7" cy="188.5" r="4.1"/>
		<circle class="st6" cx="1107.6" cy="188.5" r="4.1"/>
		<circle class="st6" cx="1116.4" cy="188.5" r="4.1"/>
		<circle class="st6" cx="1125.7" cy="188.5" r="4.1"/>
		<circle class="st6" cx="1134.6" cy="188.3" r="4.1"/>
		<circle class="st6" cx="1143.7" cy="188.3" r="4.1"/>
	</g>
	<g>
		<circle class="st6" cx="1099.1" cy="179.5" r="4.1"/>
		<circle class="st6" cx="1107.9" cy="179.5" r="4.1"/>
		<circle class="st6" cx="1116.8" cy="179.5" r="4.1"/>
		<circle class="st6" cx="1126.1" cy="179.5" r="4.1"/>
		<circle class="st6" cx="1134.9" cy="179.3" r="4.1"/>
		<circle class="st6" cx="1144.1" cy="179.3" r="4.1"/>
	</g>
	<g>
		<circle class="st6" cx="1099.3" cy="197.6" r="4.1"/>
		<circle class="st6" cx="1108.1" cy="197.6" r="4.1"/>
		<circle class="st6" cx="1117" cy="197.6" r="4.1"/>
		<circle class="st6" cx="1126.2" cy="197.6" r="4.1"/>
		<circle class="st6" cx="1135.1" cy="197.4" r="4.1"/>
		<circle class="st6" cx="1144.3" cy="197.4" r="4.1"/>
	</g>
	<g>
		<circle class="st6" cx="1099.3" cy="206.6" r="4.1"/>
		<circle class="st6" cx="1108.1" cy="206.6" r="4.1"/>
		<circle class="st6" cx="1117" cy="206.6" r="4.1"/>
		<circle class="st6" cx="1126.2" cy="206.6" r="4.1"/>
		<circle class="st6" cx="1135.1" cy="206.3" r="4.1"/>
		<circle class="st6" cx="1144.3" cy="206.3" r="4.1"/>
	</g>
	<g>
		<circle class="st6" cx="1046.3" cy="106.6" r="4.1"/>
		<circle class="st6" cx="1055.1" cy="106.6" r="4.1"/>
		<circle class="st6" cx="1064" cy="106.6" r="4.1"/>
		<circle class="st6" cx="1073.2" cy="106.6" r="4.1"/>
		<circle class="st6" cx="1082.1" cy="106.4" r="4.1"/>
		<circle class="st6" cx="1091.2" cy="106.4" r="4.1"/>
	</g>
	<g>
		<circle class="st6" cx="1099.8" cy="106.8" r="4.1"/>
		<circle class="st6" cx="1108.6" cy="106.8" r="4.1"/>
		<circle class="st6" cx="1117.5" cy="106.8" r="4.1"/>
		<circle class="st6" cx="1126.7" cy="106.8" r="4.1"/>
		<circle class="st6" cx="1135.6" cy="106.5" r="4.1"/>
		<circle class="st6" cx="1144.8" cy="106.5" r="4.1"/>
	</g>
	<g>
		
			<ellipse transform="matrix(1 -9.128115e-03 9.128115e-03 1 -0.9329 9.4644)" class="st6" cx="1036.3" cy="106.9" rx="4.1" ry="4.1"/>
		
			<ellipse transform="matrix(1 -9.128115e-03 9.128115e-03 1 -1.0134 9.4655)" class="st6" cx="1036.4" cy="115.7" rx="4.1" ry="4.1"/>
		
			<ellipse transform="matrix(1 -9.128115e-03 9.128115e-03 1 -1.0945 9.4666)" class="st6" cx="1036.5" cy="124.6" rx="4.1" ry="4.1"/>
		
			<ellipse transform="matrix(1 -9.128115e-03 9.128115e-03 1 -1.1788 9.4677)" class="st6" cx="1036.6" cy="133.9" rx="4.1" ry="4.1"/>
		
			<ellipse transform="matrix(1 -9.128115e-03 9.128115e-03 1 -1.2597 9.4709)" class="st6" cx="1036.9" cy="142.7" rx="4.1" ry="4.1"/>
		<ellipse transform="matrix(1 -9.128115e-03 9.128115e-03 1 -1.3433 9.472)" class="st6" cx="1037" cy="151.9" rx="4.1" ry="4.1"/>
	</g>
	<g>
		
			<ellipse transform="matrix(1 -9.128115e-03 9.128115e-03 1 -1.4201 9.4618)" class="st6" cx="1035.8" cy="160.3" rx="4.1" ry="4.1"/>
		
			<ellipse transform="matrix(1 -9.128115e-03 9.128115e-03 1 -1.5005 9.4629)" class="st6" cx="1035.9" cy="169.1" rx="4.1" ry="4.1"/>
		<ellipse transform="matrix(1 -9.128115e-03 9.128115e-03 1 -1.5816 9.464)" class="st6" cx="1036" cy="178" rx="4.1" ry="4.1"/>
		
			<ellipse transform="matrix(1 -9.128115e-03 9.128115e-03 1 -1.6659 9.4652)" class="st6" cx="1036.1" cy="187.2" rx="4.1" ry="4.1"/>
		
			<ellipse transform="matrix(1 -9.128115e-03 9.128115e-03 1 -1.7468 9.4683)" class="st6" cx="1036.4" cy="196.1" rx="4.1" ry="4.1"/>
		
			<ellipse transform="matrix(1 -9.128115e-03 9.128115e-03 1 -1.8304 9.4694)" class="st6" cx="1036.5" cy="205.3" rx="4.1" ry="4.1"/>
	</g>
	<path class="st2" d="M1124.6,222.1H1058c-16.6,0-30.1-13.6-30.1-30.1v-66.6c0-16.6,13.6-30.1,30.1-30.1h66.6
		c16.6,0,30.1,13.6,30.1,30.1V192C1154.8,208.6,1141.2,222.1,1124.6,222.1z"/>
</g>
<rect x="595.7" y="838.8" class="st9" width="44.8" height="44.8"/>
<rect x="721.4" y="836.8" class="st9" width="44.8" height="44.8"/>
<rect x="789.6" y="838.8" class="st13" width="44.8" height="44.8"/>
<rect x="851.6" y="838.8" class="st9" width="44.8" height="44.8"/>
<rect x="658.6" y="838.8" class="st14" width="44.8" height="44.8"/>
<ellipse class="st9" cx="450.5" cy="582" rx="27.2" ry="10.3"/>
<ellipse class="st9" cx="450.5" cy="651.3" rx="27.2" ry="10.3"/>
<ellipse class="st8" cx="450.5" cy="615.1" rx="27.2" ry="10.3"/>
<line class="st19" x1="1000.8" y1="141.2" x2="1000.8" y2="186.5"/>
<path class="st4" d="M1423.2,859.2H498.4c-55.4,0-100.8-45.3-100.8-100.8V318.5c0-55.4,45.3-100.8,100.8-100.8h924.8
	c55.4,0,100.8,45.3,100.8,100.8v439.9C1524,813.9,1478.6,859.2,1423.2,859.2z"/>
<line class="st19" x1="820.4" y1="232.2" x2="973" y2="232.2"/>
<g>
	<g>
		<line class="st19" x1="971.4" y1="185.2" x2="971.4" y2="231.7"/>
		<line class="st19" x1="1000.8" y1="185.2" x2="970.9" y2="185.1"/>
		<line class="st19" x1="942.1" y1="142.4" x2="1000.8" y2="142.4"/>
		<line class="st19" x1="942.1" y1="179.3" x2="942.1" y2="142.4"/>
		<line class="st19" x1="821.8" y1="185.7" x2="821.8" y2="232.2"/>
		<line class="st19" x1="823.2" y1="185.6" x2="791.3" y2="185.5"/>
		<line class="st19" x1="792.5" y1="143.2" x2="792.5" y2="186"/>
		<line class="st19" x1="792" y1="143.2" x2="850.7" y2="143.2"/>
		<line class="st19" x1="850.7" y1="179.6" x2="850.7" y2="142.7"/>
		<line class="st19" x1="850.7" y1="179.6" x2="942.6" y2="179.6"/>
	</g>
	<rect x="828.8" y="143.2" class="st20" width="21.9" height="11.5"/>
	<rect x="942.1" y="142.4" class="st20" width="21.9" height="11.5"/>
	<rect x="867" y="110.6" class="st14" width="59.2" height="85.6"/>
</g>
<g>
	<rect x="658.6" y="179.6" class="st19" width="56.9" height="56.9"/>
	<rect x="726.9" y="179.6" class="st19" width="56.9" height="56.9"/>
	<rect x="668.5" y="161.1" class="st14" width="37.1" height="37.1"/>
	<rect x="736.8" y="161" class="st14" width="37.1" height="37.1"/>
	<circle class="st21" cx="680" cy="169.3" r="3.6"/>
	<circle class="st21" cx="695.2" cy="169.3" r="3.6"/>
	<circle class="st21" cx="748.4" cy="169.3" r="3.6"/>
	<circle class="st21" cx="761.8" cy="169.3" r="3.6"/>
</g>
<ellipse class="st6" cx="431.1" cy="507" rx="4.2" ry="8.1"/>
<ellipse class="st6" cx="442.7" cy="507" rx="4.2" ry="8.1"/>
<ellipse class="st6" cx="454.7" cy="507" rx="4.2" ry="8.1"/>
<ellipse class="st6" cx="466.6" cy="507" rx="4.2" ry="8.1"/>
<ellipse class="st6" cx="431.1" cy="525.5" rx="4.2" ry="8.1"/>
<ellipse class="st6" cx="442.7" cy="525.5" rx="4.2" ry="8.1"/>
<ellipse class="st6" cx="454.7" cy="525.5" rx="4.2" ry="8.1"/>
<ellipse class="st6" cx="466.6" cy="525.5" rx="4.2" ry="8.1"/>
<ellipse class="st6" cx="431.1" cy="544.7" rx="4.2" ry="8.1"/>
<ellipse class="st6" cx="442.7" cy="544.7" rx="4.2" ry="8.1"/>
<ellipse class="st6" cx="454.7" cy="544.7" rx="4.2" ry="8.1"/>
<ellipse class="st6" cx="466.6" cy="544.7" rx="4.2" ry="8.1"/>
<path class="st22" d="M1487.7,625.1c0,104.8-64,189.6-143,189.6"/>
<line class="st14" x1="1484.1" y1="381.1" x2="1484.1" y2="399.2"/>
<line class="st14" x1="1484.1" y1="406.4" x2="1484.1" y2="421.9"/>
<line class="st14" x1="1484.1" y1="354.2" x2="1484.1" y2="369.2"/>
<line class="st14" x1="1484.1" y1="433.2" x2="1484.1" y2="448.3"/>
<line class="st14" x1="1484.1" y1="455.9" x2="1484.1" y2="471"/>
<line class="st14" x1="1484.1" y1="478.6" x2="1484.1" y2="493.7"/>
<line class="st14" x1="1484.1" y1="501.3" x2="1484.1" y2="516.4"/>
<line class="st14" x1="1484.1" y1="522.1" x2="1484.1" y2="537.1"/>
<line class="st14" x1="1484.1" y1="543.7" x2="1484.1" y2="558.7"/>
<line class="st14" x1="1484.1" y1="565.3" x2="1484.1" y2="580.4"/>
<line class="st14" x1="1484.1" y1="329.9" x2="1484.1" y2="344.9"/>
<line class="st14" x1="1484.1" y1="304.6" x2="1484.1" y2="319.6"/>
<line class="st14" x1="1465.6" y1="301.7" x2="1465.6" y2="316.8"/>
<line class="st14" x1="1445.2" y1="301.7" x2="1445.2" y2="316.8"/>
<line class="st14" x1="1432.1" y1="312.1" x2="1432.1" y2="327.1"/>
<line class="st14" x1="1432.1" y1="335.5" x2="1432.1" y2="350.6"/>
<line class="st14" x1="1445.2" y1="347.8" x2="1445.2" y2="362.9"/>
<line class="st14" x1="1457.8" y1="369.2" x2="1457.8" y2="384.3"/>
<line class="st14" x1="1445.2" y1="393.9" x2="1445.2" y2="409"/>
<line class="st14" x1="1435" y1="421.9" x2="1435" y2="436.9"/>
<line class="st14" x1="1445.2" y1="445.4" x2="1445.2" y2="460.4"/>
<line class="st14" x1="1457.8" y1="466.7" x2="1457.8" y2="481.8"/>
<line class="st14" x1="1445.2" y1="493.7" x2="1445.2" y2="508.7"/>
<line class="st14" x1="1435" y1="526.4" x2="1435" y2="541.5"/>
<line class="st14" x1="1445.2" y1="558.7" x2="1445.2" y2="573.8"/>
<line class="st14" x1="1465.6" y1="586.9" x2="1465.6" y2="573.8"/>
<line class="st14" x1="1484.1" y1="594.9" x2="1484.1" y2="605.5"/>
<circle class="st9" cx="1405.9" cy="301.7" r="10.3"/>
<circle class="st9" cx="1405.9" cy="343" r="10.3"/>
<circle class="st9" cx="1405.9" cy="384.3" r="10.3"/>
<circle class="st9" cx="1405.9" cy="420.8" r="10.3"/>
<circle class="st9" cx="1405.9" cy="455.9" r="10.3"/>
<circle class="st9" cx="1405.9" cy="491.1" r="10.3"/>
<circle class="st9" cx="1405.9" cy="528.1" r="10.3"/>
<circle class="st9" cx="1405.9" cy="563.3" r="10.3"/>
<circle class="st9" cx="1405.9" cy="598.4" r="10.3"/>
<g>
	<line class="st9" x1="1307.5" y1="652.9" x2="1503.5" y2="651.4"/>
	<line class="st9" x1="1503.8" y1="747.2" x2="1503.5" y2="649.4"/>
	<path class="st9" d="M1309.3,652.9c0,51,87,92.2,194.5,92.2"/>
</g>
<circle class="st23" cx="1322.1" cy="661.7" r="4"/>
<circle class="st23" cx="1337.7" cy="661.7" r="4"/>
<circle class="st23" cx="1354.4" cy="661.7" r="4"/>
<circle class="st23" cx="1370" cy="661.7" r="4"/>
<circle class="st23" cx="1387" cy="661.7" r="4"/>
<circle class="st23" cx="1404" cy="661.7" r="4"/>
<circle class="st23" cx="1421.1" cy="661.7" r="4"/>
<circle class="st23" cx="1437.2" cy="661.7" r="4"/>
<circle class="st23" cx="1453.5" cy="661.7" r="4"/>
<circle class="st23" cx="1470.6" cy="661.7" r="4"/>
<circle class="st23" cx="1489" cy="661.7" r="4"/>
<circle class="st8" cx="969.8" cy="802.5" r="43.8"/>
<circle class="st24" cx="969" cy="801.9" r="28.2"/>
<circle class="st25" cx="1108.1" cy="672.6" r="21.8"/>
<g>
	<g>
		<line class="st26" x1="1226.4" y1="695.3" x2="1226.1" y2="633.5"/>
		
			<rect x="1223.4" y="629.5" transform="matrix(-4.888950e-03 -1 1 -4.888950e-03 601.1353 1860.0134)" class="st26" width="5.3" height="2.7"/>
	</g>
	<g>
		<line class="st26" x1="1235.3" y1="695.2" x2="1235" y2="633.5"/>
		
			<rect x="1232.3" y="629.5" transform="matrix(-4.888950e-03 -1 1 -4.888950e-03 610.1546 1868.9014)" class="st26" width="5.3" height="2.7"/>
	</g>
	<g>
		<line class="st26" x1="1244.3" y1="695.2" x2="1244" y2="633.4"/>
		
			<rect x="1241.3" y="629.4" transform="matrix(-4.888950e-03 -1 1 -4.888950e-03 619.2737 1877.8877)" class="st26" width="5.3" height="2.7"/>
	</g>
	<g>
		<line class="st26" x1="1253.2" y1="695.1" x2="1252.8" y2="633.4"/>
		
			<rect x="1250.2" y="629.4" transform="matrix(-4.888950e-03 -1 1 -4.888950e-03 628.1893 1886.6736)" class="st26" width="5.3" height="2.7"/>
	</g>
</g>
<g>
	<g>
		<line class="st26" x1="1262.2" y1="695.3" x2="1261.9" y2="633.5"/>
		
			<rect x="1259.2" y="629.5" transform="matrix(-4.888950e-03 -1 1 -4.888950e-03 637.1956 1895.8719)" class="st26" width="5.3" height="2.7"/>
	</g>
	<g>
		<line class="st26" x1="1271.2" y1="695.2" x2="1270.9" y2="633.5"/>
		
			<rect x="1268.2" y="629.5" transform="matrix(-4.888950e-03 -1 1 -4.888950e-03 646.2149 1904.7599)" class="st26" width="5.3" height="2.7"/>
	</g>
	<g>
		<line class="st26" x1="1280.2" y1="695.2" x2="1279.9" y2="633.4"/>
		
			<rect x="1277.2" y="629.4" transform="matrix(-4.888950e-03 -1 1 -4.888950e-03 655.334 1913.7462)" class="st26" width="5.3" height="2.7"/>
	</g>
	<g>
		<line class="st26" x1="1289" y1="695.1" x2="1288.7" y2="633.4"/>
		
			<rect x="1286" y="629.4" transform="matrix(-4.888950e-03 -1 1 -4.888950e-03 664.2496 1922.5321)" class="st26" width="5.3" height="2.7"/>
	</g>
</g>
<g>
	<path class="st27" d="M1097.6,823.7c0-50.8,23.3-91.9,52-91.9"/>
	<path class="st27" d="M1193.1,652.2c0,44-19.4,79.5-43.4,79.5"/>
</g>
<g>
	<path class="st27" d="M1057.6,822.3c0-50.8,23.3-91.9,52-91.9"/>
	<path class="st27" d="M1153.1,650.8c0,44-19.4,79.5-43.4,79.5"/>
</g>
<g>
	<path class="st27" d="M1073.4,822.3c0-50.8,23.3-91.9,52-91.9"/>
	<path class="st27" d="M1168.8,650.8c0,44-19.4,79.5-43.4,79.5"/>
</g>
<g>
	<path class="st27" d="M1082.2,823.7c0-50.8,23.3-91.9,52-91.9"/>
	<path class="st27" d="M1177.6,652.2c0,44-19.4,79.5-43.4,79.5"/>
</g>
<g>
	<path class="st27" d="M1090.5,824c0-50.8,23.3-91.9,52-91.9"/>
	<path class="st27" d="M1186,652.6c0,44-19.4,79.5-43.4,79.5"/>
</g>
<g>
	<path class="st27" d="M1065.8,823.7c0-50.8,23.3-91.9,52-91.9"/>
	<path class="st27" d="M1161.2,652.2c0,44-19.4,79.5-43.4,79.5"/>
</g>
<line class="st25" x1="1108.1" y1="825.4" x2="1050.5" y2="824"/>
<line class="st25" x1="1206.9" y1="652.9" x2="1148.8" y2="652.2"/>
<g>
	<g>
		<path class="st21" d="M977.9,803.5c11.4-1.5,22.8-3,34.3-4.5c8.2-1.1,17.1-2.1,23.9-7.5c4.7-3.7,7.3-9.7,6.7-15.7
			c-0.8-7.6-6.1-9.6-12.6-11.7c-11.1-3.5-13.1-15.8-12.4-25.9c0.2-2.7,0.4-5.5,0.8-8.2c0.7-4.5,2.2-6.7,7.4-7c6-0.3,12.1,1,18.2,0.9
			c7.9-0.1,16-1.5,22.4-6.3c5.6-4.2,10.1-11.3,7-18.3c-1.9-4.4-6.3-8.3-4.6-13.5c1.6-5,7.5-8,12.3-9.1c10.1-2.2,20.3,1.7,30.2-2.8
			c1.8-0.8,0.2-3.4-1.5-2.6c-12.8,5.9-35.7-4.4-43.3,12.3c-3.3,7.2,2.6,11.6,4.7,17.9c2,6.1-3.6,12-8.4,15c-4.5,2.7-9.7,4-14.9,4.4
			c-5.5,0.4-10.9-0.1-16.4-0.5c-3.6-0.3-8.3-1.2-11.7,0.9c-5.8,3.6-5.3,14.7-5.3,20.5c-0.1,7.6,1.7,15.7,7.4,21.1
			c6.1,5.8,17.9,4.1,17.8,14.9c-0.1,12.3-13.1,16.1-23.1,17.7c-12.9,2-25.9,3.4-38.8,5.1C976,800.7,976,803.7,977.9,803.5
			L977.9,803.5z"/>
	</g>
</g>
<g>
	<g>
		<path class="st21" d="M594.7,874.3c-14.4-7.3-28.3,8.3-27.2,22.2c1.3,16.6,17.6,36.4,34.5,38.8c4.3,0.6,8.2-0.2,12.3-1.5
			c6.4-2.1,12.1-3,18.6-0.8c10.8,3.8,18.7,12.6,28.7,17.9c7.4,3.9,16.3,6.1,24.1,2c7.5-4,11.5-11.9,17.3-17.8
			c8.8-8.9,20.7-8.8,31.3-2.9c10.5,5.9,17.1,16.3,24.3,25.5c11.9,15.4,27.8,26.3,47.1,30.2c18,3.6,36.7,0.4,52.6-9
			c8-4.7,15.1-10.9,20.9-18.1c5.8-7.3,8.9-15.7,13.7-23.6c3.8-6.3,9.3-9.7,16.6-10.5c5.2-0.6,10.4-0.1,15.6-0.9
			c7.5-1.2,16.2-5.5,16.3-14.2c0.1-9.5-8.7-19.5-15.4-25.2c-7.7-6.5-17-10.7-26.9-12.3c-0.9-0.1-1.4,1.3-0.4,1.4
			c9.2,1.4,17.8,5.1,25.1,10.9c6.9,5.5,16.2,15.6,16.1,25.1c-0.1,11.9-15.3,13-24,13.2c-7.4,0.2-14.9,0.9-20.4,6.4
			c-5.4,5.6-7.7,13.4-11.5,20c-4.5,7.7-10.4,14.5-17.3,20c-14.4,11.7-32.9,17.8-51.4,16.4c-19-1.4-37.3-10.3-50.1-24.5
			c-11.4-12.8-19.7-30.1-37.3-35.5c-6.8-2.1-14.4-2-20.5,1.9c-6.2,3.9-10,10.4-14.8,15.8c-7.9,8.8-18,10-28.5,4.9
			c-8.6-4.1-15.4-11-23.7-15.6c-8.9-5-16.7-5.5-26.2-2.4c-12.5,4-23.1-1.4-31.8-10.5c-7.8-8.2-15.3-20.2-12.7-32
			c2.3-10.4,14.2-19.5,24.6-14.1C594.8,876.1,595.6,874.8,594.7,874.3L594.7,874.3z"/>
	</g>
</g>
<g>
	<g>
		<path class="st21" d="M820.6,840.7c-1.9-5.4,0.1-10.9,4.2-14.8c5-4.7,12-5.6,18.6-5.1c11.5,0.8,23.3,4,34.4,7
			c21.3,5.8,42.1,14.5,59.4,28.5c8,6.5,15.2,14,21,22.5c2.6,3.8,4.9,7.8,6.9,12c1.1,2.3,2.1,4.6,2.9,6.9c1.4,3.7,3.3,8.8-2,10.1
			c-11.7,2.9-24.1,4.2-36,6.2c-12,2.1-24,4-35.9,6.2c-8.7,1.7-17.7,3.9-25,9.1c-7,5.1-10.5,12.4-12.9,20.5
			c-3,10.1-5.9,19.6-12.2,28.2c-6.9,9.3-16.6,17.1-27.8,20.7c-10.9,3.5-23.1,2.4-32-5.3c-9.3-8.2-9.3-19.6-6.4-30.8
			c2.1-8.2,6.9-18.9,3.6-27.4c-2.8-7.3-13.1-8.6-19.6-10.3c-18.6-5-40.4-7.7-56.2,5.7c-4.8,4-9.5,9.7-16.2,9.8
			c-9.8,0.2-9.3-9.2-9.2-16.3c0.1-13.9,0.1-27.9,0.2-41.8c0-1-1.5-1-1.5,0c-0.1,13.9-0.1,27.9-0.2,41.8c0,7.3-0.6,16.7,8.9,17.7
			c10.4,1.1,16.7-9.5,24.7-14.1c10.5-6.2,23.3-6.3,35.1-4.4c5.3,0.8,10.5,2.1,15.7,3.5c6.2,1.7,15.6,3,17.5,10.3
			c1.6,6-0.7,12.9-2.3,18.7c-1.5,5.4-3.2,10.8-3.7,16.4c-1.7,19.9,16.9,32.5,35.4,29.6c20.5-3.1,37.4-20.5,44.1-39.6
			c4.3-12.1,5.7-25.2,17.5-32.7c9.5-6.1,21.3-7.6,32.2-9.4c14.1-2.4,28.2-4.9,42.3-7.3c6.5-1.1,13.2-2,19.7-3.4
			c2.8-0.6,5.3-1.4,5.6-4.6c0.4-3.7-2.4-8.6-3.8-11.9c-2.3-5.2-5-10.1-8.2-14.8c-5.9-8.6-13.1-16.2-21.2-22.8
			c-20.3-16.4-45.2-25.6-70.4-31.5c-11.6-2.7-26.4-7.5-38.1-2.7c-7.8,3.2-13.6,11.7-10.6,20.1C819.5,842,820.9,841.6,820.6,840.7
			L820.6,840.7z"/>
	</g>
</g>
<circle class="st17" cx="977.9" cy="802.5" r="7.3"/>
<circle class="st17" cx="1112" cy="671.6" r="7.3"/>
<g>
	<g>
		<path class="st23" d="M1497.5,636.3c-3.1,0-6.2,0-9.3,0c-1,0-1,1.5,0,1.5c3.1,0,6.2,0,9.3,0
			C1498.5,637.8,1498.5,636.3,1497.5,636.3L1497.5,636.3z"/>
	</g>
</g>
<g>
	<g>
		<path class="st23" d="M1474,639.3c-2.7,0.6-5,2.2-6.6,4.4c-0.6,0.8,0.7,1.5,1.3,0.8c1.4-1.9,3.4-3.2,5.7-3.7
			C1475.3,640.5,1474.9,639.1,1474,639.3L1474,639.3z"/>
	</g>
</g>
<g>
	<g>
		<path class="st23" d="M1468.1,674.8c0.8,1.8,1.6,3.6,2.3,5.5c0.4,0.9,1.7,0.1,1.3-0.8c-0.8-1.8-1.6-3.6-2.3-5.5
			C1469,673.1,1467.7,673.9,1468.1,674.8L1468.1,674.8z"/>
	</g>
</g>
<g>
	<g>
		<path class="st23" d="M1482.9,691.9c2.3,3.1,4.7,6.2,7,9.3c0.6,0.8,1.9,0,1.3-0.8c-2.3-3.1-4.7-6.2-7-9.3
			C1483.6,690.4,1482.3,691.1,1482.9,691.9L1482.9,691.9z"/>
	</g>
</g>
<g>
	<g>
		<path class="st23" d="M1488.4,713.8c-1.6,3.6-3.1,7.3-4.7,10.9c-0.4,0.9,0.9,1.6,1.3,0.8c1.6-3.6,3.1-7.3,4.7-10.9
			C1490.1,713.6,1488.8,712.9,1488.4,713.8L1488.4,713.8z"/>
	</g>
</g>
<g>
	<g>
		<path class="st23" d="M1444.9,774.6c2.1,2.4,4.1,4.7,6.2,7.1c0.6,0.7,1.7-0.3,1.1-1.1c-2.1-2.4-4.1-4.7-6.2-7.1
			C1445.3,772.8,1444.2,773.9,1444.9,774.6L1444.9,774.6z"/>
	</g>
</g>
<g>
	<g>
		<path class="st23" d="M1446.3,796.5c-0.8,3.4-1.5,6.8-2.3,10.1c-0.2,0.9,1.2,1.3,1.4,0.4c0.8-3.4,1.5-6.8,2.3-10.1
			C1447.9,795.9,1446.5,795.5,1446.3,796.5L1446.3,796.5z"/>
	</g>
</g>
<g>
	<g>
		<path class="st23" d="M1429.4,814c-2.1,1-4.2,2-6.3,3c-0.9,0.4-0.1,1.7,0.8,1.3c2.1-1,4.2-2,6.3-3
			C1431.1,814.9,1430.3,813.6,1429.4,814L1429.4,814z"/>
	</g>
</g>
<g>
	<g>
		<path class="st23" d="M1408,820.8c-4.1,0.1-8.2-0.2-12.2-0.9c-0.9-0.2-1.3,1.3-0.4,1.4c4.2,0.8,8.4,1.1,12.6,0.9
			C1409,822.3,1409,820.8,1408,820.8L1408,820.8z"/>
	</g>
</g>
<g>
	<g>
		<path class="st23" d="M1382.7,816.2c-4.7-2.9-8.6-6.7-11.6-11.3c-0.5-0.8-1.8-0.1-1.3,0.8c3.1,4.8,7.2,8.8,12.1,11.8
			C1382.8,818,1383.5,816.7,1382.7,816.2L1382.7,816.2z"/>
	</g>
</g>
<g>
	<g>
		<path class="st23" d="M1359.4,796.1c-4.4-4.1-10.1-6.1-16.1-5.7c-1,0.1-1,1.6,0,1.5c5.6-0.4,10.9,1.4,15,5.3
			C1359.1,797.9,1360.1,796.8,1359.4,796.1L1359.4,796.1z"/>
	</g>
</g>
<g>
	<g>
		<path class="st23" d="M1330.5,798.1c-0.7,4.4-1.4,8.8-2.1,13.2c-0.2,0.9,1.3,1.4,1.4,0.4c0.7-4.4,1.4-8.8,2.1-13.2
			C1332.1,797.5,1330.6,797.1,1330.5,798.1L1330.5,798.1z"/>
	</g>
</g>
<g>
	<g>
		<path class="st23" d="M1335.8,817.4c1.6,2,3.2,4.1,4.8,6.1c0.6,0.8,1.7-0.3,1.1-1.1c-1.6-2-3.2-4.1-4.8-6.1
			C1336.3,815.6,1335.2,816.7,1335.8,817.4L1335.8,817.4z"/>
	</g>
</g>
<g>
	<g>
		<path class="st23" d="M1358.4,833.8c2.8,3.1,6,5.7,9.5,7.9c0.8,0.5,1.6-0.8,0.8-1.3c-3.4-2.1-6.5-4.7-9.2-7.7
			C1358.8,832,1357.7,833.1,1358.4,833.8L1358.4,833.8z"/>
	</g>
</g>
<g>
	<g>
		<path class="st23" d="M1397.1,835c5.4,0.6,10.8,1.6,16.1,3c0.9,0.3,1.3-1.2,0.4-1.4c-5.4-1.5-10.9-2.5-16.5-3.1
			C1396.2,833.4,1396.2,834.9,1397.1,835L1397.1,835z"/>
	</g>
</g>
<g>
	<g>
		<path class="st23" d="M1375.7,840.2c3.4-0.7,6.7-1.4,10.1-2.1c0.9-0.2,0.5-1.6-0.4-1.4c-3.4,0.7-6.7,1.4-10.1,2.1
			C1374.3,839,1374.7,840.4,1375.7,840.2L1375.7,840.2z"/>
	</g>
</g>
<g>
	<g>
		<path class="st23" d="M1345.6,826.3c1.3,2.1,2.9,4.1,4.7,5.8c0.7,0.7,1.8-0.4,1.1-1.1c-1.7-1.7-3.2-3.5-4.5-5.5
			C1346.4,824.7,1345.1,825.5,1345.6,826.3L1345.6,826.3z"/>
	</g>
</g>
<g>
	<g>
		<path class="st23" d="M1449.7,785.7c-0.5,0.7-0.9,1.4-1.4,2.1c-0.5,0.8,0.8,1.6,1.3,0.8c0.5-0.7,0.9-1.4,1.4-2.1
			C1451.5,785.6,1450.2,784.8,1449.7,785.7L1449.7,785.7z"/>
	</g>
</g>
<g>
	<g>
		<path class="st23" d="M1449.4,786.4c-1.7,1.8-3.4,3.5-5.1,5.3c-0.7,0.7,0.4,1.8,1.1,1.1c1.7-1.8,3.4-3.5,5.1-5.3
			C1451.1,786.8,1450,785.7,1449.4,786.4L1449.4,786.4z"/>
	</g>
</g>
<g>
	<g>
		<path class="st23" d="M1440.1,809.7c-1.9,0.6-3.9,1.2-5.8,1.8c-0.9,0.3-0.5,1.7,0.4,1.4c1.9-0.6,3.9-1.2,5.8-1.8
			C1441.4,810.9,1441,809.4,1440.1,809.7L1440.1,809.7z"/>
	</g>
</g>
<g>
	<g>
		<path class="st23" d="M1362.5,799.7c1.4,0.4,2.5,1.2,3.3,2.4c0.5,0.8,1.8,0,1.3-0.8c-1-1.5-2.5-2.6-4.2-3.1
			C1362,798,1361.6,799.5,1362.5,799.7L1362.5,799.7z"/>
	</g>
</g>
<g>
	<g>
		<path class="st23" d="M1338.8,791.7c-2.4,0.5-4.5,2.1-5.6,4.3c-0.4,0.9,0.9,1.6,1.3,0.8c0.9-1.9,2.6-3.2,4.7-3.6
			C1340.1,792.9,1339.7,791.5,1338.8,791.7L1338.8,791.7z"/>
	</g>
</g>
<g>
	<g>
		<path class="st23" d="M1490,704.2c0.2,2,0,3.8-0.9,5.6c-0.4,0.9,0.9,1.6,1.3,0.8c1-2,1.4-4.2,1.1-6.4
			C1491.4,703.2,1489.9,703.2,1490,704.2L1490,704.2z"/>
	</g>
</g>
<g>
	<g>
		<path class="st23" d="M1473.1,682.9c2,1,3.8,2.2,5.4,3.7c0.7,0.7,1.8-0.4,1.1-1.1c-1.7-1.6-3.6-2.9-5.7-4
			C1473,681.2,1472.2,682.5,1473.1,682.9L1473.1,682.9z"/>
	</g>
</g>
<g>
	<g>
		<path class="st23" d="M1476.7,639.7c0.9,0.2,1.6,0,2.5-0.2c1-0.2,2-0.3,3.1-0.2c1,0.1,1-1.4,0-1.5c-0.8-0.1-1.6,0-2.4,0.1
			c-0.9,0.1-1.9,0.6-2.8,0.4C1476.2,638.1,1475.7,639.5,1476.7,639.7L1476.7,639.7z"/>
	</g>
</g>
<g>
	<g>
		<path class="st23" d="M1501.1,638c1.2,0.2,4.5,0.4,4.7,1.9c0.2,0.9,1.6,0.5,1.4-0.4c-0.4-2.4-4.3-2.8-6.2-3
			C1500.2,636.3,1500.2,637.8,1501.1,638L1501.1,638z"/>
	</g>
</g>
<g>
	<g>
		<path class="st23" d="M1506.8,642.7c1,2.1,1.7,4.3,2,6.6c0.1,1,1.6,0.5,1.4-0.4c-0.4-2.4-1.1-4.7-2.2-6.9
			C1507.7,641.1,1506.4,641.8,1506.8,642.7L1506.8,642.7z"/>
	</g>
</g>
<g>
	<g>
		<path class="st23" d="M1465.9,646.7c-0.1,1.7,0,3.5,0.1,5.2c0.1,1,1.6,1,1.5,0c-0.1-1.7-0.2-3.5-0.1-5.2
			C1467.4,645.7,1465.9,645.7,1465.9,646.7L1465.9,646.7z"/>
	</g>
</g>
<g>
	<g>
		<path class="st23" d="M1463.4,658c-0.1,1.6,0.1,3.3,0.4,4.9c0.2,0.9,1.7,0.5,1.4-0.4c-0.4-1.5-0.5-3-0.4-4.5
			C1465,657,1463.5,657,1463.4,658L1463.4,658z"/>
	</g>
</g>
<g>
	<g>
		<path class="st23" d="M1464.3,666c0.6,1.8,1.2,3.5,2,5.2c0.4,0.9,1.7,0.1,1.3-0.8c-0.7-1.6-1.3-3.2-1.8-4.9
			C1465.5,664.7,1464,665.1,1464.3,666L1464.3,666z"/>
	</g>
</g>
<g>
	<g>
		<g>
			<path class="st23" d="M1476.8,729.1c-2.2,2.1-5,3.4-8,3.5c-1,0.1-1,1.6,0,1.5c3.5-0.2,6.6-1.6,9.1-4
				C1478.5,729.5,1477.5,728.5,1476.8,729.1L1476.8,729.1z"/>
		</g>
	</g>
	<g>
		<g>
			<path class="st23" d="M1458.4,729.2c-3.1-3-7.1-4.7-11.4-5c-1-0.1-1,1.4,0,1.5c4,0.2,7.5,1.8,10.4,4.5
				C1458,730.9,1459.1,729.8,1458.4,729.2L1458.4,729.2z"/>
		</g>
	</g>
	<g>
		<g>
			<path class="st23" d="M1435.2,720.3c-4.2,0.5-7.9,2.5-10.7,5.7c-0.6,0.7,0.4,1.8,1.1,1.1c2.5-2.9,5.8-4.7,9.6-5.2
				C1436.2,721.7,1436.2,720.2,1435.2,720.3L1435.2,720.3z"/>
		</g>
	</g>
	<g>
		<g>
			<path class="st23" d="M1419.8,734.8c-1.2,2.6-1.8,5.3-1.7,8.2c0,1,1.5,1,1.5,0c-0.1-2.6,0.4-5.1,1.5-7.4
				C1421.5,734.7,1420.2,733.9,1419.8,734.8L1419.8,734.8z"/>
		</g>
	</g>
	<g>
		<g>
			<path class="st23" d="M1426,755.8c1.3,2.3,2.6,4.7,3.9,7c0.5,0.8,1.8,0.1,1.3-0.8c-1.3-2.3-2.6-4.7-3.9-7
				C1426.8,754.2,1425.5,754.9,1426,755.8L1426,755.8z"/>
		</g>
	</g>
	<g>
		<g>
			<path class="st23" d="M1419.3,745.9c1.7,2.2,3.6,4.2,5.3,6.2c0.6,0.7,1.7-0.3,1.1-1.1c-1.7-2-3.5-3.9-5.1-5.9
				C1420,744.4,1418.7,745.2,1419.3,745.9L1419.3,745.9z"/>
		</g>
	</g>
	<g>
		<g>
			<path class="st23" d="M1435.5,766.9c2.1,1.6,4.1,3.4,5.9,5.4c0.7,0.7,1.7-0.4,1.1-1.1c-1.8-1.9-3.8-3.7-5.9-5.4
				C1435.8,765.3,1434.7,766.3,1435.5,766.9L1435.5,766.9z"/>
		</g>
	</g>
	<g>
		<g>
			<path class="st23" d="M1438.3,722.2c1.3,0.3,2.4,0.8,3.4,1.7c0.7,0.6,1.8-0.4,1.1-1.1c-1.2-1-2.5-1.7-4-2.1
				C1437.7,720.6,1437.3,722,1438.3,722.2L1438.3,722.2z"/>
		</g>
	</g>
	<g>
		<g>
			<path class="st23" d="M1459.5,731.4c1.1,1.2,3,1.5,4.6,1.9c0.9,0.2,1.3-1.2,0.4-1.4c-1.3-0.3-3-0.5-3.9-1.5
				C1459.9,729.6,1458.9,730.7,1459.5,731.4L1459.5,731.4z"/>
		</g>
	</g>
	<g>
		<g>
			<path class="st23" d="M1482,726.4c-0.6,0.9-1.8,1.4-2.4,2.4c-0.5,0.8,0.8,1.6,1.3,0.8c0.3-0.5,0.7-0.8,1.2-1.1
				c0.5-0.4,0.9-0.7,1.2-1.2C1483.8,726.3,1482.5,725.6,1482,726.4L1482,726.4z"/>
		</g>
	</g>
</g>
<g>
	<g>
		<path class="st23" d="M1384,818.5c2.4,0.2,4.4,1.7,6.9,1.6c1,0,1-1.5,0-1.5c-2.4,0.1-4.5-1.4-6.9-1.6
			C1383.1,816.9,1383.1,818.4,1384,818.5L1384,818.5z"/>
	</g>
</g>
<g>
	<g>
		<path class="st23" d="M1421.2,817.3c-3.1,1.2-6.1,2.4-9.4,3c-0.9,0.2-0.5,1.6,0.4,1.4c3.3-0.6,6.3-1.8,9.4-3
			C1422.5,818.4,1422.1,817,1421.2,817.3L1421.2,817.3z"/>
	</g>
</g>
<g>
	<g>
		<path class="st23" d="M1394,833.9c-2.7-0.1-5.2,1.1-7.5,2.3c-0.9,0.4-0.1,1.7,0.8,1.3c2.1-1.1,4.3-2.2,6.8-2.1
			C1395,835.5,1395,834,1394,833.9L1394,833.9z"/>
	</g>
</g>
<g>
	<g>
		<path class="st23" d="M1353.1,832.7c0.5,0.4,1.1,0.8,1.7,1.1c0.9,0.5,1.6-0.8,0.8-1.3c-0.6-0.3-1.1-0.7-1.7-1.1
			c-0.3-0.2-0.8,0-1,0.3C1352.6,832.1,1352.8,832.5,1353.1,832.7L1353.1,832.7z"/>
	</g>
</g>
<g>
	<g>
		<path class="st23" d="M1372.7,839.8c-0.6,0.3-1.2,0.6-1.8,0.9c-0.8,0.5-0.1,1.8,0.8,1.3c0.5-0.3,0.9-0.6,1.5-0.8
			c0.4-0.2,0.6-0.5,0.5-0.9C1373.5,840,1373,839.6,1372.7,839.8L1372.7,839.8z"/>
	</g>
</g>
<g>
	<g>
		<path class="st23" d="M1329.6,814.2c0.5,0.6,1.2,0.7,1.9,0.9c0.5,0.1,0.9,0.2,1.4,0.4c0.4,0.1,1,0.2,1.3,0.5
			c0.5,0.8,1.8,0.1,1.3-0.8c-0.4-0.7-1.1-0.9-1.8-1.1c-0.8-0.2-2.4-0.3-3-1C1330,812.4,1328.9,813.4,1329.6,814.2L1329.6,814.2z"/>
	</g>
</g>
<g>
	<g>
		<path class="st23" d="M1415,837.9c0.6,0.5,1.2,0.6,1.9,0.3c0.7-0.3,1.6-0.7,2.1-1.2c1.1-1.1,1.8-3,1.3-4.5
			c-0.3-0.9-1.8-0.5-1.4,0.4c0.3,0.9-0.1,1.8-0.6,2.6c-0.2,0.3-1.9,1.6-2.3,1.3C1415.4,836.2,1414.3,837.3,1415,837.9L1415,837.9z"
			/>
	</g>
</g>
<g>
	<g>
		<path class="st23" d="M1422.5,727.5c-1.1,1.6-2.2,3.1-3.3,4.7c-0.6,0.8,0.7,1.5,1.3,0.8c1.1-1.6,2.2-3.1,3.3-4.7
			C1424.4,727.5,1423.1,726.7,1422.5,727.5L1422.5,727.5z"/>
	</g>
</g>
<g>
	<g>
		<path class="st23" d="M1508.7,651.8c0.6,2.8,0,5.6-1.7,7.9c-0.6,0.8,0.7,1.5,1.3,0.8c1.9-2.7,2.6-5.9,1.9-9.1
			C1509.9,650.5,1508.5,650.9,1508.7,651.8L1508.7,651.8z"/>
	</g>
</g>
<g>
	<g>
		<path class="st23" d="M1465,653.1c-0.4,0.7-0.9,1.3-1.7,1.6c-0.4,0.2-0.5,0.7-0.3,1c0.2,0.4,0.7,0.4,1,0.3c1-0.4,1.8-1.2,2.2-2.1
			C1466.8,653,1465.5,652.3,1465,653.1L1465,653.1z"/>
	</g>
</g>
<g>
	<g>
		<path class="st21" d="M1307.6,345.9c2-0.2,4-0.3,6.1-0.2c1,0.1,1-1.4,0-1.5c-2-0.1-4-0.1-6.1,0.2
			C1306.6,344.5,1306.6,346,1307.6,345.9L1307.6,345.9z"/>
	</g>
</g>
<g>
	<g>
		<path class="st21" d="M1318.9,344.1c2.9-0.5,5.7-1.3,8.5-2.4c0.9-0.4,0.5-1.8-0.4-1.4c-2.7,1.1-5.5,1.9-8.4,2.4
			C1317.6,342.8,1318,344.3,1318.9,344.1L1318.9,344.1z"/>
	</g>
</g>
<g>
	<g>
		<path class="st21" d="M1330.7,338.7c1.6-1,3.3-1.4,5.2-1.3c1,0.1,1-1.4,0-1.5c-2.1-0.2-4.2,0.3-6,1.5
			C1329.1,337.9,1329.9,339.2,1330.7,338.7L1330.7,338.7z"/>
	</g>
</g>
<g>
	<g>
		<path class="st21" d="M1342,333.4c1.1-1.2,2.2-2.5,3.2-3.7c0.6-0.7-0.4-1.8-1.1-1.1c-1.1,1.2-2.2,2.5-3.2,3.7
			C1340.3,333.1,1341.3,334.2,1342,333.4L1342,333.4z"/>
	</g>
</g>
<g>
	<g>
		<path class="st21" d="M1346.8,325c1.5-2,2.6-4.3,3.2-6.7c0.2-0.9-1.2-1.3-1.4-0.4c-0.6,2.3-1.6,4.4-3.1,6.3
			C1344.9,325,1346.2,325.8,1346.8,325L1346.8,325z"/>
	</g>
</g>
<g>
	<g>
		<path class="st21" d="M1350.1,312.8c0.6-1.4,0.3-3.1-0.6-4.3c-0.6-0.8-1.9,0-1.3,0.8c0.7,0.9,0.9,2,0.4,3.1
			C1348.3,313.3,1349.7,313.6,1350.1,312.8L1350.1,312.8z"/>
	</g>
</g>
<g>
	<g>
		<path class="st21" d="M1345.5,303.7c0.3-2.7-1.2-5.4-3.7-6.6c-0.9-0.4-1.6,0.9-0.8,1.3c2.1,1,3.2,3,2.9,5.3
			C1343.8,304.7,1345.3,304.7,1345.5,303.7L1345.5,303.7z"/>
	</g>
</g>
<g>
	<g>
		<path class="st21" d="M1341.5,294.7c-1.3-3.3-3.3-6.2-6-8.6c-0.7-0.6-1.8,0.4-1.1,1.1c2.5,2.2,4.4,4.9,5.6,7.9
			C1340.4,295.9,1341.8,295.6,1341.5,294.7L1341.5,294.7z"/>
	</g>
</g>
<g>
	<g>
		<path class="st21" d="M1336.7,283.4c-0.3-2.6-1.1-5.1-2.5-7.3c-0.5-0.8-1.8-0.1-1.3,0.8c1.2,2,2,4.2,2.3,6.5
			C1335.3,284.3,1336.8,284.3,1336.7,283.4L1336.7,283.4z"/>
	</g>
</g>
<g>
	<g>
		<path class="st21" d="M1337.1,273.1c1.4-2.3,3-4.4,4.8-6.4c0.7-0.7-0.4-1.8-1.1-1.1c-1.9,2.1-3.6,4.3-5.1,6.7
			C1335.3,273.2,1336.6,274,1337.1,273.1L1337.1,273.1z"/>
	</g>
</g>
<g>
	<g>
		<path class="st21" d="M1348.9,262.5c2.2-2.1,4.7-3.5,7.6-4.4c0.9-0.3,0.5-1.7-0.4-1.4c-3.1,0.9-5.9,2.5-8.2,4.8
			C1347.1,262.2,1348.2,263.2,1348.9,262.5L1348.9,262.5z"/>
	</g>
</g>
<g>
	<g>
		<path class="st21" d="M1364.4,256c3.2-1.5,6.7-2,10.2-1.5c0.9,0.1,1.4-1.3,0.4-1.4c-3.9-0.6-7.7,0-11.3,1.7
			C1362.8,255.1,1363.6,256.4,1364.4,256L1364.4,256z"/>
	</g>
</g>
<g>
	<g>
		<path class="st21" d="M1381.3,255c3.6-0.2,7.1-0.1,10.7,0.3c1,0.1,0.9-1.4,0-1.5c-3.6-0.4-7.1-0.5-10.7-0.3
			C1380.3,253.5,1380.3,255,1381.3,255L1381.3,255z"/>
	</g>
</g>
<g>
	<g>
		<path class="st21" d="M1396.3,255.8c4.6-0.6,9-2,13.2-4.1c0.9-0.4,0.1-1.7-0.8-1.3c-4.1,2-8.3,3.3-12.9,3.9
			C1395,254.5,1395.4,255.9,1396.3,255.8L1396.3,255.8z"/>
	</g>
</g>
<g>
	<g>
		<path class="st21" d="M1414.4,247c2.4-2.2,4.3-4.8,5.6-7.7c0.4-0.9-0.9-1.6-1.3-0.8c-1.3,2.8-3.1,5.3-5.4,7.4
			C1412.6,246.6,1413.7,247.6,1414.4,247L1414.4,247z"/>
	</g>
</g>
<g>
	<g>
		<path class="st21" d="M1420,234c0.8-3.2,1.5-6.5,2.3-9.7c0.2-0.9-1.2-1.3-1.4-0.4c-0.8,3.2-1.5,6.5-2.3,9.7
			C1418.3,234.5,1419.8,234.9,1420,234L1420,234z"/>
	</g>
</g>
<g>
	<g>
		<path class="st21" d="M1421.4,216.2c0-5.7-2.2-10.9-6.3-14.8c-0.7-0.7-1.8,0.4-1.1,1.1c3.9,3.6,5.9,8.4,5.9,13.7
			C1419.9,217.1,1421.4,217.2,1421.4,216.2L1421.4,216.2z"/>
	</g>
</g>
<g>
	<g>
		<path class="st21" d="M1411,196.2c-2.4-2.2-5.5-3.4-8.9-3.2c-1,0.1-1,1.6,0,1.5c2.9-0.2,5.6,0.8,7.8,2.7
			C1410.7,197.9,1411.7,196.8,1411,196.2L1411,196.2z"/>
	</g>
</g>
<g>
	<g>
		<path class="st21" d="M1401.9,188.2c-0.4-2.1-0.5-4.2-0.3-6.3c0.1-1-1.4-1-1.5,0c-0.2,2.3-0.1,4.5,0.4,6.7
			C1400.6,189.5,1402.1,189.1,1401.9,188.2L1401.9,188.2z"/>
	</g>
</g>
<g>
	<g>
		<path class="st21" d="M1401.1,176.6c-0.5-2.6,0.1-5.2,1.6-7.4c0.6-0.8-0.7-1.5-1.3-0.8c-1.8,2.5-2.4,5.5-1.8,8.5
			C1399.8,177.9,1401.3,177.5,1401.1,176.6L1401.1,176.6z"/>
	</g>
</g>
<g>
	<g>
		<path class="st21" d="M1403.8,161.7c1.5-4.1,2.8-8.2,3.8-12.5c0.2-0.9-1.2-1.3-1.4-0.4c-1,4.3-2.2,8.4-3.8,12.5
			C1402,162.2,1403.4,162.6,1403.8,161.7L1403.8,161.7z"/>
	</g>
</g>
<g>
	<g>
		<path class="st21" d="M1408.9,143.9c0.1-2,1.6-3.4,2.3-5.1c0.5-1.1,0.7-2.3,0.9-3.5c0.5-3.4,0.2-6.8,1.9-9.9
			c0.5-0.9-0.8-1.6-1.3-0.8c-1.6,3-1.6,6.1-2,9.3c-0.3,2.4-0.9,4.3-2.2,6.4c-0.7,1.2-1.2,2.1-1.2,3.5
			C1407.4,144.9,1408.9,144.9,1408.9,143.9L1408.9,143.9z"/>
	</g>
</g>
<g>
	<g>
		<path class="st21" d="M1417.1,122.2c3.1-0.8,6.3-1.5,9.4-2.3c0.9-0.2,0.5-1.7-0.4-1.4c-3.1,0.8-6.3,1.5-9.4,2.3
			C1415.8,120.9,1416.2,122.4,1417.1,122.2L1417.1,122.2z"/>
	</g>
</g>
<g>
	<g>
		<path class="st21" d="M1433.2,119.7c3.4,0.5,6.8,0.6,10.2,0.4c1-0.1,1-1.6,0-1.5c-3.4,0.2-6.8,0.1-10.2-0.4
			C1432.2,118.1,1432.2,119.6,1433.2,119.7L1433.2,119.7z"/>
	</g>
</g>
<g>
	<g>
		<path class="st21" d="M1448.9,120.2c4.5-0.2,9-0.4,13.4-0.6c1,0,1-1.5,0-1.5c-4.5,0.2-9,0.4-13.4,0.6
			C1448,118.7,1448,120.2,1448.9,120.2L1448.9,120.2z"/>
	</g>
</g>
<g>
	<g>
		<path class="st21" d="M1467.7,119.9c4.7-0.8,9.4-1,14.1-0.6c1,0.1,1-1.4,0-1.5c-4.9-0.4-9.7-0.2-14.5,0.7
			C1466.4,118.6,1466.8,120.1,1467.7,119.9L1467.7,119.9z"/>
	</g>
</g>
<g>
	<g>
		<path class="st21" d="M1487.3,118.3c5-2.8,5.9-8.5,6.3-13.8c0.1-1-1.4-1-1.5,0c-0.4,4.7-1,10-5.6,12.5
			C1485.7,117.4,1486.5,118.7,1487.3,118.3L1487.3,118.3z"/>
	</g>
</g>
<g>
	<g>
		<path class="st21" d="M1495.1,98.7c0.9-3.8,0.2-7.6-2-10.7c-0.6-0.8-1.9,0-1.3,0.8c2,2.8,2.7,6.2,1.9,9.6
			C1493.4,99.3,1494.9,99.7,1495.1,98.7L1495.1,98.7z"/>
	</g>
</g>
<g>
	<g>
		<path class="st21" d="M1487.1,84.4c-0.9-2.5-3.1-4.2-5.7-4.3c-1-0.1-1,1.4,0,1.5c1.9,0.1,3.7,1.4,4.3,3.2
			C1486,85.7,1487.4,85.3,1487.1,84.4L1487.1,84.4z"/>
	</g>
</g>
<g>
	<g>
		<path class="st21" d="M1473.2,79.6c-3.3-0.5-6.5-0.3-9.7,0.6c-0.9,0.3-0.5,1.7,0.4,1.4c2.9-0.8,5.9-1,8.9-0.6
			C1473.8,81.2,1474.2,79.8,1473.2,79.6L1473.2,79.6z"/>
	</g>
</g>
<g>
	<g>
		<path class="st21" d="M1461,79.9c-4.3-0.3-8.5-0.9-12.7-1.8c-0.9-0.2-1.3,1.2-0.4,1.4c4.3,0.9,8.7,1.5,13.1,1.8
			C1462,81.5,1462,80,1461,79.9L1461,79.9z"/>
	</g>
</g>
<g>
	<g>
		<path class="st21" d="M1441.7,79.8c-3.3-0.6-6.6-0.7-9.9-0.3c-0.9,0.1-1,1.6,0,1.5c3.2-0.4,6.4-0.3,9.5,0.2
			C1442.2,81.5,1442.6,80,1441.7,79.8L1441.7,79.8z"/>
	</g>
</g>
<g>
	<g>
		<path class="st21" d="M1396.5,81.5c1.9-0.9,3.9-1.1,5.9-0.7c0.9,0.2,1.3-1.3,0.4-1.4c-2.5-0.5-4.8-0.2-7.1,0.8
			C1394.8,80.6,1395.6,81.9,1396.5,81.5L1396.5,81.5z"/>
	</g>
</g>
<g>
	<g>
		<path class="st21" d="M1409.1,80.7c2.5,0,4.9,0,7.4,0c1,0,1-1.5,0-1.5c-2.5,0-4.9,0-7.4,0C1408.1,79.2,1408.1,80.7,1409.1,80.7
			L1409.1,80.7z"/>
	</g>
</g>
<g>
	<g>
		<path class="st21" d="M1422.3,82c1.2,0.2,2.5,0.3,3.7,0.5c0.9,0.1,1.4-1.3,0.4-1.4c-1.2-0.2-2.5-0.3-3.7-0.5
			C1421.8,80.5,1421.4,81.9,1422.3,82L1422.3,82z"/>
	</g>
</g>
<g>
	<g>
		<path class="st21" d="M1379.9,83.4c4.2-1.3,8.5-2,12.9-2.1c1,0,1-1.5,0-1.5c-4.5,0.2-8.9,0.9-13.3,2.2
			C1378.6,82.2,1379,83.6,1379.9,83.4L1379.9,83.4z"/>
	</g>
</g>
<circle class="st21" cx="1372.8" cy="82.9" r="5.5"/>
<ellipse class="st28" cx="618.1" cy="860.5" rx="5.6" ry="12.7"/>
<ellipse class="st28" cx="871.2" cy="860.5" rx="5.6" ry="12.7"/>
<ellipse class="st28" cx="812" cy="861.2" rx="5.6" ry="12.7"/>
<ellipse class="st28" cx="743.8" cy="860.5" rx="5.6" ry="12.7"/>
<ellipse class="st28" cx="679.6" cy="861.2" rx="5.6" ry="12.7"/>
<g>
	<g>
		<path class="st23" d="M918.1,306.2c2.7-3.9,9.1-4.6,12.4-1.1c4.7,5,1.4,13.2-1.8,18c-7,10.3-18.6,18.3-19,32
			c-0.1,5.1,1.7,10.2,5.5,13.7c5,4.5,12.3,3.8,17.7,7.4c4.4,2.8,7.8,7.6,8.6,12.8c1.2,8.3-6.3,8.7-11.8,12
			c-9.2,5.4-18.7,17.4-17.1,28.8c1.9,13.6,18,13.8,24.7,23.4c2.6,3.6,6,11.2,5.2,15.9c-0.6,3.4-3.5,3.4-6.5,3.8
			c-3.7,0.5-7.4,1-11,2.3c-10,3.8-17.7,15.1-11.3,25.3c3.3,5.2,9.1,7.8,14.4,10.5c6.3,3.2,11.9,7.4,16.5,12.9
			c2.4,2.9,5.9,7.1,5.7,11.1c-0.2,4.8-4.4,4.7-8.2,4.6c-9.2-0.2-18.3-0.8-27.5-1.2c-5.8-0.2-5.8,8.8,0,9c8.8,0.4,17.7,0.8,26.5,1.1
			c6.7,0.3,13.4-0.5,16.7-7.1c6.4-12.6-8-26.8-17.2-33.5c-5.3-3.8-11.8-5.8-16.8-9.8c-7.7-6.1-0.3-13.5,6.8-15.4
			c5.6-1.5,12.4-0.7,17.1-4.7c4.9-4.3,4.1-11,2.7-16.8c-1.4-6.2-4.2-12.4-8.7-17c-5-5.1-12.3-6.5-17.4-11.2
			c-6-5.6-0.6-14.6,3.9-19.4c2.3-2.5,5-4.5,8.1-6c3.2-1.6,6.7-2.4,9.5-4.8c9.7-8.5,3.9-24.5-4.5-31.8c-2.2-1.9-4.7-3.5-7.4-4.6
			c-3.3-1.4-6.8-1.7-10.1-3c-8.2-3.4-4.5-13.5-0.8-19c8.1-12.1,24.5-23.9,17.2-40.6c-5.4-12.4-22.4-12.8-29.8-2.1
			C907,306.4,914.8,310.9,918.1,306.2L918.1,306.2z"/>
	</g>
</g>
<g>
	<g>
		<path class="st21" d="M945.6,288c-1.5-0.3-3.1,0.2-4.1,1.4c-0.6,0.7,0.4,1.8,1.1,1.1c0.7-0.8,1.6-1.2,2.6-1
			C946.1,289.6,946.5,288.1,945.6,288L945.6,288z"/>
	</g>
</g>
<g>
	<g>
		<path class="st21" d="M937.5,293c-2.3,0.3-4.2,1.4-5.5,3.3c-0.6,0.8,0.7,1.5,1.3,0.8c1-1.4,2.5-2.4,4.2-2.6
			C938.5,294.4,938.5,292.9,937.5,293L937.5,293z"/>
	</g>
</g>
<g>
	<g>
		<path class="st21" d="M924,301.5c-2.5,1.3-4.6,3.2-6.3,5.5c-0.6,0.8,0.7,1.5,1.3,0.8c1.5-2.1,3.5-3.7,5.7-4.9
			C925.6,302.3,924.9,301,924,301.5L924,301.5z"/>
	</g>
</g>
<g>
	<g>
		<path class="st21" d="M918.3,313.6c-0.3,1.5-0.7,2.9-1,4.4c-0.2,0.9,1.2,1.3,1.4,0.4c0.3-1.5,0.7-2.9,1-4.4
			C919.9,313,918.5,312.6,918.3,313.6L918.3,313.6z"/>
	</g>
</g>
<g>
	<g>
		<path class="st21" d="M925.3,331.4c2.1,1.9,3.7,4.1,4.8,6.6c0.4,0.9,1.7,0.1,1.3-0.8c-1.2-2.7-2.9-5-5.1-6.9
			C925.6,329.7,924.5,330.7,925.3,331.4L925.3,331.4z"/>
	</g>
</g>
<g>
	<g>
		<path class="st21" d="M920.9,322.8c-0.3,1.9,0.2,3.7,1.5,5.1c0.6,0.7,1.7-0.3,1.1-1.1c-0.9-1-1.3-2.3-1.1-3.7
			C922.5,322.2,921,321.8,920.9,322.8L920.9,322.8z"/>
	</g>
</g>
<g>
	<g>
		<path class="st21" d="M933.7,344.3c0.8,2.1,1.9,4.1,3.2,5.9c0.6,0.8,1.9,0,1.3-0.8c-1.3-1.7-2.3-3.6-3.1-5.6
			C934.8,343,933.4,343.4,933.7,344.3L933.7,344.3z"/>
	</g>
</g>
<g>
	<g>
		<path class="st21" d="M939.2,355.9c0.7,1.7,1,3.4,1,5.2c0,1,1.5,1,1.5,0c0.1-1.9-0.3-3.8-1-5.6C940.3,354.6,938.9,355,939.2,355.9
			L939.2,355.9z"/>
	</g>
</g>
<g>
	<g>
		<path class="st21" d="M935,363.5c-1.5,1.7-3.3,3.1-5.2,4.3c-0.8,0.5-0.1,1.8,0.8,1.3c2.1-1.2,3.9-2.7,5.5-4.5
			C936.7,363.8,935.7,362.8,935,363.5L935,363.5z"/>
	</g>
</g>
<g>
	<g>
		<path class="st21" d="M920.4,373.8c-1.8,1.7-3.2,3.8-4.2,6.1c-0.4,0.9,1.1,1.3,1.4,0.4c0.9-2.1,2.2-3.9,3.8-5.5
			C922.2,374.2,921.1,373.1,920.4,373.8L920.4,373.8z"/>
	</g>
</g>
<g>
	<g>
		<path class="st21" d="M915.8,389.4c0.2,1.9,0.9,3.5,2.2,4.9c0.6,0.7,1.7-0.3,1.1-1.1c-1-1.1-1.6-2.4-1.7-3.9
			C917.2,388.5,915.7,388.4,915.8,389.4L915.8,389.4z"/>
	</g>
</g>
<g>
	<g>
		<path class="st21" d="M925.2,406.8c0.9,1.1,1.9,2.1,3.1,2.8c0.8,0.5,1.6-0.8,0.8-1.3c-1-0.6-1.9-1.3-2.6-2.3
			C925.9,405.3,924.6,406.1,925.2,406.8L925.2,406.8z"/>
	</g>
</g>
<g>
	<g>
		<path class="st21" d="M932.1,416.3c2.3,2.1,4.3,4.4,5.9,7.1c0.5,0.8,1.8,0.1,1.3-0.8c-1.7-2.8-3.7-5.2-6.1-7.4
			C932.4,414.6,931.4,415.7,932.1,416.3L932.1,416.3z"/>
	</g>
</g>
<g>
	<g>
		<path class="st21" d="M941.2,431.1c0.5,1.9-0.2,3.9-1.8,5.1c-0.8,0.6,0.3,1.6,1.1,1.1c2-1.5,2.8-4.1,2.2-6.6
			C942.4,429.8,940.9,430.2,941.2,431.1L941.2,431.1z"/>
	</g>
</g>
<g>
	<g>
		<path class="st21" d="M927.7,440.1c-1,1.1-1.9,2.3-2.9,3.4c-0.6,0.7,0.4,1.8,1.1,1.1c1-1.1,1.9-2.3,2.9-3.4
			C929.4,440.5,928.4,439.4,927.7,440.1L927.7,440.1z"/>
	</g>
</g>
<g>
	<g>
		<path class="st21" d="M919.2,449.4c-0.3,3.7-0.7,7.5-1,11.2c-0.1,1,1.4,1,1.5,0c0.3-3.7,0.7-7.5,1-11.2
			C920.8,448.5,919.2,448.5,919.2,449.4L919.2,449.4z"/>
	</g>
</g>
<g>
	<g>
		<path class="st21" d="M920.4,466.6c1.1,1,2.3,2,3.4,2.9c0.7,0.6,1.8-0.4,1.1-1.1c-1.1-1-2.3-2-3.4-2.9
			C920.7,464.9,919.6,466,920.4,466.6L920.4,466.6z"/>
	</g>
</g>
<g>
	<g>
		<path class="st21" d="M929.3,472.6c3.2,1.5,5.9,3.7,8,6.5c0.6,0.8,1.9,0,1.3-0.8c-2.3-3-5.2-5.4-8.6-7.1
			C929.2,470.8,928.5,472.1,929.3,472.6L929.3,472.6z"/>
	</g>
</g>
<g>
	<g>
		<path class="st21" d="M939.9,484.4c1.2,2.6,2.5,5.3,3.7,7.9c0.4,0.9,1.7,0.1,1.3-0.8c-1.2-2.6-2.5-5.3-3.7-7.9
			C940.7,482.8,939.4,483.6,939.9,484.4L939.9,484.4z"/>
	</g>
</g>
<g>
	<g>
		<path class="st21" d="M944.6,499.2c-0.3,2.6-1.2,4.9-2.8,7c-0.6,0.8,0.7,1.5,1.3,0.8c1.7-2.3,2.7-4.9,3-7.7
			C946.2,498.3,944.7,498.3,944.6,499.2L944.6,499.2z"/>
	</g>
</g>
<g>
	<g>
		<path class="st21" d="M936.9,506.4c-2.1,2.6-4.2,5.3-6.2,7.9c-0.6,0.7,0.5,1.8,1.1,1.1c2.1-2.6,4.2-5.3,6.2-7.9
			C938.5,506.7,937.5,505.7,936.9,506.4L936.9,506.4z"/>
	</g>
</g>
<g>
	<g>
		<path class="st21" d="M929.5,515.1c-0.8,3.3-1.1,6.6-1,10c0,1,1.5,1,1.5,0c-0.1-3.2,0.2-6.4,1-9.6
			C931.2,514.6,929.7,514.2,929.5,515.1L929.5,515.1z"/>
	</g>
</g>
<g>
	<g>
		<path class="st21" d="M930.3,532.1c1.8,1.3,3.6,2.5,5.5,3.8c0.8,0.6,1.5-0.7,0.8-1.3c-1.8-1.3-3.6-2.5-5.5-3.8
			C930.3,530.3,929.5,531.6,930.3,532.1L930.3,532.1z"/>
	</g>
</g>
<g>
	<g>
		<path class="st21" d="M943.5,539.6c2.4,2.3,4.4,4.9,6.2,7.8c0.5,0.8,1.8,0.1,1.3-0.8c-1.8-3-3.9-5.7-6.4-8.1
			C943.8,537.9,942.8,539,943.5,539.6L943.5,539.6z"/>
	</g>
</g>
<g>
	<g>
		<path class="st21" d="M952.3,553.6c0.5,2.5,0.6,5,0.5,7.6c0,1,1.5,1,1.5,0c0.1-2.7-0.1-5.3-0.6-8
			C953.6,552.3,952.2,552.7,952.3,553.6L952.3,553.6z"/>
	</g>
</g>
<g>
	<g>
		<path class="st21" d="M946.7,566.5c-2.3,2.6-5.1,4.6-8.4,5.8c-0.9,0.3-0.5,1.8,0.4,1.4c3.5-1.2,6.6-3.3,9.1-6.1
			C948.4,566.8,947.3,565.8,946.7,566.5L946.7,566.5z"/>
	</g>
</g>
<g>
	<g>
		<path class="st21" d="M929.3,573.7c-1.9,1.3-4.1,1.7-6.3,1.1c-0.9-0.3-1.3,1.2-0.4,1.4c2.6,0.7,5.2,0.3,7.4-1.2
			C930.8,574.5,930.1,573.2,929.3,573.7L929.3,573.7z"/>
	</g>
</g>
<g>
	<g>
		<path class="st21" d="M917.6,569.5c-1.6-1.5-2.7-3.4-3.2-5.5c-0.3-0.9-1.7-0.5-1.4,0.4c0.6,2.4,1.9,4.5,3.6,6.2
			C917.2,571.2,918.3,570.1,917.6,569.5L917.6,569.5z"/>
	</g>
</g>
<g>
	<line class="st29" x1="869.5" y1="594.8" x2="870.7" y2="640.5"/>
	<line class="st29" x1="844.7" y1="640.9" x2="871.2" y2="640.5"/>
	<path class="st29" d="M869.5,595.2c-13.9,0.2-24.7,20.6-24.3,45.7"/>
</g>
<g>
	<line class="st29" x1="874.1" y1="594.4" x2="874" y2="640.1"/>
	<line class="st29" x1="899.6" y1="639.9" x2="873.5" y2="640.1"/>
	<path class="st29" d="M874.1,594.8c13.6-0.2,24.8,20,25,45.1"/>
</g>
<g>
	<g>
		<line class="st29" x1="601.3" y1="596.4" x2="602.4" y2="642.2"/>
		<line class="st29" x1="576.4" y1="642.5" x2="603" y2="642.2"/>
		<path class="st29" d="M601.3,596.9c-13.9,0.2-24.7,20.6-24.3,45.7"/>
	</g>
	<g>
		<line class="st29" x1="605.8" y1="596" x2="605.8" y2="641.7"/>
		<line class="st29" x1="631.4" y1="641.5" x2="605.2" y2="641.7"/>
		<path class="st29" d="M605.8,596.4c13.6-0.2,24.8,20,25,45.1"/>
	</g>
</g>
<g>
	<line class="st29" x1="687.8" y1="597.4" x2="688.9" y2="643.1"/>
	<line class="st29" x1="662.9" y1="643.5" x2="689.5" y2="643.1"/>
	<path class="st29" d="M687.8,597.8c-13.9,0.2-24.7,20.6-24.3,45.7"/>
</g>
<g>
	<line class="st29" x1="693.3" y1="596.1" x2="693.2" y2="641.8"/>
	<line class="st29" x1="718.8" y1="641.6" x2="692.7" y2="641.8"/>
	<path class="st29" d="M693.3,596.5c13.6-0.2,24.8,20,25,45.1"/>
</g>
<g>
	<line class="st29" x1="778" y1="594.6" x2="779.1" y2="640.3"/>
	<line class="st29" x1="753.1" y1="640.7" x2="779.7" y2="640.3"/>
	<path class="st29" d="M778,595c-13.9,0.2-24.7,20.6-24.3,45.7"/>
</g>
<g>
	<line class="st29" x1="780.7" y1="594.2" x2="780.6" y2="640"/>
	<line class="st29" x1="806.3" y1="639.7" x2="780.1" y2="640"/>
	<path class="st29" d="M780.7,594.7c13.6-0.2,24.8,20,25,45.1"/>
</g>
<g>
	<g>
		<path class="st6" d="M602.9,639.6c-3.4,8-1.2,16.3,4.5,22.8c6.9,7.8,17.4,10,27.5,9.3c12.7-0.9,25.3-4.9,37.6-7.9
			c6.8-1.6,13.6-3.2,20.4-4.9c6.5-1.5,14.1-4.2,20.7-2.2c9.2,2.9,10.8,13.7,12.2,21.9c1.4,8.6,2.5,17.8,7.6,25.2
			c11.7,17,34.4,19.7,53.2,17.2c24.5-3.3,56.3-15.5,77,4.7c2.8,2.7,7-1.5,4.2-4.2c-34.5-33.6-84.4,11.4-121.3-13
			c-16.7-11.1-11.4-30.9-19.1-46.7c-3.6-7.5-10.7-11.8-19-11.7c-5.5,0-10.8,1.6-16.1,2.8c-7.1,1.7-14.3,3.4-21.4,5.1
			c-13.2,3.1-27.5,8.2-41.2,7.8c-6.4-0.2-12.5-2-17.1-6.6c-4.2-4.3-7-10.6-4.5-16.5C609.6,639.1,604.4,636.1,602.9,639.6
			L602.9,639.6z"/>
	</g>
</g>
<g>
	<circle class="st23" cx="688.9" cy="745.2" r="8"/>
	<circle class="st23" cx="715.2" cy="745.2" r="8"/>
	<circle class="st23" cx="743.8" cy="745.2" r="8"/>
	<circle class="st23" cx="770.6" cy="745.2" r="8"/>
	<circle class="st23" cx="796" cy="745.2" r="8"/>
</g>
<g>
	<circle class="st23" cx="688.9" cy="768.3" r="8"/>
	<circle class="st23" cx="715.2" cy="768.3" r="8"/>
	<circle class="st23" cx="743.8" cy="768.3" r="8"/>
	<circle class="st23" cx="770.6" cy="768.3" r="8"/>
	<circle class="st23" cx="796" cy="768.3" r="8"/>
</g>
<g>
	<circle class="st23" cx="689.8" cy="791.3" r="8"/>
	<circle class="st23" cx="716.1" cy="791.3" r="8"/>
	<circle class="st23" cx="744.7" cy="791.3" r="8"/>
	<circle class="st23" cx="771.5" cy="791.3" r="8"/>
	<circle class="st23" cx="796.9" cy="791.3" r="8"/>
</g>
<g>
	<circle class="st23" cx="690.3" cy="815.5" r="8"/>
	<circle class="st23" cx="716.5" cy="815.5" r="8"/>
	<circle class="st23" cx="745.2" cy="815.5" r="8"/>
	<circle class="st23" cx="771.9" cy="815.5" r="8"/>
	<circle class="st23" cx="797.3" cy="815.5" r="8"/>
</g>
<g>
	<circle class="st23" cx="687.6" cy="723.6" r="8"/>
	<circle class="st23" cx="713.8" cy="723.6" r="8"/>
	<circle class="st23" cx="742.5" cy="723.6" r="8"/>
	<circle class="st23" cx="769.2" cy="723.6" r="8"/>
	<circle class="st23" cx="794.6" cy="723.6" r="8"/>
</g>
<line class="st8" x1="970.5" y1="694.4" x2="1025.7" y2="694.4"/>
<line class="st8" x1="971" y1="713.9" x2="1026.2" y2="713.9"/>
<line class="st8" x1="971" y1="704.2" x2="1026.2" y2="704.2"/>
<circle class="st30" cx="1045" cy="747.7" r="8"/>
<circle class="st30" cx="1071.3" cy="729.2" r="8"/>
<circle class="st6" cx="1045.4" cy="380.1" r="10.3"/>
<circle class="st6" cx="1277" cy="380.1" r="10.3"/>
<circle class="st6" cx="1157.2" cy="381.1" r="10.3"/>
<ellipse transform="matrix(0.5819 -0.8133 0.8133 0.5819 109.1854 978.0869)" class="st17" cx="1005.8" cy="382.9" rx="5.1" ry="5.1"/>
<ellipse transform="matrix(0.5819 -0.8133 0.8133 0.5819 165.233 1081.6124)" class="st17" cx="1134.6" cy="380.1" rx="5.1" ry="5.1"/>
<ellipse transform="matrix(0.5819 -0.8133 0.8133 0.5819 214.6831 1179.8485)" class="st17" cx="1254.8" cy="381.1" rx="5.1" ry="5.1"/>
<ellipse transform="matrix(0.5819 -0.8133 0.8133 0.5819 157.4722 1066.5167)" class="st17" cx="1116" cy="380.1" rx="5.1" ry="5.1"/>
<ellipse transform="matrix(0.5819 -0.8133 0.8133 0.5819 205.6779 1162.3324)" class="st17" cx="1233.3" cy="381.1" rx="5.1" ry="5.1"/>
<ellipse transform="matrix(0.5819 -0.8133 0.8133 0.5819 245.7659 1238.2588)" class="st17" cx="1327.2" cy="380.1" rx="5.1" ry="5.1"/>
<ellipse transform="matrix(0.5819 -0.8133 0.8133 0.5819 260.0678 1268.1274)" class="st17" cx="1363.4" cy="381.1" rx="5.1" ry="5.1"/>
<g>
	<g>
		<circle class="st6" cx="1027.3" cy="374.4" r="2.5"/>
		<circle class="st6" cx="1027.3" cy="387.8" r="2.5"/>
		<circle class="st6" cx="1027.3" cy="381" r="2.5"/>
	</g>
	<circle class="st6" cx="1018.5" cy="382" r="3.3"/>
</g>
<g>
	<g>
		<circle class="st6" cx="1071.1" cy="374.3" r="2.5"/>
		<circle class="st6" cx="1071.1" cy="387.7" r="2.5"/>
		<circle class="st6" cx="1071.1" cy="380.9" r="2.5"/>
	</g>
	<circle class="st6" cx="1062.3" cy="381.9" r="3.3"/>
</g>
<g>
	<g>
		<circle class="st6" cx="1094.7" cy="374.2" r="2.5"/>
		<circle class="st6" cx="1094.7" cy="387.6" r="2.5"/>
		<circle class="st6" cx="1094.7" cy="380.9" r="2.5"/>
	</g>
	<circle class="st6" cx="1085.9" cy="381.8" r="3.3"/>
</g>
<g>
	<g>
		<circle class="st6" cx="1190" cy="372" r="2.5"/>
		<circle class="st6" cx="1190" cy="385.4" r="2.5"/>
		<circle class="st6" cx="1190" cy="378.6" r="2.5"/>
	</g>
	<circle class="st6" cx="1181.2" cy="379.5" r="3.3"/>
</g>
<g>
	<g>
		<circle class="st6" cx="1213.4" cy="371.1" r="2.5"/>
		<circle class="st6" cx="1213.4" cy="384.5" r="2.5"/>
		<circle class="st6" cx="1213.4" cy="377.7" r="2.5"/>
	</g>
	<circle class="st6" cx="1204.6" cy="378.7" r="3.3"/>
</g>
<g>
	<g>
		<circle class="st6" cx="1309.1" cy="372.8" r="2.5"/>
		<circle class="st6" cx="1309.1" cy="386.2" r="2.5"/>
		<circle class="st6" cx="1309.1" cy="379.5" r="2.5"/>
	</g>
	<circle class="st6" cx="1300.3" cy="380.4" r="3.3"/>
</g>
<g>
	<g>
		<circle class="st6" cx="1347.9" cy="373.4" r="2.5"/>
		<circle class="st6" cx="1347.9" cy="386.8" r="2.5"/>
		<circle class="st6" cx="1347.9" cy="380" r="2.5"/>
	</g>
	<circle class="st6" cx="1339.1" cy="381" r="3.3"/>
</g>
<path class="st17" d="M1301.9,556.9c-48.9,0-97.8,0-146.7,0c6-2.1,9.7-7.9,9-13.8c-0.8-6.6-6.8-11.8-13.9-11.4
	c-4.6-2.3-7-7.1-6-11.5c1-4.7,5.5-6.7,6-6.9c3-2.7,6.5-6.7,7.7-12.2c1.5-6.9-1.7-10.8,0.3-14.3c3.8-6.7,21.6-3.4,23.8-3
	c17.9,3.3,53.1,5.3,122,4.3c-6.2,2.2-9.9,8.4-9,14.4c0.8,4.9,4.6,9.1,9.8,10.4c4.7-0.2,8.9,3.1,9.8,7.7c1,4.8-1.9,9.7-6.7,11.1
	c-6.9,2-11.5,7.9-11.5,14.2C1296.4,552.2,1301.2,556.3,1301.9,556.9z"/>
<path class="st17" d="M1312.4,488h-166.5c-3.5,0-6.4-2.9-6.4-6.4v-6.3c0-3.5,2.9-6.4,6.4-6.4h166.5c3.5,0,6.4,2.9,6.4,6.4v6.3
	C1318.7,485.2,1315.9,488,1312.4,488z"/>
<path class="st17" d="M1312.4,576.2h-166.5c-3.5,0-6.4-2.9-6.4-6.4v-6.6c0-3.5,2.9-6.4,6.4-6.4h166.5c3.5,0,6.4,2.9,6.4,6.4v6.6
	C1318.7,573.4,1315.9,576.2,1312.4,576.2z"/>
<rect x="1178.6" y="490.6" class="st14" width="102.7" height="56.4"/>
<ellipse class="st6" cx="1153.5" cy="457.7" rx="1.5" ry="1.3"/>
<ellipse class="st6" cx="1158.5" cy="457.7" rx="1.5" ry="1.3"/>
<ellipse class="st6" cx="1163.2" cy="457.7" rx="1.5" ry="1.3"/>
<ellipse class="st6" cx="1168" cy="457.7" rx="1.5" ry="1.3"/>
<ellipse class="st6" cx="1172.7" cy="457.7" rx="1.5" ry="1.3"/>
<ellipse class="st6" cx="1177.3" cy="457.7" rx="1.5" ry="1.3"/>
<ellipse class="st6" cx="1283.6" cy="457.7" rx="1.5" ry="1.3"/>
<ellipse class="st6" cx="1288.2" cy="457.7" rx="1.5" ry="1.3"/>
<ellipse class="st6" cx="1292.3" cy="457.7" rx="1.5" ry="1.3"/>
<ellipse class="st6" cx="1296.5" cy="457.7" rx="1.5" ry="1.3"/>
<ellipse class="st6" cx="1300.7" cy="457.7" rx="1.5" ry="1.3"/>
<ellipse class="st6" cx="1304.7" cy="457.7" rx="1.5" ry="1.3"/>
<ellipse class="st6" cx="1214" cy="457.7" rx="1.5" ry="1.3"/>
<ellipse class="st6" cx="1218.6" cy="457.7" rx="1.5" ry="1.3"/>
<ellipse class="st6" cx="1223.2" cy="457.7" rx="1.5" ry="1.3"/>
<ellipse class="st6" cx="1228.1" cy="457.7" rx="1.5" ry="1.3"/>
<ellipse class="st6" cx="1232.6" cy="457.7" rx="1.5" ry="1.3"/>
<ellipse class="st6" cx="1237.2" cy="457.7" rx="1.5" ry="1.3"/>
<ellipse class="st6" cx="1241.8" cy="457.7" rx="1.5" ry="1.3"/>
<ellipse class="st6" cx="1246.4" cy="457.7" rx="1.5" ry="1.3"/>
<ellipse class="st6" cx="1251" cy="457.7" rx="1.5" ry="1.3"/>
<ellipse class="st6" cx="1255.7" cy="457.7" rx="1.5" ry="1.3"/>
<ellipse class="st6" cx="1260.3" cy="457.7" rx="1.5" ry="1.3"/>
<ellipse class="st6" cx="1264.9" cy="457.7" rx="1.5" ry="1.3"/>
<ellipse class="st6" cx="1269.8" cy="457.7" rx="1.5" ry="1.3"/>
<ellipse class="st6" cx="1274.3" cy="457.7" rx="1.5" ry="1.3"/>
<ellipse class="st6" cx="1279" cy="457.7" rx="1.5" ry="1.3"/>
<ellipse class="st6" cx="1186.7" cy="457.7" rx="1.5" ry="1.3"/>
<ellipse class="st6" cx="1191.3" cy="457.7" rx="1.5" ry="1.3"/>
<ellipse class="st6" cx="1195.6" cy="457.7" rx="1.5" ry="1.3"/>
<ellipse class="st6" cx="1200.3" cy="457.7" rx="1.5" ry="1.3"/>
<ellipse class="st6" cx="1205.2" cy="457.7" rx="1.5" ry="1.3"/>
<ellipse class="st6" cx="1209.6" cy="457.7" rx="1.5" ry="1.3"/>
<ellipse class="st6" cx="1182.1" cy="457.7" rx="1.5" ry="1.3"/>
<ellipse class="st6" cx="1148.3" cy="588.1" rx="1.5" ry="1.3"/>
<ellipse class="st6" cx="1153.2" cy="588.1" rx="1.5" ry="1.3"/>
<ellipse class="st6" cx="1158" cy="588.1" rx="1.5" ry="1.3"/>
<ellipse class="st6" cx="1162.7" cy="588.1" rx="1.5" ry="1.3"/>
<ellipse class="st6" cx="1167.4" cy="588.1" rx="1.5" ry="1.3"/>
<ellipse class="st6" cx="1172" cy="588.1" rx="1.5" ry="1.3"/>
<ellipse class="st6" cx="1278.4" cy="588.1" rx="1.5" ry="1.3"/>
<ellipse class="st6" cx="1282.9" cy="588.1" rx="1.5" ry="1.3"/>
<ellipse class="st6" cx="1287.1" cy="588.1" rx="1.5" ry="1.3"/>
<ellipse class="st6" cx="1291.2" cy="588.1" rx="1.5" ry="1.3"/>
<ellipse class="st6" cx="1295.5" cy="588.1" rx="1.5" ry="1.3"/>
<ellipse class="st6" cx="1299.5" cy="588.1" rx="1.5" ry="1.3"/>
<ellipse class="st6" cx="1208.7" cy="588.1" rx="1.5" ry="1.3"/>
<ellipse class="st6" cx="1213.3" cy="588.1" rx="1.5" ry="1.3"/>
<ellipse class="st6" cx="1217.9" cy="588.1" rx="1.5" ry="1.3"/>
<ellipse class="st6" cx="1222.8" cy="588.1" rx="1.5" ry="1.3"/>
<ellipse class="st6" cx="1227.4" cy="588.1" rx="1.5" ry="1.3"/>
<ellipse class="st6" cx="1232" cy="588.1" rx="1.5" ry="1.3"/>
<ellipse class="st6" cx="1236.5" cy="588.1" rx="1.5" ry="1.3"/>
<ellipse class="st6" cx="1241.1" cy="588.1" rx="1.5" ry="1.3"/>
<ellipse class="st6" cx="1245.7" cy="588.1" rx="1.5" ry="1.3"/>
<ellipse class="st6" cx="1250.5" cy="588.1" rx="1.5" ry="1.3"/>
<ellipse class="st6" cx="1255" cy="588.1" rx="1.5" ry="1.3"/>
<ellipse class="st6" cx="1259.6" cy="588.1" rx="1.5" ry="1.3"/>
<ellipse class="st6" cx="1264.5" cy="588.1" rx="1.5" ry="1.3"/>
<ellipse class="st6" cx="1269.1" cy="588.1" rx="1.5" ry="1.3"/>
<ellipse class="st6" cx="1273.7" cy="588.1" rx="1.5" ry="1.3"/>
<ellipse class="st6" cx="1181.4" cy="588.1" rx="1.5" ry="1.3"/>
<ellipse class="st6" cx="1186.1" cy="588.1" rx="1.5" ry="1.3"/>
<ellipse class="st6" cx="1190.4" cy="588.1" rx="1.5" ry="1.3"/>
<ellipse class="st6" cx="1195.1" cy="588.1" rx="1.5" ry="1.3"/>
<ellipse class="st6" cx="1200" cy="588.1" rx="1.5" ry="1.3"/>
<ellipse class="st6" cx="1204.4" cy="588.1" rx="1.5" ry="1.3"/>
<ellipse class="st6" cx="1176.8" cy="588.1" rx="1.5" ry="1.3"/>
<g>
	<g>
		<path class="st6" d="M1079.4,513.4c-2.9-23.6-4.4-47.4-3.8-71.3c0.3-11.8,1.3-24.2,12.3-31.2c8.6-5.5,19-6.2,28.9-6.8
			c46.1-3.1,92.3,1.3,138.4,1.2c19.2,0,38.4-1,57.6-1.5c11-0.2,21.9-0.4,32.9-0.3c3.9,0,7.9,0,11.8,0.3c1.1,0.1,2.2,0.2,3.3,0.4
			c0.5,0.1,2.5,0.8,2,0.5c6.6,2.9,7.4,11.7,7.9,17.9c0.9,12.4,0.6,25,0.7,37.5c0.1,16.7-0.2,33.3-0.4,50
			c-0.1,14.5,1.2,28.7,1.8,43.2c0.3,7.5,0.6,15,1.4,22.5c0.7,6.5,1.8,13.1,2.2,19.6c0.2,3.6,0.5,7.9-2,10.8
			c-3.8,4.5-11.1,4-16.4,3.5c-5.8-0.5-5.7,8.5,0,9c9.6,0.9,21.1-0.8,25.6-10.5c4-8.7,1-19.8-0.1-28.8c-1.7-14-1.7-28.2-2.8-42.2
			c-0.4-5.4-0.7-10.7-0.7-16.1c-0.2-14.2,0.3-28.4,0.4-42.6c0.1-13.2,0-26.4-0.2-39.6c-0.1-10.5,0.7-22.7-3.9-32.5
			c-6.9-14.8-25-12.1-38.5-11.9c-20.1,0.2-40.2,1.2-60.3,1.5c-27.2,0.5-54.4,0.3-81.5-1c-21.9-1-43.9-1.7-65.8-0.7
			c-12.7,0.5-26.8,0.4-38.9,5c-13.5,5.1-21.8,16-23.7,30.2c-1.6,11.7-1.1,24-0.7,35.8c0.5,16,1.8,32,3.7,47.9
			C1071.1,519.1,1080.1,519.2,1079.4,513.4L1079.4,513.4z"/>
	</g>
</g>
<path class="st21" d="M1076.6,589.5L1076.6,589.5c-8.8,0-16-7.2-16-16v-46.5c0-8.8,7.2-16,16-16l0,0c8.8,0,16,7.2,16,16v46.5
	C1092.7,582.3,1085.5,589.5,1076.6,589.5z"/>
</svg>
