<?xml version="1.0" encoding="utf-8"?>
<!-- Generator: Adobe Illustrator 21.1.0, SVG Export Plug-In . SVG Version: 6.00 Build 0)  -->
<svg version="1.1" id="Layer_1" xmlns="http://www.w3.org/2000/svg" xmlns:xlink="http://www.w3.org/1999/xlink" x="0px" y="0px"
	 viewBox="0 0 2072.9 1220.9" style="enable-background:new 0 0 2072.9 1220.9;" xml:space="preserve">
<style type="text/css">
	.st0{fill:#E0A89D;}
	.st1{fill:none;stroke:#E0A89D;stroke-width:13;stroke-miterlimit:10;}
	.st2{fill:#0C3A66;}
	.st3{fill:#F9F9F9;}
	.st4{font-family:'Monaco';}
	.st5{font-size:20px;}
	.st6{font-size:45px;}
	.st7{fill:#505374;}
	.st8{fill:#FDFEFF;}
	.st9{opacity:0.5;fill:#545556;}
	.st10{fill:none;stroke:#2C2C2D;stroke-width:9;stroke-miterlimit:10;}
</style>
<g>
	
		<image style="overflow:visible;opacity:0.75;enable-background:new    ;" width="2174" height="185" xlink:href="C856FBDE16D8C826.png"  transform="matrix(1 0 0 1 -40 -40)">
	</image>
	<g>
		<rect class="st0" width="2094" height="105.4"/>
		<rect class="st1" width="2094" height="105.4"/>
	</g>
</g>
<g>
	
		<image style="overflow:visible;opacity:0.75;enable-background:new    ;" width="319" height="138" xlink:href="C856FBDE16D8C827.png"  transform="matrix(1 0 0 1 -5 123)">
	</image>
	<g>
		<rect x="28.9" y="156" class="st2" width="251.8" height="71.4"/>
	</g>
</g>
<g>
	
		<image style="overflow:visible;opacity:0.75;enable-background:new    ;" width="319" height="138" xlink:href="C856FBDE16D8C828.png"  transform="matrix(1 0 0 1 -5 223)">
	</image>
	<g>
		<rect x="28.9" y="256" class="st2" width="251.8" height="71.4"/>
	</g>
</g>
<g>
	
		<image style="overflow:visible;opacity:0.75;enable-background:new    ;" width="319" height="138" xlink:href="C856FBDE16D8C829.png"  transform="matrix(1 0 0 1 -5 323)">
	</image>
	<g>
		<rect x="28.9" y="356" class="st2" width="251.8" height="71.4"/>
	</g>
</g>
<g>
	
		<image style="overflow:visible;opacity:0.75;enable-background:new    ;" width="319" height="138" xlink:href="C856FBDE16D8C82A.png"  transform="matrix(1 0 0 1 -5 423)">
	</image>
	<g>
		<rect x="28.9" y="456" class="st2" width="251.8" height="71.4"/>
	</g>
</g>
<g>
	
		<image style="overflow:visible;opacity:0.75;enable-background:new    ;" width="319" height="138" xlink:href="C856FBDE16D8C82B.png"  transform="matrix(1 0 0 1 -5 523)">
	</image>
	<g>
		<rect x="28.9" y="556" class="st2" width="251.8" height="71.4"/>
	</g>
</g>
<g>
	
		<image style="overflow:visible;opacity:0.75;enable-background:new    ;" width="319" height="138" xlink:href="C856FBDE16D8C82F.png"  transform="matrix(1 0 0 1 -5 723)">
	</image>
	<g>
		<rect x="28.9" y="756" class="st2" width="251.8" height="71.4"/>
	</g>
</g>
<g>
	
		<image style="overflow:visible;opacity:0.75;enable-background:new    ;" width="319" height="138" xlink:href="C856FBDE16D8C825.png"  transform="matrix(1 0 0 1 -5 623)">
	</image>
	<g>
		<rect x="28.9" y="656" class="st2" width="251.8" height="71.4"/>
	</g>
</g>
<g>
	
		<image style="overflow:visible;opacity:0.75;enable-background:new    ;" width="319" height="138" xlink:href="C856FBDE16D8C824.png"  transform="matrix(1 0 0 1 -5 823)">
	</image>
	<g>
		<rect x="28.9" y="856" class="st2" width="251.8" height="71.4"/>
	</g>
</g>
<g>
	
		<image style="overflow:visible;opacity:0.75;enable-background:new    ;" width="319" height="138" xlink:href="F49267194D54F28D.png"  transform="matrix(1 0 0 1 -5 923)">
	</image>
	<g>
		<rect x="28.9" y="956" class="st2" width="251.8" height="71.4"/>
	</g>
</g>
<g>
	
		<image style="overflow:visible;opacity:0.75;enable-background:new    ;" width="319" height="139" xlink:href="F49267194D54F289.png"  transform="matrix(1 0 0 0.9928 -5 1023)">
	</image>
	<g>
		<rect x="28.9" y="1056" class="st2" width="251.8" height="71.4"/>
	</g>
</g>
<text transform="matrix(1 0 0 1 106.8753 199.3571)" class="st3 st4 st5">Meetup</text>
<text transform="matrix(1 0 0 1 178.8753 199.3571)" class="st4 st6"> </text>
<text transform="matrix(1 0 0 1 64.8776 400.3649)" class="st3 st4 st5">Google Calender</text>
<text transform="matrix(1 0 0 1 75.3767 302.8773)" class="st3 st4 st5">Bumble Friends</text>
<text transform="matrix(1 0 0 1 94.8756 503.8668)" class="st3 st4 st5">Facebook</text>
<text transform="matrix(1 0 0 1 75.3766 602.8619)" class="st3 st4 st5">Apple Calender</text>
<text transform="matrix(1 0 0 1 106.8752 703.3622)" class="st3 st4 st5">Tinder</text>
<text transform="matrix(1 0 0 1 46.8782 802.3574)" class="st3 st4 st5">Facebook Messenger</text>
<text transform="matrix(1 0 0 1 64.8774 899.8539)" class="st3 st4 st5">Google Hangouts</text>
<text transform="matrix(1 0 0 1 94.8758 1003.3552)" class="st3 st4 st5">GroupMe</text>
<text transform="matrix(1 0 0 1 85.8764 1102.3501)" class="st3 st4 st5">What’s App</text>
<g>
	
		<image style="overflow:visible;opacity:0.75;enable-background:new    ;" width="237" height="115" xlink:href="F49267194D54F280.png"  transform="matrix(1 0 0 1 31 36)">
	</image>
	<g>
		<rect x="64.9" y="69" class="st7" width="169.5" height="48.1"/>
	</g>
</g>
<g>
	
		<image style="overflow:visible;opacity:0.75;enable-background:new    ;" width="236" height="115" xlink:href="F49267194D54F281.png"  transform="matrix(1 0 0 1 523 36)">
	</image>
	<g>
		<rect x="556.4" y="69" class="st7" width="169.5" height="48.1"/>
	</g>
</g>
<g>
	
		<image style="overflow:visible;opacity:0.75;enable-background:new    ;" width="236" height="115" xlink:href="F49267194D54F282.png"  transform="matrix(1 0 0 1 705 36)">
	</image>
	<g>
		<rect x="738.2" y="69" class="st7" width="169.5" height="48.1"/>
	</g>
</g>
<g>
	
		<image style="overflow:visible;opacity:0.75;enable-background:new    ;" width="236" height="115" xlink:href="F49267194D54F283.png"  transform="matrix(1 0 0 1 888 36)">
	</image>
	<g>
		<rect x="921.4" y="69" class="st7" width="169.5" height="48.1"/>
	</g>
</g>
<g>
	
		<image style="overflow:visible;opacity:0.75;enable-background:new    ;" width="236" height="115" xlink:href="F49267194D54F284.png"  transform="matrix(1 0 0 1 1072 36)">
	</image>
	<g>
		<rect x="1105.1" y="69" class="st7" width="169.5" height="48.1"/>
	</g>
</g>
<g>
	
		<image style="overflow:visible;opacity:0.75;enable-background:new    ;" width="237" height="115" xlink:href="F49267194D54F285.png"  transform="matrix(1 0 0 1 1252 36)">
	</image>
	<g>
		<rect x="1285.9" y="69" class="st7" width="169.5" height="48.1"/>
	</g>
</g>
<g>
	
		<image style="overflow:visible;opacity:0.75;enable-background:new    ;" width="236" height="115" xlink:href="F49267194D54F288.png"  transform="matrix(1 0 0 1 1434 36)">
	</image>
	<g>
		<rect x="1467.4" y="69" class="st7" width="169.5" height="48.1"/>
	</g>
</g>
<g>
	
		<image style="overflow:visible;opacity:0.75;enable-background:new    ;" width="236" height="115" xlink:href="F49267194D54F357.png"  transform="matrix(1 0 0 1 1614 36)">
	</image>
	<g>
		<rect x="1647.4" y="69" class="st7" width="169.5" height="48.1"/>
	</g>
</g>
<g>
	
		<image style="overflow:visible;opacity:0.75;enable-background:new    ;" width="236" height="115" xlink:href="F49267194D54F373.png"  transform="matrix(1 0 0 1 1797 36)">
	</image>
	<g>
		<rect x="1830" y="69" class="st7" width="169.5" height="48.1"/>
	</g>
</g>
<text transform="matrix(1 0 0 1 115.8745 105.3572)" class="st3 st4 st5">Brand</text>
<text transform="matrix(1 0 0 1 589.8474 99.3567)" class="st3 st4 st5">Messaging</text>
<text transform="matrix(1 0 0 1 773.3693 99.3568)" class="st3 st4 st5">Discover</text>
<text transform="matrix(1 0 0 1 951.8604 99.3566)" class="st3 st4 st5">Reviews</text>
<text transform="matrix(1 0 0 1 1125.541 99.3568)" class="st3 st4 st5">References</text>
<text transform="matrix(1 0 0 1 1298.3595 99.3569)" class="st3 st4 st5">Description</text>
<text transform="matrix(1 0 0 1 1473.8507 99.3569)" class="st3 st4 st5">Photo Gallery</text>
<text transform="matrix(1 0 0 1 1674.8475 99.3564)" class="st3 st4 st5">Portfolio</text>
<text transform="matrix(1 0 0 1 1838.3394 99.3568)" class="st3 st4 st5">Calender Sync</text>
<g>
	
		<image style="overflow:visible;opacity:0.75;enable-background:new    ;" width="319" height="139" xlink:href="F49267194D54F374.png"  transform="matrix(1 0 0 0.9928 -5 1116.4586)">
	</image>
	<g>
		<rect x="28.9" y="1149.5" class="st2" width="251.8" height="71.4"/>
	</g>
</g>
<text transform="matrix(1 0 0 1 85.8762 1193.3501)" class="st3 st4 st5">LinkedIn</text>
<g>
	
		<image style="overflow:visible;opacity:0.75;enable-background:new    ;" width="265" height="116" xlink:href="F49267194D54F375.png"  transform="matrix(1 0 0 1 281 234)">
	</image>
	<g>
		<g>
			<rect x="314" y="284.1" class="st8" width="156" height="15.3"/>
			<polygon class="st8" points="512.6,291.7 470,267.1 470,316.3 			"/>
		</g>
	</g>
</g>
<g>
	
		<image style="overflow:visible;opacity:0.75;enable-background:new    ;" width="265" height="116" xlink:href="F49267194D54F376.png"  transform="matrix(1 0 0 1 281 334)">
	</image>
	<g>
		<g>
			<rect x="314" y="384.1" class="st8" width="156" height="15.3"/>
			<polygon class="st8" points="512.6,391.7 470,367.1 470,416.3 			"/>
		</g>
	</g>
</g>
<g>
	
		<image style="overflow:visible;opacity:0.75;enable-background:new    ;" width="265" height="117" xlink:href="F49267194D54F377.png"  transform="matrix(1 0 0 0.9915 281 438.5097)">
	</image>
	<g>
		<g>
			<rect x="314" y="488.6" class="st8" width="156" height="15.3"/>
			<polygon class="st8" points="512.6,496.2 470,471.6 470,520.8 			"/>
		</g>
	</g>
</g>
<g>
	
		<image style="overflow:visible;opacity:0.75;enable-background:new    ;" width="265" height="117" xlink:href="F49267194D54F378.png"  transform="matrix(1 0 0 0.9915 281 534)">
	</image>
	<g>
		<g>
			<rect x="314" y="584.1" class="st8" width="156" height="15.3"/>
			<polygon class="st8" points="512.6,591.7 470,567.1 470,616.3 			"/>
		</g>
	</g>
</g>
<g>
	
		<image style="overflow:visible;opacity:0.75;enable-background:new    ;" width="265" height="117" xlink:href="F49267194D54F379.png"  transform="matrix(1 0 0 0.9915 281 634)">
	</image>
	<g>
		<g>
			<rect x="314" y="684.1" class="st8" width="156" height="15.3"/>
			<polygon class="st8" points="512.6,691.7 470,667.1 470,716.3 			"/>
		</g>
	</g>
</g>
<g>
	
		<image style="overflow:visible;opacity:0.75;enable-background:new    ;" width="266" height="117" xlink:href="F49267194D54F37A.png"  transform="matrix(0.9962 0 0 0.9915 277.5244 734)">
	</image>
	<g>
		<g>
			<rect x="310.5" y="784.1" class="st8" width="156" height="15.3"/>
			<polygon class="st8" points="509.2,791.7 466.5,767.1 466.5,816.3 			"/>
		</g>
	</g>
</g>
<g>
	
		<image style="overflow:visible;opacity:0.75;enable-background:new    ;" width="266" height="117" xlink:href="F49267194D54F37B.png"  transform="matrix(0.9962 0 0 0.9915 277.5244 834)">
	</image>
	<g>
		<g>
			<rect x="310.5" y="884.1" class="st8" width="156" height="15.3"/>
			<polygon class="st8" points="509.2,891.7 466.5,867.1 466.5,916.3 			"/>
		</g>
	</g>
</g>
<g>
	
		<image style="overflow:visible;opacity:0.75;enable-background:new    ;" width="266" height="117" xlink:href="F49267194D54F37C.png"  transform="matrix(0.9962 0 0 0.9915 277.5244 932.6172)">
	</image>
	<g>
		<g>
			<rect x="310.5" y="982.7" class="st8" width="156" height="15.3"/>
			<polygon class="st8" points="509.2,990.3 466.5,965.7 466.5,1014.9 			"/>
		</g>
	</g>
</g>
<g>
	
		<image style="overflow:visible;opacity:0.75;enable-background:new    ;" width="265" height="117" xlink:href="F49267194D54F39C.png"  transform="matrix(1 0 0 0.9915 281 1034)">
	</image>
	<g>
		<g>
			<rect x="314" y="1084.1" class="st8" width="156" height="15.3"/>
			<polygon class="st8" points="512.6,1091.7 470,1067.1 470,1116.3 			"/>
		</g>
	</g>
</g>
<g>
	
		<image style="overflow:visible;opacity:0.75;enable-background:new    ;" width="265" height="117" xlink:href="F49267194D54F39F.png"  transform="matrix(1 0 0 0.9915 281 1127.4586)">
	</image>
	<g>
		<g>
			<rect x="314" y="1177.5" class="st8" width="156" height="15.3"/>
			<polygon class="st8" points="512.6,1185.2 470,1160.6 470,1209.8 			"/>
		</g>
	</g>
</g>
<g>
	
		<image style="overflow:visible;opacity:0.75;enable-background:new    ;" width="265" height="116" xlink:href="F49267194D54F392.png"  transform="matrix(1 0 0 1 281 128.9547)">
	</image>
	<g>
		<g>
			<rect x="314" y="179.1" class="st8" width="156" height="15.3"/>
			<polygon class="st8" points="512.6,186.7 470,162.1 470,211.3 			"/>
		</g>
	</g>
</g>
<g>
	<circle class="st9" cx="648.2" cy="186.7" r="26.6"/>
	<circle class="st9" cx="648.2" cy="291.7" r="26.6"/>
	<circle class="st9" cx="648.2" cy="392" r="26.6"/>
	<circle class="st9" cx="648.2" cy="496.5" r="26.6"/>
	<circle class="st9" cx="648.2" cy="591.7" r="26.6"/>
	<circle class="st9" cx="648.2" cy="691.7" r="26.6"/>
	<circle class="st9" cx="648.2" cy="792" r="26.6"/>
	<circle class="st9" cx="648.2" cy="892.3" r="26.6"/>
	<circle class="st9" cx="648.2" cy="990.6" r="26.6"/>
	<circle class="st9" cx="648.2" cy="1092" r="26.6"/>
	<circle class="st9" cx="648.2" cy="1185.2" r="26.6"/>
</g>
<g>
	<circle class="st9" cx="815.2" cy="186.7" r="26.6"/>
	<circle class="st9" cx="815.2" cy="291.7" r="26.6"/>
	<circle class="st9" cx="815.2" cy="392" r="26.6"/>
	<circle class="st9" cx="815.2" cy="496.5" r="26.6"/>
	<circle class="st9" cx="815.2" cy="591.7" r="26.6"/>
	<circle class="st9" cx="815.2" cy="691.7" r="26.6"/>
	<circle class="st9" cx="815.2" cy="792" r="26.6"/>
	<circle class="st9" cx="815.2" cy="892.3" r="26.6"/>
	<circle class="st9" cx="815.2" cy="990.6" r="26.6"/>
	<circle class="st9" cx="815.2" cy="1092" r="26.6"/>
	<circle class="st9" cx="815.2" cy="1185.2" r="26.6"/>
</g>
<circle class="st9" cx="1006.2" cy="186.7" r="26.6"/>
<circle class="st9" cx="1006.2" cy="291.7" r="26.6"/>
<circle class="st9" cx="1006.2" cy="392" r="26.6"/>
<circle class="st9" cx="1006.2" cy="496.5" r="26.6"/>
<circle class="st9" cx="1006.2" cy="591.7" r="26.6"/>
<circle class="st9" cx="1006.2" cy="691.7" r="26.6"/>
<circle class="st9" cx="1006.2" cy="792" r="26.6"/>
<circle class="st9" cx="1006.2" cy="892.3" r="26.6"/>
<circle class="st9" cx="1006.2" cy="990.6" r="26.6"/>
<circle class="st9" cx="1006.2" cy="1092" r="26.6"/>
<circle class="st9" cx="1006.2" cy="1185.2" r="26.6"/>
<circle class="st9" cx="1195.5" cy="186.7" r="26.6"/>
<circle class="st9" cx="1195.5" cy="291.7" r="26.6"/>
<circle class="st9" cx="1195.5" cy="392" r="26.6"/>
<circle class="st9" cx="1195.5" cy="496.5" r="26.6"/>
<circle class="st9" cx="1195.5" cy="591.7" r="26.6"/>
<circle class="st9" cx="1195.5" cy="691.7" r="26.6"/>
<circle class="st9" cx="1195.5" cy="792" r="26.6"/>
<circle class="st9" cx="1195.5" cy="892.3" r="26.6"/>
<circle class="st9" cx="1195.5" cy="990.6" r="26.6"/>
<circle class="st9" cx="1195.5" cy="1092" r="26.6"/>
<circle class="st9" cx="1195.5" cy="1185.2" r="26.6"/>
<circle class="st9" cx="1376.8" cy="186.7" r="26.6"/>
<circle class="st9" cx="1376.8" cy="291.7" r="26.6"/>
<circle class="st9" cx="1376.8" cy="392" r="26.6"/>
<circle class="st9" cx="1376.8" cy="496.5" r="26.6"/>
<circle class="st9" cx="1376.8" cy="591.7" r="26.6"/>
<circle class="st9" cx="1376.8" cy="691.7" r="26.6"/>
<circle class="st9" cx="1376.8" cy="792" r="26.6"/>
<circle class="st9" cx="1376.8" cy="892.3" r="26.6"/>
<circle class="st9" cx="1376.8" cy="990.6" r="26.6"/>
<circle class="st9" cx="1376.8" cy="1092" r="26.6"/>
<circle class="st9" cx="1376.8" cy="1185.2" r="26.6"/>
<circle class="st9" cx="1557.5" cy="186.7" r="26.6"/>
<circle class="st9" cx="1557.5" cy="291.7" r="26.6"/>
<circle class="st9" cx="1557.5" cy="392" r="26.6"/>
<circle class="st9" cx="1557.5" cy="496.5" r="26.6"/>
<circle class="st9" cx="1557.5" cy="591.7" r="26.6"/>
<circle class="st9" cx="1557.5" cy="691.7" r="26.6"/>
<circle class="st9" cx="1557.5" cy="792" r="26.6"/>
<circle class="st9" cx="1557.5" cy="892.3" r="26.6"/>
<circle class="st9" cx="1557.5" cy="990.6" r="26.6"/>
<circle class="st9" cx="1557.5" cy="1092" r="26.6"/>
<circle class="st9" cx="1557.5" cy="1185.2" r="26.6"/>
<circle class="st9" cx="1732" cy="186.7" r="26.6"/>
<circle class="st9" cx="1732" cy="291.7" r="26.6"/>
<circle class="st9" cx="1732" cy="392" r="26.6"/>
<circle class="st9" cx="1732" cy="496.5" r="26.6"/>
<circle class="st9" cx="1732" cy="591.7" r="26.6"/>
<circle class="st9" cx="1732" cy="691.7" r="26.6"/>
<circle class="st9" cx="1732" cy="792" r="26.6"/>
<circle class="st9" cx="1732" cy="892.3" r="26.6"/>
<circle class="st9" cx="1732" cy="990.6" r="26.6"/>
<circle class="st9" cx="1732" cy="1092" r="26.6"/>
<circle class="st9" cx="1732" cy="1185.2" r="26.6"/>
<circle class="st9" cx="1915" cy="186.6" r="26.6"/>
<circle class="st9" cx="1915" cy="291.7" r="26.6"/>
<circle class="st9" cx="1915" cy="392" r="26.6"/>
<circle class="st9" cx="1915" cy="496.5" r="26.6"/>
<circle class="st9" cx="1915" cy="591.7" r="26.6"/>
<circle class="st9" cx="1915" cy="691.7" r="26.6"/>
<circle class="st9" cx="1915" cy="792" r="26.6"/>
<circle class="st9" cx="1915" cy="892.3" r="26.6"/>
<circle class="st9" cx="1915" cy="990.6" r="26.6"/>
<circle class="st9" cx="1915" cy="1092" r="26.6"/>
<circle class="st9" cx="1915" cy="1185.1" r="26.6"/>
<path class="st10" d="M635.1,193.6c5.8,5.4,11.6,10.8,17.4,16.2c10.4-15.2,20.9-30.5,31.3-45.7"/>
<path class="st10" d="M635.1,294.5c5.8,5.4,11.6,10.8,17.4,16.2c10.4-15.2,20.9-30.5,31.3-45.7"/>
<path class="st10" d="M635.1,502.9c5.8,5.4,11.6,10.8,17.4,16.2c10.4-15.2,20.9-30.5,31.3-45.7"/>
<path class="st10" d="M635.1,696.1c5.8,5.4,11.6,10.8,17.4,16.2c10.4-15.2,20.9-30.5,31.3-45.7"/>
<path class="st10" d="M635.1,798.3c5.8,5.4,11.6,10.8,17.4,16.2c10.4-15.2,20.9-30.5,31.3-45.7"/>
<path class="st10" d="M635.1,898.9c5.8,5.4,11.6,10.8,17.4,16.2c10.4-15.2,20.9-30.5,31.3-45.7"/>
<path class="st10" d="M635.1,997.2c5.8,5.4,11.6,10.8,17.4,16.2c10.4-15.2,20.9-30.5,31.3-45.7"/>
<path class="st10" d="M635.1,1098.6c5.8,5.4,11.6,10.8,17.4,16.2c10.4-15.2,20.9-30.5,31.3-45.7"/>
<path class="st10" d="M635.1,1192.1c5.8,5.4,11.6,10.8,17.4,16.2c10.4-15.2,20.9-30.5,31.3-45.7"/>
<path class="st10" d="M802.8,193.6c5.8,5.4,11.6,10.8,17.4,16.2c10.4-15.2,20.9-30.5,31.3-45.7"/>
<path class="st10" d="M798.6,298.3c5.8,5.4,11.6,10.8,17.4,16.2c10.4-15.2,20.9-30.5,31.3-45.7"/>
<path class="st10" d="M798.7,502.9c5.8,5.4,11.6,10.8,17.4,16.2c10.4-15.2,20.9-30.5,31.3-45.7"/>
<path class="st10" d="M798.7,698.3c5.8,5.4,11.6,10.8,17.4,16.2c10.4-15.2,20.9-30.5,31.3-45.7"/>
<path class="st10" d="M798.7,1192.1c5.8,5.4,11.6,10.8,17.4,16.2c10.4-15.2,20.9-30.5,31.3-45.7"/>
<path class="st10" d="M1364,193.6c5.8,5.4,11.6,10.8,17.4,16.2c10.4-15.2,20.9-30.5,31.3-45.7"/>
<path class="st10" d="M1364,298.3c5.8,5.4,11.6,10.8,17.4,16.2c10.4-15.2,20.9-30.5,31.3-45.7"/>
<path class="st10" d="M1364,503.4c5.8,5.4,11.6,10.8,17.4,16.2c10.4-15.2,20.9-30.5,31.3-45.7"/>
<path class="st10" d="M1364,698.5c5.8,5.4,11.6,10.8,17.4,16.2c10.4-15.2,20.9-30.5,31.3-45.7"/>
<path class="st10" d="M1364,1188c5.8,5.4,11.6,10.8,17.4,16.2c10.4-15.2,20.9-30.5,31.3-45.7"/>
<path class="st10" d="M1535.4,298.3c5.8,5.4,11.6,10.8,17.4,16.2c10.4-15.2,20.9-30.5,31.3-45.7"/>
<path class="st10" d="M1535.4,502.1c5.8,5.4,11.6,10.8,17.4,16.2c10.4-15.2,20.9-30.5,31.3-45.7"/>
<path class="st10" d="M1542.3,698.3c5.8,5.4,11.6,10.8,17.4,16.2c10.4-15.2,20.9-30.5,31.3-45.7"/>
<path class="st10" d="M1542.3,798.6c5.8,5.4,11.6,10.8,17.4,16.2c10.4-15.2,20.9-30.5,31.3-45.7"/>
<path class="st10" d="M1542.3,896c5.8,5.4,11.6,10.8,17.4,16.2c10.4-15.2,20.9-30.5,31.3-45.7"/>
<path class="st10" d="M1542.3,997.2c5.8,5.4,11.6,10.8,17.4,16.2c10.4-15.2,20.9-30.5,31.3-45.7"/>
<path class="st10" d="M1542.3,1098.4c5.8,5.4,11.6,10.8,17.4,16.2c10.4-15.2,20.9-30.5,31.3-45.7"/>
<path class="st10" d="M1542.3,1191.8c5.8,5.4,11.6,10.8,17.4,16.2c10.4-15.2,20.9-30.5,31.3-45.7"/>
<path class="st10" d="M1718,193.3c5.8,5.4,11.6,10.8,17.4,16.2c10.4-15.2,20.9-30.5,31.3-45.7"/>
<path class="st10" d="M1718,498.5c5.8,5.4,11.6,10.8,17.4,16.2c10.4-15.2,20.9-30.5,31.3-45.7"/>
<path class="st10" d="M1720.6,1188c5.8,5.4,11.6,10.8,17.4,16.2c10.4-15.2,20.9-30.5,31.3-45.7"/>
<path class="st10" d="M1902,193.3c5.8,5.4,11.6,10.8,17.4,16.2c10.4-15.2,20.9-30.5,31.3-45.7"/>
<path class="st10" d="M1902,395.8c5.8,5.4,11.6,10.8,17.4,16.2c10.4-15.2,20.9-30.5,31.3-45.7"/>
<path class="st10" d="M1902,499.1c5.8,5.4,11.6,10.8,17.4,16.2c10.4-15.2,20.9-30.5,31.3-45.7"/>
<path class="st10" d="M1902,1094.5c5.8,5.4,11.6,10.8,17.4,16.2c10.4-15.2,20.9-30.5,31.3-45.7"/>
<path class="st10" d="M988.1,1192.1c5.8,5.4,11.6,10.8,17.4,16.2c10.4-15.2,20.9-30.5,31.3-45.7"/>
<path class="st10" d="M1177.6,1191.7c5.8,5.4,11.6,10.8,17.4,16.2c10.4-15.2,20.9-30.5,31.3-45.7"/>
</svg>
