<?xml version="1.0" encoding="utf-8"?>
<!-- Generator: Adobe Illustrator 21.1.0, SVG Export Plug-In . SVG Version: 6.00 Build 0)  -->
<svg version="1.1" id="Layer_1" xmlns="http://www.w3.org/2000/svg" xmlns:xlink="http://www.w3.org/1999/xlink" x="0px" y="0px"
	 viewBox="0 0 1728 840" style="enable-background:new 0 0 1728 840;" xml:space="preserve">
<style type="text/css">
	.st0{fill:#0C3A66;}
	.st1{fill:none;stroke:#F2F2F2;stroke-width:15;stroke-miterlimit:10;}
	.st2{opacity:0.5;fill:#243B6B;enable-background:new    ;}
	.st3{fill:#816E81;}
	.st4{fill:#535E7A;}
	.st5{fill:#F4D9D9;}
	.st6{fill:#0C3A66;stroke:#0C3A66;stroke-miterlimit:10;}
	.st7{fill:#816E81;stroke:#816E81;stroke-miterlimit:10;}
	.st8{fill:#C4C4C4;}
	.st9{fill:#C4C4C4;stroke:#C4C4C4;stroke-miterlimit:10;}
	.st10{font-family:'OpenSans';}
	.st11{font-size:21px;}
	.st12{font-family:'Monaco';}
	.st13{fill:#E0A89D;}
	.st14{fill:none;stroke:#F9F7F7;stroke-width:3;stroke-miterlimit:10;}
	.st15{fill:none;stroke:#F2F2F2;stroke-width:3;stroke-miterlimit:10;}
	.st16{fill:#F2F2F2;stroke:#F2F2F2;stroke-width:3;stroke-miterlimit:10;}
	.st17{fill:#F2F2F2;}
	.st18{font-size:18px;}
	.st19{fill:#C4C4C4;stroke:#C4C4C4;stroke-width:5;stroke-miterlimit:10;}
	.st20{fill:none;stroke:#C4C4C4;stroke-width:5;stroke-miterlimit:10;}
	.st21{fill:none;stroke:#F2F2F2;stroke-width:5;stroke-miterlimit:10;}
</style>
<g>
	<g>
		<polygon class="st0" points="201.8,294.1 85.4,295.7 25.8,195.7 82.6,94.1 199,92.4 258.6,192.4 		"/>
		<polygon class="st1" points="201.8,294.1 85.4,295.7 25.8,195.7 82.6,94.1 199,92.4 258.6,192.4 		"/>
	</g>
</g>
<g>
	<g>
		<polygon class="st2" points="551,22.1 434.6,22.1 376.4,122.9 434.6,223.7 551,223.7 609.2,122.9 		"/>
		<polygon class="st1" points="551,22.1 434.6,22.1 376.4,122.9 434.6,223.7 551,223.7 609.2,122.9 		"/>
	</g>
</g>
<g>
	<g>
		<polygon class="st3" points="915.5,93.2 799,93.2 740.8,194.1 799,294.9 915.5,294.9 973.7,194.1 		"/>
		<polygon class="st1" points="915.5,93.2 799,93.2 740.8,194.1 799,294.9 915.5,294.9 973.7,194.1 		"/>
	</g>
</g>
<g>
	<g>
		<polygon class="st4" points="1279.9,22.1 1163.5,22.1 1105.3,122.9 1163.5,223.7 1279.9,223.7 1338.1,122.9 		"/>
		<polygon class="st1" points="1279.9,22.1 1163.5,22.1 1105.3,122.9 1163.5,223.7 1279.9,223.7 1338.1,122.9 		"/>
	</g>
</g>
<g>
	<g>
		<polygon class="st5" points="1644.4,93.2 1528,93.2 1469.8,194.1 1528,294.9 1644.4,294.9 1702.6,194.1 		"/>
		<polygon class="st1" points="1644.4,93.2 1528,93.2 1469.8,194.1 1528,294.9 1644.4,294.9 1702.6,194.1 		"/>
	</g>
</g>
<circle class="st6" cx="142.2" cy="358.5" r="18.3"/>
<circle class="st2" cx="492.8" cy="295" r="18.3"/>
<circle class="st7" cx="857.3" cy="358.5" r="18.3"/>
<circle class="st4" cx="1221.7" cy="294.9" r="18.3"/>
<circle class="st5" cx="1586.2" cy="365.9" r="18.3"/>
<rect x="139.8" y="388.2" class="st8" width="4.7" height="31.3"/>
<rect x="139.8" y="434.2" class="st8" width="4.7" height="31.3"/>
<rect x="139.8" y="477.5" class="st8" width="4.7" height="31.3"/>
<polygon class="st6" points="160.2,517.4 124.2,517.4 142.2,548.5 "/>
<rect x="490.4" y="326.4" class="st9" width="4.7" height="31.3"/>
<rect x="490.4" y="372.4" class="st9" width="4.7" height="31.3"/>
<rect x="490.4" y="415.8" class="st9" width="4.7" height="31.3"/>
<rect x="490.4" y="459.1" class="st9" width="4.7" height="31.3"/>
<rect x="490.4" y="499.8" class="st9" width="4.7" height="31.3"/>
<polygon class="st2" points="510.8,661.2 474.8,661.2 492.8,692.3 "/>
<rect x="854.9" y="390.5" class="st9" width="4.7" height="31.3"/>
<rect x="854.9" y="436.5" class="st9" width="4.7" height="31.3"/>
<rect x="854.9" y="479.8" class="st9" width="4.7" height="31.3"/>
<polygon class="st7" points="875.2,527.5 839.3,527.5 857.3,558.6 "/>
<rect x="1219.3" y="325.8" class="st8" width="4.7" height="31.3"/>
<rect x="1219.3" y="371.8" class="st8" width="4.7" height="31.3"/>
<polygon class="st4" points="1239.6,417.6 1203.7,417.6 1221.6,448.7 "/>
<rect x="1583.8" y="401.9" class="st9" width="4.7" height="31.3"/>
<rect x="1583.8" y="447.9" class="st9" width="4.7" height="31.3"/>
<rect x="1583.8" y="491.2" class="st9" width="4.7" height="31.3"/>
<rect x="1583.8" y="534.5" class="st9" width="4.7" height="31.3"/>
<rect x="1583.8" y="575.2" class="st9" width="4.7" height="31.3"/>
<polygon class="st5" points="1604.1,614.1 1568.2,614.1 1586.2,645.2 "/>
<text transform="matrix(1 0 0 1 59.8998 581.3631)" class="st0 st10 st11">EMPATHIZE </text>
<text transform="matrix(1 0 0 1 442.0665 719.8437)" class="st2 st12 st11">DEFINE  </text>
<text transform="matrix(1 0 0 1 807.0869 600.8622)" class="st3 st10 st11">IDEATE </text>
<text transform="matrix(1 0 0 1 1150.5952 474.7497)" class="st4 st10 st11">PROTOTYPE </text>
<text transform="matrix(1 0 0 1 1524.4012 672.7834)" class="st13 st10 st11">VALIDATE </text>
<circle class="st8" cx="85.9" cy="599.9" r="6.4"/>
<circle class="st8" cx="85.9" cy="628.1" r="6.4"/>
<g>
	<circle class="st8" cx="461.2" cy="735.8" r="6.4"/>
	<circle class="st8" cx="461.2" cy="764" r="6.4"/>
	<circle class="st8" cx="461.2" cy="792.2" r="6.4"/>
</g>
<g>
	<circle class="st8" cx="830.1" cy="619.3" r="6.4"/>
	<circle class="st8" cx="830.1" cy="647.5" r="6.4"/>
	<circle class="st8" cx="830.1" cy="675.7" r="6.4"/>
	<circle class="st8" cx="830.1" cy="703.9" r="6.4"/>
</g>
<g>
	<circle class="st8" cx="1173.4" cy="496.4" r="6.4"/>
	<circle class="st8" cx="1173.4" cy="524.6" r="6.4"/>
	<circle class="st8" cx="1173.4" cy="552.8" r="6.4"/>
</g>
<g>
	<circle class="st8" cx="1519.4" cy="696.5" r="6.4"/>
	<circle class="st8" cx="1519.4" cy="724.7" r="6.4"/>
	<circle class="st8" cx="1519.4" cy="752.9" r="6.4"/>
	<circle class="st8" cx="1519.4" cy="781.1" r="6.4"/>
</g>
<rect x="1559.4" y="165.5" class="st14" width="53.5" height="53.5"/>
<rect x="1181.3" y="64.2" class="st14" width="76" height="117.4"/>
<rect x="1207.3" y="75.8" class="st14" width="38.5" height="10.8"/>
<rect x="1207.3" y="102.1" class="st14" width="38.5" height="10.8"/>
<rect x="1207.3" y="155.5" class="st14" width="38.5" height="10.8"/>
<rect x="1207.3" y="128.3" class="st14" width="38.5" height="10.8"/>
<rect x="1187.3" y="75" class="st15" width="12.5" height="12.5"/>
<rect x="1187.3" y="101.2" class="st15" width="12.5" height="12.5"/>
<rect x="1187.3" y="127.4" class="st15" width="12.5" height="12.5"/>
<rect x="1187.3" y="155.5" class="st15" width="12.5" height="12.5"/>
<path class="st15" d="M1274.8,179.9L1274.8,179.9c-3.3,0-6-2.7-6-6v-11.7c0-3.3,2.7-6,6-6l0,0c3.3,0,6,2.7,6,6v11.7
	C1280.8,177.2,1278.1,179.9,1274.8,179.9z"/>
<rect x="1268.8" y="86.6" class="st15" width="12" height="75.6"/>
<polygon class="st15" points="1283.3,86.2 1266.2,86.2 1274.8,71.3 "/>
<rect x="1559" y="167" transform="matrix(0.7071 -0.7071 0.7071 0.7071 326.461 1161.9523)" class="st16" width="13.7" height="39.8"/>
<rect x="1559.4" y="165" transform="matrix(0.7071 -0.7071 0.7071 0.7071 347.8734 1185.8436)" class="st17" width="92" height="16"/>
<rect x="835.3" y="223.7" class="st15" width="39.3" height="47.8"/>
<rect x="835.3" y="233.2" class="st17" width="39.3" height="3.7"/>
<rect x="835.3" y="246.5" class="st17" width="39.3" height="3.7"/>
<rect x="835.3" y="259.7" class="st17" width="39.3" height="3.7"/>
<circle class="st15" cx="854.9" cy="185.3" r="38.3"/>
<rect x="852.3" y="113.7" class="st17" width="3.7" height="26.2"/>
<rect x="908.5" y="193.6" transform="matrix(0.4052 -0.9142 0.9142 0.4052 352.4664 955.1846)" class="st17" width="3.7" height="26.2"/>
<rect x="897.3" y="164.9" transform="matrix(0.9211 -0.3894 0.3894 0.9211 6.9245 367.6711)" class="st17" width="26.2" height="3.7"/>
<rect x="874.1" y="133.8" transform="matrix(0.5 -0.866 0.866 0.5 326.1173 836.2078)" class="st17" width="26.2" height="3.7"/>
<rect x="823.8" y="121.2" transform="matrix(0.9055 -0.4243 0.4243 0.9055 21.0241 363.0121)" class="st17" width="3.7" height="26.2"/>
<rect x="799.4" y="147.1" transform="matrix(0.4052 -0.9142 0.9142 0.4052 330.0622 827.7973)" class="st17" width="3.7" height="26.2"/>
<rect x="788.1" y="208.5" transform="matrix(0.9211 -0.3894 0.3894 0.9211 -18.6724 328.5897)" class="st17" width="26.2" height="3.7"/>
<g>
	<g>
		<path class="st17" d="M862.9,221.8c1.2-11.1-2.1-22.5,0.6-33.4c0.4-1.4,0.8-2.8,1.4-4.1c0.2-0.7,0.5-1.3,0.9-1.9
			c0.2-0.7,0.6-0.9,1.3-0.7c1.7-0.1,1.3,0-1.1,0.2c-0.8-0.1-1.5-0.2-2.3-0.3c-1.2-0.3-2.4-0.7-3.4-1.3c-2.6-1.4-4.7-3.6-6.2-6.1
			c-0.6-1.1-1.1-2.3-1.4-3.5c-0.6-2.2-1.4-4.6,1.6-4.2c2.8,0.3,1.6,2,0.2,3.9c-0.9,1.3-2.2,2.3-3.5,3.1c-1.4,0.8-5.9,3.1-7.6,2.7
			c-1,0.5-1.4,0-1-1.5c-0.8-2.2-0.2-2.4,1.7-0.5c2.2,1.4,2.8,2.6,3.6,5c0.8,2.5,1.3,5.2,1.8,7.9c2.3,11.9,2.8,23.9,1.9,36
			c-0.2,1.9,2.8,1.9,3,0c0.8-10.7,0.5-21.5-1.2-32.2c-1-6.2-1.6-18.9-9.5-20.7c-4.5-1.1-9.6,4-5.9,8.1c3.7,4.1,13.9-1.1,17.2-3.9
			c3.2-2.8,6.9-10.5,1.3-13.1c-5.8-2.7-7.5,5.7-6.6,9.6c1.5,6.7,7.1,12.5,13.9,13.7c3.8,0.7,11.7-1.1,8.8-6.7
			c-4-7.8-10.8,5.9-11.6,8.9c-3.2,11.4,0.4,23.3-0.9,34.9C859.7,223.7,862.7,223.7,862.9,221.8L862.9,221.8z"/>
	</g>
</g>
<g>
	<g>
		<path class="st17" d="M648.3,516.3c1.9,0,1.9-3,0-3C646.3,513.3,646.3,516.3,648.3,516.3L648.3,516.3z"/>
	</g>
</g>
<rect x="431.6" y="158.7" transform="matrix(0.7071 -0.7071 0.7071 0.7071 16.5204 372.5676)" class="st16" width="52.8" height="15.3"/>
<rect x="472.1" y="132.1" transform="matrix(0.7071 -0.7071 0.7071 0.7071 46.9764 385.1851)" class="st15" width="32.7" height="7.6"/>
<g>
	<g>
		<path class="st17" d="M165.8,186.8c1.7-14-9.7-28.1-20.9-35.2c-10.4-6.5-22.5-3.4-26.3,8.7c-4.5,14,6,27.8,12.7,39.2
			c4.4,7.6,8.7,15.3,13.3,22.8c3,4.8,6.7,9.2,12.7,9.5c0.6,0,1.3-0.5,1.4-1.1c1.2-5.1,1.6-10.1,1-15.3c-0.2-1.9-3.2-1.9-3,0
			c0.5,5,0.3,9.7-0.9,14.5c0.5-0.4,1-0.7,1.4-1.1c-6.6-0.4-9.9-7.6-12.8-12.6c-3.1-5.3-6.2-10.5-9.2-15.8
			c-5.8-9.9-14.8-21.2-14.8-33.2c0-5.2,2-10.7,6.2-13.9c5.7-4.4,12.8-2,18.1,1.8c9.7,6.9,19.5,19.1,18,31.6
			C162.5,188.7,165.5,188.7,165.8,186.8L165.8,186.8z"/>
	</g>
</g>
<g>
	<g>
		<path class="st17" d="M152.4,189.5c-1.7-5.9-5.3-10.4-10.6-13.5c-0.8-0.4-2-0.1-2.2,0.9c-1.8,11.8,4.5,23.1,15.5,27.7
			c1.8,0.7,2.6-2.2,0.8-2.9c-9.4-3.9-15-14-13.4-24c-0.7,0.3-1.5,0.6-2.2,0.9c4.7,2.7,7.7,6.5,9.2,11.7
			C150.1,192.1,153,191.3,152.4,189.5L152.4,189.5z"/>
	</g>
</g>
<g>
	<g>
		<path class="st17" d="M106.5,150.5c-8.1,4.9-10.5,15.9-4.9,23.6c1.1,1.5,3.7,0,2.6-1.5c-4.7-6.4-3-15.5,3.8-19.5
			C109.7,152.1,108.2,149.5,106.5,150.5L106.5,150.5z"/>
	</g>
</g>
<g>
	<g>
		<path class="st17" d="M106.9,137c-12.2,3-18.1,12.1-20.4,23.9c-2.3,11.7-1.2,22.4,7.4,31.3c1.4,1.4,3.5-0.7,2.1-2.1
			c-7.9-8.1-8.7-17.7-6.7-28.4c2.1-10.8,7.1-19.1,18.3-21.8C109.5,139.5,108.7,136.6,106.9,137L106.9,137z"/>
	</g>
</g>
<g>
	<g>
		<path class="st17" d="M110.8,122.6c-23.4-4.2-37.3,18.9-40.3,39.1c-2.9,19.4,1.5,42.5,22.7,48.9c1.9,0.6,2.6-2.3,0.8-2.9
			c-19.5-5.8-23.2-27.5-20.6-45.2c2.7-18.3,14.9-40.9,36.6-37C111.9,125.9,112.7,123,110.8,122.6L110.8,122.6z"/>
	</g>
</g>
<g>
	<text transform="matrix(1 0 0 1 100.9999 634.4506)" class="st8 st12 st18">Conduct research  </text>
</g>
<g>
	<circle class="st8" cx="830.1" cy="732.4" r="6.4"/>
</g>
<text transform="matrix(1 0 0 1 1184.6042 580.1413)" class="st12 st18"> </text>
<text transform="matrix(1 0 0 1 79.5 599.9)" class="st8 st12 st18">  </text>
<text transform="matrix(1 0 0 1 478.7333 770.4117)" class="st8 st10 st18">Build personas  </text>
<g>
	<text transform="matrix(1 0 0 1 99.8998 607.5906)" class="st8 st12 st18">Conduct interviews</text>
</g>
<text transform="matrix(1 0 0 1 99.8998 630.3906)" class="st12 st18">  </text>
<text transform="matrix(1 0 0 1 477.0662 742.2064)" class="st8 st10 st18">Identify pain points</text>
<text transform="matrix(1 0 0 1 477.0662 765.0063)" class="st12 st18">  </text>
<text transform="matrix(1 0 0 1 478.7333 798.6165)" class="st8 st10 st18">Perform market research</text>
<text transform="matrix(1 0 0 1 478.7333 844.2165)" class="st12 st18">  </text>
<text transform="matrix(1 0 0 1 844.7575 624.3622)" class="st8 st10 st18">Brainstorm solutions  </text>
<text transform="matrix(1 0 0 1 844.7575 652.5896)" class="st8 st10 st18">Prioritize features  </text>
<text transform="matrix(1 0 0 1 844.7577 682.1498)" class="st8 st10 st18">Affinity map  </text>
<text transform="matrix(1 0 0 1 844.7575 708.3622)" class="st8 st10 st18">Create task flows</text>
<text transform="matrix(1 0 0 1 844.7575 731.1621)" class="st12 st18">  </text>
<text transform="matrix(1 0 0 1 843.9245 738.7834)" class="st8 st10 st18">Low fidelity paper sketches  </text>
<text transform="matrix(1 0 0 1 1184.6046 501.3145)" class="st8 st10 st18">Medium fidelity mockups</text>
<text transform="matrix(1 0 0 1 1184.6046 546.9146)" class="st12 st18">  </text>
<text transform="matrix(1 0 0 1 1184.6046 529.3015)" class="st8 st10 st18">High fidelity mockups in Sketch</text>
<text transform="matrix(1 0 0 1 1184.6046 552.1015)" class="st12 st18">  </text>
<text transform="matrix(1 0 0 1 1184.6046 559.1413)" class="st8 st10 st18">Import into Invision   </text>
<text transform="matrix(1 0 0 1 1535.7661 702.7982)" class="st8 st10 st18">User feedback</text>
<text transform="matrix(1 0 0 1 1535.7661 725.5982)" class="st12 st18">  </text>
<text transform="matrix(1 0 0 1 1535.7661 731.0033)" class="st8 st10 st18">Usability tests  </text>
<text transform="matrix(1 0 0 1 1535.7661 759.2084)" class="st8 st10 st18">Reiterate  </text>
<text transform="matrix(1 0 0 1 1534.4329 787.4135)" class="st8 st10 st18">Repeat  </text>
<line class="st19" x1="8.3" y1="237.8" x2="60.3" y2="357.2"/>
<line class="st19" x1="60.3" y1="355.7" x2="101" y2="355.7"/>
<line class="st20" x1="175.6" y1="355.7" x2="216.4" y2="355.7"/>
<line class="st20" x1="269.2" y1="243.4" x2="216.4" y2="355.7"/>
<line class="st20" x1="371.3" y1="244.2" x2="268.8" y2="244.2"/>
<line class="st20" x1="415.5" y1="293.9" x2="371.3" y2="244.2"/>
<line class="st20" x1="452" y1="293.3" x2="414" y2="293.3"/>
<line class="st19" x1="571.6" y1="293.3" x2="533.6" y2="293.3"/>
<line class="st19" x1="570.7" y1="294.2" x2="617.7" y2="247.1"/>
<line class="st19" x1="697.3" y1="247.7" x2="614.9" y2="247.7"/>
<line class="st19" x1="694.5" y1="247.2" x2="776.1" y2="357.8"/>
<line class="st19" x1="812.3" y1="356.5" x2="774.3" y2="356.5"/>
<line class="st20" x1="938.7" y1="358.3" x2="899.9" y2="358.6"/>
<line class="st20" x1="1013.7" y1="244.2" x2="937.2" y2="358.5"/>
<line class="st20" x1="1091.5" y1="244.4" x2="1012.5" y2="244.4"/>
<line class="st20" x1="1090.6" y1="244.2" x2="1133.6" y2="295"/>
<line class="st20" x1="1172.2" y1="294.9" x2="1132.6" y2="294.9"/>
<line class="st20" x1="1666.7" y1="365.9" x2="1627.1" y2="365.9"/>
<line class="st20" x1="1545.4" y1="365.9" x2="1505.8" y2="365.9"/>
<line class="st20" x1="1440.5" y1="294.9" x2="1505.8" y2="365.9"/>
<line class="st20" x1="1261.2" y1="294.9" x2="1442.1" y2="294.9"/>
<rect x="490.5" y="539.8" class="st9" width="4.7" height="31.3"/>
<rect x="490.5" y="580.5" class="st9" width="4.7" height="31.3"/>
<rect x="490.4" y="620.9" class="st9" width="4.7" height="31.3"/>
<circle class="st15" cx="529" cy="94.8" r="38.6"/>
<circle class="st21" cx="529" cy="94.8" r="29.7"/>
</svg>
