<?xml version="1.0" encoding="utf-8"?>
<!-- Generator: Adobe Illustrator 21.1.0, SVG Export Plug-In . SVG Version: 6.00 Build 0)  -->
<svg version="1.1" id="Layer_1" xmlns="http://www.w3.org/2000/svg" xmlns:xlink="http://www.w3.org/1999/xlink" x="0px" y="0px"
	 viewBox="0 0 1920 1080" style="enable-background:new 0 0 1920 1080;" xml:space="preserve">
<style type="text/css">
	.st0{fill:#E0A89D;}
</style>
<g>
	<path class="st0" d="M1517.2,853.3c-7.6,0-11.2-3-13.3-10.7c-3.9-14.7-13.3-26.1-25.1-35.6c-14.3-11.4-30.1-19.6-47.6-24.7
		c-4.2-1.2-11.7-1.3-8.7-9.1c1.8-4.7,3.4-9.3,11.7-9.1c41.6,0.9,83.1,0.3,124.7,0.2c4.9,0,10.8,0.9,11.2-6.8
		c0.4-8.3-5.7-7.4-10.5-6.9c-10,1-12.1-4.4-11-12.5c1.3-9.6-2.7-13.3-12.1-13.2c-17,0.1-34.1-0.5-51.2-0.5
		c-33.3-0.1-33.5-0.2-18.5-29.5c1.6-3.2,2.9-7.7,5-11c3.8-10.1,9.6-19.9,16.7-27.7c1.6-3.4,3.2-6.7,4.8-10.1
		c0.5-1.2,1.6-1.9,2.8-2.3c0.1-6.5,2.4-9.1,9.3-8.3c19,2.2,37.6-3.6,56.6-2.4c3.3,0.2,9.2,1.5,9.4-3c0.3-6.1-5.9-4-9.5-4.1
		c-16.6-0.6-33.2-0.9-49.8-1.1c-8.1-0.1-12.4-1.5-7.4-10.9c5.6-10.4,10.8-21.1,15-32.1c2.8-7.3,5-15.3-7.6-17.3
		c-11-1.8-17.5-5.8-16.3-21c2.4-31.6,1.1-63.6,0.6-95.5c-0.1-10.1,2.9-14.1,13.4-13.9c16.6,0.4,33.2-0.6,49.8-0.8
		c5.4,0,8.8-1.2,8.7-7.6c-0.1-6.3-3.2-7.7-8.7-7.7c-11.5-0.1-23.1-0.6-34.6-1c-8.3-0.2-17.9,1.9-24.5-1.6c-8.3-4.3-2.6-15.1-3.9-23
		c-0.8-4.6-1.8-8.2-7.4-7.9c-4.7,0.3-6,3.6-6.3,7.6c-0.2,2.8-0.1,5.5-0.2,8.3c-0.3,15.7-9.2,22.6-23.7,15.4
		c-6.5-3.2-10.4-2.3-16.1-0.6c-21,6.4-42.2-4.4-48.8-25.1c7.8,10.7,16.7,18.7,28.9,23.5c16.1,6.4,19.7-8.6,28.6-14.7
		c8.9-6.1,10.9-15.7,12.5-25.3c1.6-9.2-1-11.8-10.4-7.2c-17.6,8.6-31.4,3.2-39.8-14.3c-4-8.5-5.6-17.5-6.4-26.8
		c-1.4-15.3,0.3-30.5,1.3-45.7c2.1-33-6.7-62.1-28.9-86.9c-1.6-1.8-4.5-3.4-2.3-7.4c3.1,2.3,6.1,4.3,8.8,6.7
		c31.4,27.8,36.1,63.9,31.5,102.7c-1.5,12-2.5,23.9-1.3,35.9c1,9.3,1.7,19.1,9.8,27.3c20.1-52.3,26.7-103.3-9.6-150
		c-35-45-81.5-66.5-139.9-58.4c32.9-13.3,65-10.9,95.8,4.7c30.1,15.3,51.9,40,70.2,70c2.6-23.6-24.1-55.3-50.9-71.4
		c-52.1-31.3-104-19.3-156.5,3.7c8.7-11.5,20-17.7,32.2-21.8c12-4,24.5-6.8,38.3-10.6c-12.4-2.1-22.8,0.7-33.2,2.5
		c-8.1,1.4-15.9,10.1-24.5,1.1c-29.7,13.5-61.1,23.7-86.5,45.3c-11.5,9.7-14.2,24.3-6.9,37.6c3.4,6.2,2.6,8.8-4.3,10.6
		c-12.5,3.3-19.2-0.5-29.4-18.1c0.9,33.8,19.9,47.9,50.9,38.1c3.1-1,7-5.8,9.8-1.1c12,19.6,30.5,13.3,47.4,12.1
		c8.3-0.6,16.4-2.5,24.6,0.5c10.1,3.7,7.8,14.2,11.3,22.3c9.7-6.9,9-17.9,13.7-26c15.1,7.4,18.3,14.7,13.6,29.6
		c-0.5,1.8-6.5,7,2.2,6c0-0.1,0-0.2,0.1-0.3c5,6.8,2.2,14.7,3,22.1c0.6,4.4-3.4,11.6,4.1,12.5c6.6,0.8,14.6,4,19.9-4.6
		c2.9-4.6,6.7-9.1,11.1-12.1c16.3-11.3,19.8-26.6,15.9-44.9c-3.5-16.2-11.2-29.9-22.6-42c-11.4-12-25.7-19.5-41.5-27.1
		c7-1.4,11.8,0.6,16.6,2.1c42.5,13.4,67.5,52.3,62.5,89.9c-1.7,12.5-7.6,23.9,1.5,36.1c2.4,3.3,0.6,9.8,0.7,14.8
		c9.8-22.9,14.8-46.4,9.8-71.4c-6.4-31.8-22.3-56.2-53.1-69.5c-4-1.7-9-2.6-11.4-7.3c35.8,0.5,65,25.6,77.3,65.5
		c9.1,29.4,4.5,57.5-6.3,85.2c-3.8,9.9-8,19.7-12,29.5c-7.3,18.1-13.9,36.3-7.1,56.3c1.1,3.2,0.2,7.2,0.2,13.9
		c-14-14.6-17.6-29.3-14.9-46c3-18.8,11.6-35.9,16.4-54.2c-5.2,5.9-10.4,11.7-15.5,17.6c-14,16.4-21.7,34.6-19.4,56.8
		c1.7,17,9.6,29.5,25.8,33.9c9.9,2.6,11.3,7.6,10.8,15.7c-0.9,13.8,4.8,25.4,12.3,36.9c1.6-14.1,2.2-28.1,1.4-42.1
		c-0.7-12.2,2.8-17.7,15.6-14.1c5.5,1.6,11,1,16.5,0c18.7-3.4,37.5-3.8,56.5-4c11.2-0.1,14.4,4,14.2,14.6
		c-0.4,30.9-0.1,61.9-0.2,92.8c0,3.3,1.4,7.4-2.6,9.9c-30.8-14-62.7-25.5-91.1-44.1c-2-1.3-3.9-3.2-6-1.2c-2.2,2.2-1.2,5.2-0.9,7.9
		c2.9,26.1,5.6,52.3,8.6,78.4c1,8.9-1.5,12.4-10.7,9.3c-7.8-2.6-16-4.5-23.8-7.3c-12-4.3-19.4-1.4-25.3,10.8
		c-23.7,49-52.3,95.6-72.4,146.4c-3.5,8.8-7.2,9.6-13.1,2.1c-7.4-9.4-14.4-19.3-23-27.6c-17.3-16.8-23.3-35.4-13.4-58.3
		c2.9-6.5,3.3-12.6-7.4-12.4c-5.3,0.1-9.4-3.6-10.4-9.4c-1-5.7,1.8-9.8,6.4-12.7c3.3-2,6.9-3.5,10.7-5.4c-3.5-3.1-5.8-0.7-8.3,0
		c-7.4,2.2-7.7-2.1-4.4-6.3c3.9-5.1,9.8-6.7,16.2-4.1c0.8,0.3,1.7,0.7,2.5,1.1c4.6,2.5,6.6,0.6,7.7-4c5.4-22.9,10.8-45.8,16.2-68.7
		c1.7-7.3-1.8-9.3-8.3-8c-7.5,1.6-14.9,3.8-25,1.2c11.7-15.4,22.5-29.6,35.5-46.8c-6.8,2.8-9.6,4.2-12.6,5.1
		c-29.3,8.6-59.2,13.5-89.7,14.2c-6.8,0.2-9.3,1.5-10.4,8.9c-2.9,20-2.8,40.5-9.6,59.9c-3,8.4,3.2,13.6,9,18.5
		c6.1,5.2,9.5-0.6,12.8-3.6c6.3-5.8,10.6-5.1,15.7,1.8c4.8,6.6,8.3,17.2,16.4,17.9c18.1,1.6,19,12.7,17.9,26.1c-0.4,4.4,2.6,12-5,12
		c-6,0-4-7-4.8-11.3c-0.5-2.8,1.3-7.4-3.6-7.5c-3.6,0-5,3.6-5.5,7c-1,6.8,1.9,19.1-11.5,7.9c-0.6-0.5-3.4,1-4.7,2.1
		c-8.8,7.7-17.6,15.6-29.4,26.1c11.5,0,19,0.2,26.5-0.1c3.7-0.2,8.3-1.4,9.6,2.8c1.4,4.5,4.3,9.6,0.7,14.4c-3,4-6.7,2.7-11.1,1.9
		c-5.5-0.9-13-1.1-16.9,1.9c-7.7,5.9-13.1,4.7-21,0.7c-8.1-4.1-21.1,3.2-23,12.2c-9.2,43.2-21,85.6-33.4,127.9
		c-3.1,10.5-7.8,14.3-18.2,14.3c-76.2-0.3-152.4-0.3-228.6,0c-11.3,0-15.2-3.5-15.4-15.1c-1.2-80.9,10-160.1,29.9-238.3
		c8.5-33.6,8.2-34.8-25-45.7c-8.9-2.9-13.3-1.6-11.9,8.8c1.7,12.7-5.6,12.6-14.3,9.5c-14.2-5.1-24.9-14.5-30.2-28.6
		c-4-10.7-13.3-12.4-21.1-11c-7,1.3-3.2,10.2-2.7,15.7c3.9,42.2,9.3,84.4,10,126.9c0,3.2,2,7.4-2.4,9.7c-1-0.6-2-0.9-2.4-1.6
		c-33.1-55.7-62.2-113.2-76.1-177.1c-2-8.9-6-13.4-14.5-16c-17.3-5.2-34.9-8.6-52.5-12.2c-28.3-5.9-27.9-6-31.8-34.8
		c-1.1-8.6,1.9-8.5,8.1-6.5c10.2,3.3,20.6,5.6,31.4,4.1c0.1-3.5-5.6-3.4-2.8-7.2c27.4,5.3,54.1-4.1,66.7-24.2
		c-11,1-19.9,2.3-29.7-6.1c-7-2.1-12.3-7.4-15.9-14.3c-2.9-3.2-5.5-6.7-7.4-11c-6.8-15.3-8.2-31.1-5.6-47.1c0.2-3.8,0.9-7.5,2.2-11
		c6.1-28.1,10.6-56.3,8.4-85.4c-2.3-30-15.1-43.4-44.6-45.5c-0.4,0-0.8-1.2-1.6-2.6c10-3,19.2-1.9,28.5,1.7
		c9.1,3.5,13.4,12.7,23.3,19.9c-5-20.7-11.6-37.4-25.9-49.3c-17.5-14.7-34-3.6-52.4,6c11.8-13.7,26.1-15.4,40.7-18.4
		c-9.7-11.2-20-18.5-32.3-23.4c-10.7-4.3-17.8-0.5-23.7,8c-3,4.4-4.2,9.6-5.3,15.9c-3.9-9,3-14.9,3.9-25.6
		c-12.9,14.6-22.6,3.7-35.4-1.8c5.8,8.6,10.2,15.1,14.5,21.5c-12.5-9-19.8-23.8-36.6-26.4c-13.8-2.1-31.5,4.8-40.9,16.8
		c13.5-1.8,26.7-4.9,41.2,3.6c-5.1-0.4-7.8-0.8-10.5-0.8c-21.7-0.2-43.9,1.2-57.7,20.2c-20.6,28.3-31.9,60.2-27.7,96.1
		c1.9,16.5,4,32.9,6.1,49.4c1.3,10.8-3.4,15.4-14.1,15c-13.8-0.5-27.7-1.7-41.4-1c-38.8,2-77.5,0.9-116.3,0.6v16.6
		c37.3-2.3,74.7-0.7,112.1-0.7c13.3,0,17.2,15.9,29.7,18.7C325,362,320.7,360.8,295.5,338c3.8,30.4,17.8,46,46.1,52.4
		c3.8,0.9,12.9-2.1,9,8.7c-0.6,1.7,5.5,1,8.4,0.3c20.7-5.2,33-19.3,39.8-38.8c8.6-24.7,6.8-50,4.6-75.4c-2-22.6-4.6-45.2,1.3-67.5
		c6.7-25.4,21.1-45.1,44.8-57c27.2-13.6,59.3-3.1,73.2,23.7c-5.1,0.5-6.9-4-9.9-6.3c-25.5-19.2-52.4-17.3-74.5,5.9
		c-13.8,14.6-21.5,32.2-22.5,52.3c-0.8,17.1-0.2,34.2,1.5,51.2c2.4,24.1,2.1,47.9-5.8,71.2c-11.7,34.2-33.1,47.9-69.2,46.4
		c-11.8-0.5-23.5-0.5-37.3-6.1c18.6,25.5,39.7,39.5,72.5,33.6c-7.1,11.8-16.1,14-24.8,16.8c9.2,7.2,24,8.6,41,2.3
		c13.6-5,26.7-11.6,43.5-19c-4.8,5.6-7.1,8.2-10.9,12.6c8.2-2.1,14.6-3,20.5-5.3c9.2-3.5,12.1,0,13.6,8.8c5.3,32.1,5.5,32-24.9,43.9
		c-34.1,13.4-65.1,32.5-96.4,51.2c-8.1,4.8-5.8,11.8-5,18.4c3,24.3,7.7,48.3,14.8,71.7c2.7,8.8,0.6,11.6-8.5,11.3
		c-24.7-0.8-48.9,6.4-73.6,6c0.1,8.2,0.2,16.4,0,24.6c8.4-10.6,17.6-13.2,34.8-9.7c15.7,3.1,31.1,2.4,46.6,2.5
		c8.4,0,13.1,2,16.4,10.7c10.6,28.1,24.5,54.8,41.8,79.4c4.9,7,5.2,10.2-4.1,13.2c-17.6,5.8-34.3,13.9-47.8,27
		c-5.9,5.7-12.9,4-19.6,4.2c-10.2,0.3-20.3,0.3-30.5,0.4c-2.4,0.1-5.1,0.2-5.4,3.1c-0.5,4,2.7,4.2,5.5,4.2
		c8.3,0.1,16.6,0.3,24.9-0.1c9.6-0.4,14.9,1.2,8,11.9c-2.2,3.4-4.2,7.8-4,11.6c1,17.6-8.5,19.7-23.3,19.3
		c-37.8-1.2-75.6-0.8-113.5-1v74.8c44.2,0,88.3,1.3,132.4-0.6c20.3-0.8,33.1,6,42.2,22.8h404.6c-0.1-0.4-0.3-0.9-0.4-1.3
		c-2-7.1-13.5-12.1-9.9-18.1c3.7-6.2,14.4-2.4,21.9-2.4c72.2-0.2,144.4-0.1,216.6-0.1c22.9-0.1,22.9-0.1,15.6,21.9h130.3
		c8.8-45.9,17.6-91.8,27.2-142c19.4,21.1,36,38.9,52.2,56.9c3.3,3.6,2,8.9,1.3,13.4c-3.7,23.8-2.1,47.8-3.1,71.7h11.1
		c1-8.6,6.2-13.8,14.5-13.5c7.6,0.2,12.4,5.5,13.2,13.5h210.6c7.7-20.9,23.7-23,43.7-22.4c47.3,1.3,94.7,0.3,142,0.2v-74.8
		C1614.2,852.8,1565.7,853,1517.2,853.3z M1303.5,267.7c-1.3,6-2.3,12.5-8.6,15.8c7.6-39.8-9.7-60.8-51.1-62.8
		c-28.7-0.9-30.5-1.3-41.9-9.6c9.6-4.7,20.9-4.3,29.1-0.5c11.4,5.3,22.6,1.4,33.6,4.1C1288.7,220.6,1308,246.3,1303.5,267.7z
		 M390.4,258.7c9,31.1,0.3,58.1-22.4,80.8c-5.2,5.2-10.8,10-21.6,11c32.8-21.1,45.6-52.5,37.2-88.4c-5.1-22.1-10.6-44-0.3-66.2
		c6.3-13.5,14.5-25.1,28.9-31.7C382.1,190.7,380,223,390.4,258.7z M295.4,919.7c-23.9,0.1-47.9-0.1-71.8-0.4c-1,0-1.9-1.6-2.8-2.5
		c1.3-5.6,7.6,1.2,8.5-3.8c1.1-5.9-4.1-3.1-6.4-4.4c-3.9-2.2-2.3-6-1.5-8.7c1.8-6.5,6.9-4,11.2-3.4c1.8,5.7-5.1,2.4-5.5,5.9
		c1.5,3,6.2,2.7,6.8,2c13.5-16.1,31.5-4.6,47.1-6.9c5.3-0.8,13.8-5.8,20,0.7c0.5,4.4,1.2,8.8,1.5,13.3
		C302.9,916.5,300.4,919.7,295.4,919.7z M344.4,917.4c-0.8,0-1.6,0.1-2.6-0.1c-2.7,0.6-5.3,1.4-8,1.7c-4.4,0.6-10.3,2.8-12.8-1.3
		c-3.2-5.3,3.7-7.1,6.4-10.3c1.4-1.6,1.8-3,1-4.9c-11.1-0.5-17.1,5.7-19.5,16.9c-6.8-6.8,8.6-19.4-7.1-21.2
		c9.6-5.5,19.9-0.4,29.8-1.1c2.3-0.1,4.8,1.8,7.6,0.3c5.6-2.9,10.5-1.5,11.7,4.6C352.1,908,355.1,915.9,344.4,917.4z M501.2,426.5
		c-4.9-2.9-11.9-1.1-17.6,1.1c-9.8,3.8-12.9-0.5-14.3-9.8c-1.4-9.6,0.5-20.1-6.4-32.1c-7.8,18.3-19.8,29.9-34.4,39
		c-16.6,0.3-24.4,17.2-39.3,21c0.2-4.3,3.7-5.2,6-7c41.8-32.8,56.8-75.3,47.6-127.3c-4.3-24.3-10.7-48.7-3.5-73.7
		c-1.7,30,8.8,58.2,12.7,87.4c4.3,32.4-3.9,61.1-22.5,87.3c-2.8,4-7.7,7.6-0.9,12.2c-0.9-2.9,0.4-5.1,2.7-7.1
		c27.8-24.2,32.1-55.9,27.4-89.8c-2.6-18.2-7.9-36-10.9-54.2c-3.3-20.3-3.2-40.6,6.6-59.5c12-23.1,36.2-28.9,58.1-14
		c-0.5,0.5-1.1,1.5-1.5,1.4c-33.3-8.1-50.8,4.6-53.8,39.2c-2,22.5,3.1,43.8,9.7,65.5c4.4-8.7-6.9-26.3,15.8-23.7
		c-14.3-2.4-14.2-10.7-11.9-21.5c7-33.6,24.8-44.3,58.5-33.7c6.8,2.2,12.4,2.8,19.5-0.3c20.2-8.9,47.2,2.5,44.6,30.7
		c-2.3,24.3-1.7,48.9-2.7,73.3c-0.6,15.1-5.2,28.8-14,41.3c-10.2,14.4-21.2,28-33.2,40.8C531.8,425.4,520.9,438,501.2,426.5z
		 M751.1,849.8c-1.1,4.1-5.2,2.7-8.2,3.1c-10.6,1.3-18.3-1-22.6-12.6c-5.2-14.1-15.2-25.9-27.6-33.7c-16-10-23.6-24.8-30.4-41.1
		c-7-16.9-11.6-34.5-15-52.4c27.1,48.6,58.8,92.9,99.7,130.1C748.9,845,752,846.7,751.1,849.8z M1301.3,719.9
		c-9.1-0.9-12.7-7.7-12.1-15.5c0.7-9.4,6.2-16.8,16.4-17.3c9.2-0.4,12.1,6.7,12.9,14.1C1318.4,711.2,1309.5,720.8,1301.3,719.9z"/>
	<path d="M1663,331.4c-34.9-0.3-69.9-0.7-104.8-1c-4.1,0-8.3,0-12.4-0.2c-4.4-0.2-6.6-2.7-6.6-7.2c0-4.4,2.2-7.1,6.5-7.3
		c7.8-0.4,15.6-0.4,23.4-0.4c31.3-0.2,62.6-0.3,93.8-0.5C1663,320.3,1663,325.8,1663,331.4z"/>
	<path d="M967.6,315.2c62.8,0,125.6-0.1,188.4,0.2c5.6,0,14.8-3.3,14.5,7.2c-0.2,9.1-8.3,8.3-14.8,8.3
		c-125.2-0.2-250.3-0.4-375.5-0.6c-4.1,0-8.5,0.7-11.7-2.7c-2.3-2.4-4.2-5.3-3.2-8.7c0.9-3.1,4.1-3.4,6.9-3.5
		c3.7-0.1,7.4-0.2,11.1-0.2C844.8,315.2,906.2,315.2,967.6,315.2z"/>
	<path d="M1031.3,520.3c-10.1,14.6-20.3,24.4-38.1,21.2c-7.1-1.3-15.5-1.2-17.5,8.9c-2.2,10.4,4.1,15.2,12.7,18.3
		c2.1,0.8,4.1,1.8,10.4,4.7c-3.8,1.3-5.8,1.6-7.4,2.5c-11.4,6.8-14.4,15.8-7.2,27.6c4.4,7.3,2.6,10.9-6.5,10.4
		c-12-0.7-24-0.7-36-1.1c-8.9-0.3-13.3-4.3-12.7-13.9c1.4-23.9,2.3-47.9,3.1-71.9c0.3-9,5-12.1,13.4-11.6
		C973.5,517.1,1001.6,518.6,1031.3,520.3z"/>
	<path d="M1593,528.3c0,41.5,0,83,0,124.6c0,3.7,0,7.4-0.1,11.1c-0.1,3.2-0.2,7-4.6,7.2c-5.4,0.3-5.3-4.1-5.6-7.8
		c-0.2-2.8-0.1-5.5-0.1-8.3c0-84.4,0-168.8,0-253.3c0-2.8,0-5.5,0.1-8.3c0.1-3.3,0.3-7,4.6-7.2c5.4-0.3,5.4,3.9,5.4,7.7
		c0.1,24.5,0.1,48.9,0.1,73.4c0,20.3,0,40.6,0,60.9C1592.9,528.3,1592.9,528.3,1593,528.3z"/>
	<path d="M689.3,315.3c-19.9,0.1-39.7-0.1-59.6,0c-3.3,0-6.8,0.1-9.7-0.5c0,5.5,0.3,10.9,1.1,16.3c0.9-0.1,1.8-0.1,2.8-0.1
		c21.7,0.3,43.4,0.1,65.1,0c4.9-0.1,10.7,0.9,11.1-6.9C700.4,316.1,695.5,315.3,689.3,315.3z"/>
	<path d="M1497.7,309.4c-14.7,0-29.5,0.1-44.2-0.1c-2.8,0-7.3,1.1-7.3-3.8c0-3.2,2.8-4.5,5.9-4.5c31.3,0.1,62.7,0.2,94,0.4
		c2.4,0,5,1,4.9,3.7c-0.1,3.7-3.5,3.8-6.2,3.8c-15.7,0.1-31.3,0-47,0C1497.7,309.1,1497.7,309.3,1497.7,309.4z"/>
	<path d="M1499.5,295.5c-14.3,0-28.5,0.1-42.8-0.1c-3.3,0-8.5,1.3-8.4-4.2c0-4,4.4-4.2,7.6-4.2c29.5,0.1,58.9,0.3,88.4,0.5
		c2.7,0,6.3-0.1,6.5,3.5c0.3,5-4.2,4-7.1,4.1c-14.7,0.2-29.5,0.1-44.2,0.1C1499.5,295.3,1499.5,295.4,1499.5,295.5z"/>
	<path d="M1206.2,297.1c13.1-11.6,26.3-4.1,39.6,0C1232.5,297.1,1219.3,297.1,1206.2,297.1z"/>
	<path d="M725.7,324.3c0.2,2.8,0.5,6-3.7,5.7c-4.7-0.3-7.3-3.6-8-8c-0.7-3.9,1.4-6.1,5.3-6.2C725.2,315.7,725.3,320.1,725.7,324.3z"
		/>
	<path d="M1190,401.1c8.1-6.3,18.7-6.7,26.7-12.8C1210.1,397.1,1202.3,403.9,1190,401.1z"/>
	<path d="M750.1,330.4c-7.1-2.4-10.2-6-9.3-11.8c0.4-2.6,3.3-3.6,5.6-2.5C752.4,319,750.2,324.4,750.1,330.4z"/>
	<path d="M342,917.5c-4-0.9-7.9-1.7-12.1-2.7c1.9-7.5,8.7-9.1,14.1-13.1c-4,5.6,6.1,10,0.5,15.6C343.6,917.4,342.8,917.5,342,917.5z
		"/>
	<path d="M493.1,377.4c26.6,15,32.9,14,50.8-6.1c-3.9,12.2-12,21-21.8,22.2C510.4,395,502.1,388.9,493.1,377.4z"/>
	<path d="M543.9,290.1c13.1-11.6,26.3-4.1,39.6,0C570.2,290.1,557.1,290.1,543.9,290.1z"/>
	<path d="M478.9,293.2c13.1-11.6,26.3-4.1,39.6,0C505.3,293.2,492.1,293.2,478.9,293.2z"/>
	<path d="M843,484.4c-10.1,14.6-20.3,24.4-38.1,21.2c-7.1-1.3-15.5-1.2-17.5,8.9c-2.2,10.4,4.1,15.2,12.7,18.3
		c2.1,0.8,4.1,1.8,10.4,4.7c-3.8,1.3-5.8,1.6-7.4,2.5c-11.4,6.8-14.4,15.8-7.2,27.6c4.4,7.3,2.6,10.9-6.5,10.4
		c-12-0.7-24-0.7-36-1.1c-8.9-0.3-13.3-4.3-12.7-13.9c1.4-23.9,2.3-47.9,3.1-71.9c0.3-9,5-12.1,13.4-11.6
		C785.2,481.1,813.3,482.7,843,484.4z"/>
	<path d="M750.6,484.4c9.6,14.6,19.4,24.4,36.5,21.2c6.8-1.3,14.8-1.2,16.8,8.9c2.1,10.4-3.9,15.2-12.1,18.3c-2,0.8-3.9,1.8-10,4.7
		c3.7,1.3,5.6,1.6,7.1,2.5c10.9,6.8,13.7,15.8,6.8,27.6c-4.2,7.3-2.5,10.9,6.3,10.4c11.5-0.7,22.9-0.7,34.4-1.1
		c8.5-0.3,12.7-4.3,12.2-13.9c-1.3-23.9-2.2-47.9-3-71.9c-0.3-9-4.7-12.1-12.8-11.6C805.8,481.1,779,482.7,750.6,484.4z"/>
	<rect x="765.1" y="492.3" width="59.4" height="72.4"/>
</g>
<rect x="210" y="876.7" class="st0" width="172" height="50"/>
<path class="st0" d="M239.1,697.3c-3.8,28.9,10.5,56.2,20.3,70.1c8.5,12,19.4,22.2,27.9,34.3c12,17,18.9,37.5,19.7,58.3
	c4.3,0,8.7,0,13,0c-0.7-13.1-2.2-26.5-7.8-38.3c-6.1-12.9-16.5-23.1-25.3-34.3c-13.7-17.4-36.6-48.6-32.5-77.7
	c3.9-28,29.9-45.1,22.9-54.7c-3-4.1-9.6-3.6-10.3-3.5C252.2,652.6,241.6,678.3,239.1,697.3z"/>
<rect x="1230.6" y="926.1" class="st0" width="49.5" height="24"/>
<path class="st0" d="M1121.8,609.8c4.3,8.2,10.8,15.1,17.2,21.8c7.7,8.1,15.5,16.3,24.8,22.6c9.3,6.3,20.3,10.6,31.5,10.1
	c6.3-0.3,10.5-5.7,11.8-4.4c1.6,1.7-4.2,10.1-5,9.7c-2-1,34.1-62.3,21-73.5c-3-2.6-5.7,0-17.5-0.1c-19.4-0.2-19.7-11.7-42.7-9.9
	c-10.9,0.9-26.8-3.1-36.6-1.1c-8.7,1.8-5.5-4.6-9,5.9C1115.6,596.1,1119.5,605.4,1121.8,609.8z"/>
<path class="st0" d="M1096.7,723.5c4.9,9.5,17.2,12.2,27.9,12.5c6.5,0.2,13.3-0.2,19.2-3c5.6-2.6,10.1-7.1,14.1-11.8
	c7-8,13.1-16.7,18.2-26c2.1-3.7,4-7.5,4.7-11.7c1.6-9.1-7.8-34.6-18.5-37c-10.1-2.3-22.2,14.1-29.3,20.7
	C1119.6,679.9,1085.6,701.9,1096.7,723.5z"/>
<path class="st0" d="M1242.9,553.1c-1.9,10-3.7,20-5.6,30c-6.5,34.7-13,69.7-26.7,102.3c-3.3,7.9-7,15.5-11.1,23
	c-4.5-6-4.7-14.1-4.8-21.6c-0.1-13.1-0.2-26.2-0.3-39.2c-0.1-15.4-0.1-30.9,3.2-45.9c1.8-8.1,4.5-16,7.3-23.9
	c3.4-9.6,6.4-31.3,15.4-37.7C1231.5,532.2,1245.3,539.6,1242.9,553.1z"/>
<path d="M285.6,315.4c-52.9,0.1-105.6-0.1-158.6,0c-8.9,0-18,0.1-25.9-0.5c0,5.5,0.8,10.9,2.8,16.3c2.3-0.1,4.7-0.1,7.4-0.1
	c57.7,0.3,115.5,0.1,173.2,0c13-0.1,28.5,0.9,29.5-6.9C315.1,316.2,302.1,315.4,285.6,315.4z"/>
</svg>
