<?xml version="1.0" encoding="utf-8"?>
<!-- Generator: Adobe Illustrator 21.1.0, SVG Export Plug-In . SVG Version: 6.00 Build 0)  -->
<svg version="1.1" id="Layer_1" xmlns="http://www.w3.org/2000/svg" xmlns:xlink="http://www.w3.org/1999/xlink" x="0px" y="0px"
	 viewBox="0 0 2041 1397.9" style="enable-background:new 0 0 2041 1397.9;" xml:space="preserve">
<style type="text/css">
	.st0{fill:none;stroke:#0C3A66;stroke-width:6;stroke-miterlimit:10;}
	.st1{fill:#0C3A66;}
	.st2{font-family:'OpenSans';}
	.st3{font-size:34px;}
	.st4{font-size:26px;}
	.st5{fill:none;stroke:#0C3A66;stroke-width:4;stroke-miterlimit:10;}
	.st6{font-size:27px;}
</style>
<rect x="67.5" y="114.6" class="st0" width="303.2" height="407.9"/>
<line class="st0" x1="297.7" y1="114.6" x2="299.3" y2="522.6"/>
<text transform="matrix(1 0 0 1 83.3809 167.0099)" class="st1 st2 st3">Profile</text>
<text transform="matrix(1 0 0 1 83.3809 248.6099)" class="st1 st2 st3">Discover</text>
<text transform="matrix(1 0 0 1 83.3809 289.4099)" class="st1 st2 st3"> </text>
<text transform="matrix(1 0 0 1 83.3809 330.2099)" class="st1 st2 st3">Calender </text>
<text transform="matrix(1 0 0 1 83.3809 411.8099)" class="st1 st2 st3">Messages</text>
<text transform="matrix(1 0 0 1 83.3809 493.4099)" class="st1 st2 st3">Settings</text>
<text transform="matrix(1 0 0 1 107.1903 86.0476)" class="st1 st2 st4">Navigation Bar</text>
<circle class="st5" cx="265.8" cy="150.8" r="7.8"/>
<circle class="st5" cx="265.8" cy="234.4" r="7.8"/>
<circle class="st5" cx="265.8" cy="318.7" r="7.8"/>
<circle class="st5" cx="265.8" cy="403" r="7.8"/>
<circle class="st5" cx="265.8" cy="487.4" r="7.8"/>
<line class="st0" x1="273.5" y1="150.8" x2="1548.1" y2="150.8"/>
<rect x="1548.1" y="94.6" class="st0" width="324" height="340.2"/>
<text transform="matrix(1 0 0 1 1661.1519 71.0645)" class="st1 st2 st4">Profile</text>
<text transform="matrix(1 0 0 1 1571.3433 143.0002)" class="st1 st2 st6">Profile picture</text>
<text transform="matrix(1 0 0 1 1571.3433 175.4002)" class="st1 st2 st6">Name</text>
<text transform="matrix(1 0 0 1 1571.3433 207.8002)" class="st1 st2 st6">Description</text>
<text transform="matrix(1 0 0 1 1571.3433 240.2002)" class="st1 st2 st6">Portfolio image</text>
<text transform="matrix(1 0 0 1 1571.3433 272.6002)" class="st1 st2 st6">Slider-&gt;next page</text>
<text transform="matrix(1 0 0 1 1571.3433 305.0002)" class="st1 st2 st6">Upload references</text>
<text transform="matrix(1 0 0 1 1571.3433 337.4002)" class="st1 st2 st6">Upload portfolio</text>
<text transform="matrix(1 0 0 1 1571.3433 369.8002)" class="st1 st2 st6">Upload calender</text>
<text transform="matrix(1 0 0 1 1571.3433 402.2002)" class="st1 st2 st6">availiability</text>
<line class="st0" x1="273.5" y1="234.4" x2="546.1" y2="234.4"/>
<rect x="621.1" y="242.2" class="st0" width="376.5" height="232.5"/>
<text transform="matrix(1 0 0 1 634.8553 284.6525)" class="st1 st2 st6">Nav bar</text>
<text transform="matrix(1 0 0 1 634.8553 317.0525)" class="st1 st2 st6">Person</text>
<text transform="matrix(1 0 0 1 634.8553 349.4525)" class="st1 st2 st6">Description</text>
<text transform="matrix(1 0 0 1 634.8553 381.8525)" class="st1 st2 st6">Age</text>
<text transform="matrix(1 0 0 1 634.8553 414.2525)" class="st1 st2 st6">Location</text>
<text transform="matrix(1 0 0 1 634.8553 446.6525)" class="st1 st2 st6">Click to view more</text>
<line class="st0" x1="786.1" y1="474.6" x2="786.1" y2="573.1"/>
<line class="st0" x1="1072.6" y1="571" x2="783.2" y2="571"/>
<line class="st0" x1="546.1" y1="231.5" x2="546.1" y2="273.9"/>
<line class="st0" x1="621.4" y1="271" x2="545.8" y2="271"/>
<text transform="matrix(1 0 0 1 720.6902 216.5502)" class="st1 st2 st4">Discover</text>
<rect x="1072.6" y="487.4" class="st0" width="391.7" height="249.8"/>
<text transform="matrix(1 0 0 1 1158.6816 462.0476)" class="st1 st2 st4">Model Profile</text>
<text transform="matrix(1 0 0 1 1093.8459 523.8649)" class="st1 st2 st6">Back bar</text>
<text transform="matrix(1 0 0 1 1093.8459 556.2649)" class="st1 st2 st6">Send chat</text>
<text transform="matrix(1 0 0 1 1093.8459 588.6649)" class="st1 st2 st6">Dimensions</text>
<text transform="matrix(1 0 0 1 1093.8459 621.0649)" class="st1 st2 st6">Portfolio images</text>
<text transform="matrix(1 0 0 1 1093.8459 653.465)" class="st1 st2 st6">References</text>
<text transform="matrix(1 0 0 1 1093.8459 685.8649)" class="st1 st2 st6">Portfolio</text>
<text transform="matrix(1 0 0 1 1093.8459 718.2649)" class="st1 st2 st6">Calender Availiability</text>
<line class="st0" x1="273.5" y1="318.7" x2="420.8" y2="318.6"/>
<line class="st0" x1="423.1" y1="696.1" x2="421.8" y2="315.6"/>
<g>
	<rect x="53" y="697.4" class="st0" width="410" height="191.7"/>
	<text transform="matrix(1 0 0 1 72.3068 737.1374)" class="st1 st2 st6">Nav bar</text>
	<text transform="matrix(1 0 0 1 72.3068 769.5374)" class="st1 st2 st6">Date (month, year)</text>
	<text transform="matrix(1 0 0 1 72.3068 801.9374)" class="st1 st2 st6">Add new event</text>
	<text transform="matrix(1 0 0 1 72.3068 834.3374)" class="st1 st2 st6">Days of week </text>
	<text transform="matrix(1 0 0 1 72.3068 866.7374)" class="st1 st2 st6">Appointments</text>
</g>
<text transform="matrix(1 0 0 1 117.6902 668.5503)" class="st1 st2 st4">Existing Calender</text>
<circle class="st5" cx="432.4" cy="793.2" r="7.8"/>
<line class="st0" x1="432.4" y1="801" x2="432.4" y2="983.3"/>
<rect x="72.3" y="983.3" class="st0" width="431" height="314.4"/>
<text transform="matrix(1 0 0 1 117.6903 957.0472)" class="st1 st2 st4">New Calender Event</text>
<text transform="matrix(1 0 0 1 91.8652 1015.8493)" class="st1 st2 st6">Exit new event</text>
<text transform="matrix(1 0 0 1 91.8652 1048.2493)" class="st1 st2 st6">Save event</text>
<text transform="matrix(1 0 0 1 91.8652 1080.6493)" class="st1 st2 st6">Title</text>
<text transform="matrix(1 0 0 1 91.8652 1113.0493)" class="st1 st2 st6">Location</text>
<text transform="matrix(1 0 0 1 91.8652 1145.4493)" class="st1 st2 st6">Sync with other calender</text>
<text transform="matrix(1 0 0 1 91.8652 1177.8494)" class="st1 st2 st6">Add person </text>
<text transform="matrix(1 0 0 1 91.8652 1210.2493)" class="st1 st2 st6">Time</text>
<text transform="matrix(1 0 0 1 91.8652 1242.6493)" class="st1 st2 st6">Date</text>
<text transform="matrix(1 0 0 1 91.8652 1275.0493)" class="st1 st2 st6">Notes</text>
<line class="st0" x1="273.5" y1="487.4" x2="603.1" y2="487.4"/>
<line class="st0" x1="603.3" y1="716.3" x2="602.9" y2="484.3"/>
<rect x="546.5" y="713.3" class="st0" width="413.5" height="276.7"/>
<text transform="matrix(1 0 0 1 667.9146 689.8878)" class="st1 st2 st4">Settings</text>
<text transform="matrix(1 0 0 1 570.3428 747.3542)" class="st1 st2 st6">Nav bar</text>
<text transform="matrix(1 0 0 1 570.3428 779.7542)" class="st1 st2 st6">Add new profile picture</text>
<text transform="matrix(1 0 0 1 570.3428 812.1542)" class="st1 st2 st6">Edit email</text>
<text transform="matrix(1 0 0 1 570.3428 844.5542)" class="st1 st2 st6">Edit password</text>
<text transform="matrix(1 0 0 1 570.3428 876.9542)" class="st1 st2 st6">Edit phone number</text>
<text transform="matrix(1 0 0 1 570.3428 909.3542)" class="st1 st2 st6">Edit location</text>
<text transform="matrix(1 0 0 1 570.3428 941.7542)" class="st1 st2 st6">Connent Twitter</text>
<text transform="matrix(1 0 0 1 570.3428 974.1542)" class="st1 st2 st6">Logout</text>
<line class="st0" x1="273.5" y1="403" x2="545.8" y2="403"/>
<line class="st0" x1="545.8" y1="643.8" x2="545.8" y2="400"/>
<line class="st0" x1="1017.1" y1="639.1" x2="545.8" y2="640.6"/>
<line class="st0" x1="1018.6" y1="924.1" x2="1017.1" y2="635.5"/>
<rect x="984.8" y="924.3" class="st0" width="440.6" height="276.7"/>
<text transform="matrix(1 0 0 1 1120.6816 892.1317)" class="st1 st2 st4">Messages</text>
<line class="st0" x1="1425.3" y1="1062.7" x2="1548.1" y2="1062.6"/>
<rect x="1548.1" y="924.3" class="st0" width="451.8" height="276.7"/>
<text transform="matrix(1 0 0 1 1612.5381 892.1313)" class="st1 st2 st4">Create New Message</text>
<text transform="matrix(1 0 0 1 999.8461 972.8649)" class="st1 st2 st6">Nav bar</text>
<text transform="matrix(1 0 0 1 999.8461 1005.2649)" class="st1 st2 st6">Information</text>
<text transform="matrix(1 0 0 1 999.8461 1037.6649)" class="st1 st2 st6">Text message content</text>
<text transform="matrix(1 0 0 1 999.8461 1070.0649)" class="st1 st2 st6">Profile pictures</text>
<text transform="matrix(1 0 0 1 999.8461 1102.465)" class="st1 st2 st6">Sync with calender button </text>
<text transform="matrix(1 0 0 1 999.8461 1134.865)" class="st1 st2 st6">Send button</text>
<text transform="matrix(1 0 0 1 999.8461 1167.2649)" class="st1 st2 st6">Like button </text>
<text transform="matrix(1 0 0 1 1571.3436 972.8646)" class="st1 st2 st6">Nav bar</text>
<text transform="matrix(1 0 0 1 1571.3436 1005.2646)" class="st1 st2 st6">Contact</text>
<text transform="matrix(1 0 0 1 1571.3436 1037.6647)" class="st1 st2 st6">Add more contacts</text>
<text transform="matrix(1 0 0 1 1571.3436 1070.0646)" class="st1 st2 st6">Sync with calender button</text>
<text transform="matrix(1 0 0 1 1571.3436 1102.4646)" class="st1 st2 st6">Send button</text>
<text transform="matrix(1 0 0 1 1571.3436 1134.8646)" class="st1 st2 st6">Like button </text>
</svg>
