<?xml version="1.0" encoding="utf-8"?>
<!-- Generator: Adobe Illustrator 21.1.0, SVG Export Plug-In . SVG Version: 6.00 Build 0)  -->
<svg version="1.1" id="Layer_1" xmlns="http://www.w3.org/2000/svg" xmlns:xlink="http://www.w3.org/1999/xlink" x="0px" y="0px"
	 viewBox="0 0 114 60" style="enable-background:new 0 0 114 60;" xml:space="preserve">
<style type="text/css">
	.st0{fill:#FFFFFF;fill-opacity:0;}
	.st1{fill-opacity:0.9;}
</style>
<title>logo/logo—Lily</title>
<desc>Created with Sketch.</desc>
<g id="Index_x2014_B-1.3">
	<g id="img_x2F_Index_x2014_B-2048px" transform="translate(-384.000000, -1160.000000)">
		<g id="Group" transform="translate(384.000000, 1160.000000)">
			<g id="logo_x2F_logo_x2014_Lily">
				<g id="btn_x2014_logo-320px">
					<g id="btn_x2014_blue-invite">
						<polygon id="bg_x2014_Header-white" class="st0" points="0.5,0 160.5,0 160.5,60 0.5,60 						"/>
					</g>
				</g>
				<path id="logo_x2014_Lily" class="st1" d="M43.7,22.7h3.5v12.4h8v3.1H43.7L43.7,22.7L43.7,22.7L43.7,22.7L43.7,22.7L43.7,22.7z
					 M66.7,22.7h3.5v15.5h-3.5V22.7L66.7,22.7L66.7,22.7L66.7,22.7z M81.8,22.7h3.5v12.4h8v3.1H81.8L81.8,22.7L81.8,22.7L81.8,22.7
					L81.8,22.7L81.8,22.7z M104.8,32.1l-6.1-9.4h4.1l3.8,6.2l3.9-6.2h4l-6.1,9.3v6.2h-3.5L104.8,32.1L104.8,32.1L104.8,32.1z
					 M0.5,15h31.6v31H0.5V15L0.5,15z M9.7,31.3c-1.4,0-2.8,0.6-3.8,1.6c-0.4,0.4-0.3,1,0.2,1.3c0.3,0.2,0.8,0.1,1.1-0.2
					c1-1,2.5-1.3,4-0.7c0.4,0.2,0.8,0.5,1.1,0.8c0.2,0.2,0.4,0.3,0.6,0.3c0.3,0,0.5-0.1,0.7-0.4c0.2-0.3,0.2-0.8-0.1-1.1
					C12.5,31.8,11.2,31.3,9.7,31.3L9.7,31.3L9.7,31.3L9.7,31.3z M26.4,32.8c-1-1-2.3-1.5-3.7-1.5c-1.4,0-2.8,0.6-3.8,1.6
					c-0.4,0.4-0.3,1,0.2,1.3c0.3,0.2,0.8,0.1,1.1-0.2c1-1,2.5-1.3,4-0.7c0.4,0.2,0.8,0.5,1.1,0.8c0.2,0.2,0.4,0.3,0.6,0.3
					c0.3,0,0.5-0.1,0.7-0.4C26.8,33.6,26.7,33.1,26.4,32.8L26.4,32.8L26.4,32.8L26.4,32.8L26.4,32.8z"/>
			</g>
		</g>
	</g>
</g>
<g>
	<text transform="matrix(1.088 0 0 1 32.875 -17.0874)" style="font-family:'HelveticaNeue-CondensedBold'; font-size:11.4212px;">SXSW</text>
	<rect x="64.3" y="-25.1" width="2" height="8.1"/>
	<polygon points="66.7,-18.2 65.3,-19.4 71.5,-25.1 72.9,-23.8 	"/>
	<rect x="67.5" y="-22.1" transform="matrix(-1.836970e-16 1 -1 -1.836970e-16 50.3261 -86.6302)" width="2" height="7.9"/>
</g>
</svg>
