<?xml version="1.0" encoding="utf-8"?>
<!-- Generator: Adobe Illustrator 21.1.0, SVG Export Plug-In . SVG Version: 6.00 Build 0)  -->
<svg version="1.1" xmlns="http://www.w3.org/2000/svg" xmlns:xlink="http://www.w3.org/1999/xlink" x="0px" y="0px"
	 viewBox="0 0 313.5 306.5" style="enable-background:new 0 0 313.5 306.5;" xml:space="preserve">
<style type="text/css">
	.st0{fill:#9D0035;}
	.st1{enable-background:new    ;}
	.st2{fill:none;stroke:#9D0035;stroke-width:2;stroke-miterlimit:10;}
	.st3{fill:none;stroke:#9D0035;stroke-width:6;stroke-miterlimit:10;}
	.st4{fill:#FFFFFF;stroke:#FFFFFF;stroke-width:2;stroke-miterlimit:10;}
	.st5{fill:#FFFFFF;stroke:#FFFFFF;stroke-width:6;stroke-miterlimit:10;}
	.st6{fill:none;stroke:#FFFFFF;stroke-width:2;stroke-miterlimit:10;}
	.st7{fill:#FFFFFF;}
	.st8{fill:none;stroke:#FFFFFF;stroke-width:6;stroke-miterlimit:10;}
	.st9{fill:none;stroke:#FFFFFF;stroke-width:3.4092;stroke-miterlimit:10;}
	.st10{fill:none;stroke:#FFFFFF;stroke-width:10.2276;stroke-miterlimit:10;}
	.st11{fill:#FFFFFF;stroke:#FFFFFF;stroke-width:1.5;stroke-miterlimit:10;}
	.st12{fill:#FFFFFF;stroke:#FFFFFF;stroke-miterlimit:10;}
	.st13{fill:none;stroke:#323232;stroke-width:3.4092;stroke-miterlimit:10;}
	.st14{fill:none;stroke:#323232;stroke-width:10.2276;stroke-miterlimit:10;}
	.st15{fill:#323232;stroke:#323232;stroke-miterlimit:10;}
	.st16{display:none;fill:#6D1919;}
	.st17{fill:none;stroke:#323232;stroke-width:3.4059;stroke-miterlimit:10;}
	.st18{font-family:'Chameleon-Basic';}
	.st19{font-size:47.7287px;}
</style>
<g id="Layer_1">
	
		<image style="overflow:visible;enable-background:new    ;" width="427" height="304" xlink:href="../../Content for portfolio/magenta.png"  transform="matrix(9.112003e-02 0 0 9.112003e-02 -1797.8163 93.6533)">
	</image>
	<g>
		<g>
			<path class="st0" d="M-1780.9,117.3c-10,5.3-8.7,18.8-14.1,27.4c-7.9,12.6-24.4,16.4-38.3,15.3c-16.3-1.3-31.8-7.5-48-9.6
				c-16-2.1-32.4-1.4-48.2,2c-31.8,6.8-58.5,26.9-90,34.7c-30.6,7.6-63.6,5.3-93-6.2c-16.1-6.3-30.2-17.3-46.8-22.3
				c-6.9-2.1-14.8-3.1-21.9-1c-4.5,1.3-9.1,4.6-8.5,9.7c0.1,0.8,1.3,0.8,1.2,0c-1.1-10.4,16-10.2,22.5-9.1c8,1.3,15.5,4.8,22.6,8.5
				c12.9,6.8,25.3,13.9,39.3,18.4c27,8.7,56.5,9.9,84.1,3.3c30.9-7.4,57.2-27,88.1-34.3c16.2-3.8,33.1-4.7,49.6-2.7
				c16,2,31.1,8,47.2,9.6c12.5,1.3,26.3-1,35.9-9.6c4.3-3.8,6.9-8.6,8.6-14.1c2.1-6.9,3.2-15.4,10.2-19.1
				C-1779.6,118-1780.2,116.9-1780.9,117.3L-1780.9,117.3z"/>
		</g>
	</g>
	<g>
		<g>
			<path class="st0" d="M-2103.9,179.7c1.9,1.1,3.2,3.1,3.3,5.4c0.1,0.8,1.3,0.8,1.2,0c-0.2-2.7-1.6-5-3.9-6.4
				C-2104,178.3-2104.6,179.4-2103.9,179.7L-2103.9,179.7z"/>
		</g>
	</g>
	<g>
		<g>
			<path class="st0" d="M-2111.8,170.4c-0.4,3.9,2.1,7.5,5.9,8.7c0.7,0.2,1.1-0.9,0.3-1.2c-3.3-1-5.3-4.2-5-7.5
				C-2110.6,169.7-2111.8,169.7-2111.8,170.4L-2111.8,170.4z"/>
		</g>
	</g>
	<g>
		<g>
			<path class="st0" d="M-2111.5,170.9c3.9,0.1,7.3,3.3,7.5,7.2c0.1,0.8,1.3,0.8,1.2,0c-0.3-4.6-4.1-8.3-8.7-8.4
				C-2112.3,169.7-2112.3,170.9-2111.5,170.9L-2111.5,170.9z"/>
		</g>
	</g>
	<g>
		<g>
			<path class="st0" d="M-2107.1,178.9c1,1.2,2.7,1.6,4.1,0.9c0.7-0.3,0.1-1.4-0.6-1c-1,0.4-2,0.1-2.7-0.7
				C-2106.7,177.5-2107.6,178.3-2107.1,178.9L-2107.1,178.9z"/>
		</g>
	</g>
	<g>
		<g>
			<path class="st0" d="M-2109.2,174.1c1.5,2.3,3.4,4.3,5.5,6c0.6,0.5,1.5-0.4,0.8-0.8c-2.1-1.7-3.9-3.6-5.4-5.8
				C-2108.5,172.9-2109.6,173.5-2109.2,174.1L-2109.2,174.1z"/>
		</g>
	</g>
	<g>
		<g>
			<path class="st0" d="M-1984.2,174.1c0-1.7,1.2-3.3,2.8-3.8c0.7-0.2,0.4-1.4-0.3-1.2c-2.2,0.7-3.7,2.7-3.7,5
				C-1985.4,174.9-1984.2,174.9-1984.2,174.1L-1984.2,174.1z"/>
		</g>
	</g>
	<g>
		<g>
			<path class="st0" d="M-1981.5,168.9C-1981.5,168.9-1981.6,168.9-1981.5,168.9c0.1,0.1,0.3,0.1,0.5,0.2c0.1,0.1,0.1-0.5,0.2-0.6
				c0.1-0.3,0.2-0.5,0.3-0.7c0.3-0.5,0.7-0.9,1.1-1.2c0.6-0.4,0-1.5-0.6-1c-0.9,0.6-1.7,1.5-1.9,2.6c-0.2,0.7-0.4,2.2,0.8,2.1
				C-1980.4,169.9-1980.8,168.7-1981.5,168.9L-1981.5,168.9z"/>
		</g>
	</g>
	<g>
		<g>
			<path class="st0" d="M-1979.4,166.5c0.6-0.8,1.4-1.3,2.4-1.5c0.8-0.1,0.4-1.3-0.3-1.2c-1.3,0.2-2.4,1-3.2,2
				C-1980.9,166.5-1979.8,167.1-1979.4,166.5L-1979.4,166.5z"/>
		</g>
	</g>
	<g>
		<g>
			<path class="st0" d="M-1981.8,170.8c1.9,0.2,3.1-0.8,4.4-2.2c1.1-1.3,1.8-2.8,1.4-4.6c-0.2-0.7-1.3-0.4-1.2,0.3
				c0.4,1.4-0.4,2.7-1.3,3.7c-1,1-1.8,1.7-3.3,1.5C-1982.5,169.5-1982.5,170.7-1981.8,170.8L-1981.8,170.8z"/>
		</g>
	</g>
	<g>
		<g>
			<path class="st0" d="M-1980.2,169.6c0.3-0.5,0.7-1,1.2-1.5s-0.3-1.4-0.8-0.8c-0.5,0.5-1,1.1-1.4,1.7
				C-1981.6,169.6-1980.6,170.2-1980.2,169.6L-1980.2,169.6z"/>
		</g>
	</g>
	<g>
		<g>
			<path class="st0" d="M-1790.9,138.8c0.9-3,4.5-3,7-3.8c1.9-0.6,3.6-1.6,5.2-2.7c0.6-0.4,0-1.5-0.6-1c-2.7,1.8-5.5,2.6-8.6,3.6
				c-1.9,0.6-3.5,1.6-4.1,3.6C-1792.3,139.2-1791.1,139.5-1790.9,138.8L-1790.9,138.8z"/>
		</g>
	</g>
	<g>
		<g>
			<path class="st0" d="M-1778.6,131.8c-0.2-1.6,1.2-2.9,2.3-3.9c1.1-0.9,2.3-1.7,3.5-2.4c0.7-0.4,0.1-1.4-0.6-1
				c-2.5,1.3-6.9,4-6.5,7.3C-1779.7,132.5-1778.5,132.5-1778.6,131.8L-1778.6,131.8z"/>
		</g>
	</g>
	<g>
		<g>
			<path class="st0" d="M-1779.7,132.7c1.9,1.5,4.6,0.5,6.3-1c2-1.7,1.7-4.9,1.9-7.3c0.1-0.8-1.1-0.8-1.2,0
				c-0.1,1.7,0.1,4.1-0.8,5.6c-1,1.7-3.8,2.9-5.5,1.6C-1779.7,131.2-1780.3,132.2-1779.7,132.7L-1779.7,132.7z"/>
		</g>
	</g>
	<g>
		<g>
			<path class="st0" d="M-1778.6,132.3c1.5-0.9,3-1.8,4.6-2.7c0.7-0.4,0.1-1.4-0.6-1c-1.6,0.9-3.1,1.7-4.6,2.7
				C-1779.9,131.7-1779.3,132.8-1778.6,132.3L-1778.6,132.3z"/>
		</g>
	</g>
	<g>
		<g>
			<path class="st0" d="M-1799,149.9c-0.6-0.4-0.6-2.1-0.6-2.7c0.1-1,0.4-2,1-2.8c0.4-0.6-0.6-1.3-1-0.6c-0.8,1.2-1.2,2.6-1.1,4
				c0.1,1,0.3,2.5,1.2,3.1C-1799,151.4-1798.4,150.3-1799,149.9L-1799,149.9z"/>
		</g>
	</g>
	<g>
		<g>
			<path class="st0" d="M-1798.9,143.5c-0.9-1.3-1.5-3.5-0.6-5c0.6-1,1.6-1.9,2.5-2.6c0.6-0.5-0.3-1.4-0.8-0.8
				c-1.2,1.1-2.9,2.5-3.3,4.1c-0.3,1.6,0.3,3.6,1.2,4.9C-1799.5,144.8-1798.4,144.2-1798.9,143.5L-1798.9,143.5z"/>
		</g>
	</g>
	<g>
		<g>
			<path class="st0" d="M-1798.5,144.8c3.5-2.3,4.4-6.7,2-10.1c-0.4-0.6-1.5,0-1,0.6c2,2.9,1.4,6.6-1.6,8.5
				C-1799.7,144.2-1799.1,145.2-1798.5,144.8L-1798.5,144.8z"/>
		</g>
	</g>
	<g>
		<g>
			<path class="st0" d="M-1798,143.9c0.1-1.3-0.1-2.9,0.4-4c0.3-0.7-0.7-1.3-1-0.6c-0.6,1.4-0.5,3.1-0.6,4.6
				C-1799.3,144.7-1798.1,144.7-1798,143.9L-1798,143.9z"/>
		</g>
	</g>
	<g>
		<g>
			<path class="st0" d="M-2180.7,157.2c-1.4-1.2-3.4-1.2-5.1-1.2c-0.8,0-0.8,1.2,0,1.2c1.3,0,3.1-0.1,4.2,0.8
				C-2181,158.6-2180.2,157.7-2180.7,157.2L-2180.7,157.2z"/>
		</g>
	</g>
	<g>
		<g>
			<path class="st0" d="M-2192.9,159.6c0.2-1.2,2-2.1,2.9-2.7c1.4-0.8,3.1-1.1,4.2,0.3c0.5,0.6,1.3-0.2,0.8-0.8
				c-1.2-1.6-3.2-1.6-4.9-0.9c-1.5,0.6-3.9,2-4.3,3.8C-2194.2,160-2193.1,160.3-2192.9,159.6L-2192.9,159.6z"/>
		</g>
	</g>
	<g>
		<g>
			<path class="st0" d="M-2194.1,160.2c3.3,2.1,7.5-0.4,9.7-3c0.5-0.6-0.4-1.4-0.8-0.8c-1.8,2.2-5.4,4.7-8.2,2.8
				C-2194.2,158.8-2194.8,159.8-2194.1,160.2L-2194.1,160.2z"/>
		</g>
	</g>
	<g>
		<g>
			<path class="st0" d="M-2185.8,156.5c-1.2,0.1-2.4,0.5-3.5,1c-0.7,0.3-0.1,1.3,0.6,1c0.9-0.4,1.9-0.7,2.9-0.8
				C-2185.1,157.6-2185,156.4-2185.8,156.5L-2185.8,156.5z"/>
		</g>
	</g>
	<g>
		<g>
			<path class="st0" d="M-2148.6,171.8c0.1-1,3.8-1.8,4.5-1.9c1.8-0.4,3.6-0.4,5.4-0.1c0.8,0.1,1.1-1,0.3-1.2
				c-2.4-0.4-4.7-0.3-7,0.4c-1.2,0.3-4.1,1.1-4.3,2.5C-2149.9,172.2-2148.8,172.6-2148.6,171.8L-2148.6,171.8z"/>
		</g>
	</g>
	<g>
		<g>
			<path class="st0" d="M-1964.6,165.8c1.1,2,3.5,3.1,5.3,4.3c2.1,1.3,4.2,2.3,6.7,2.2c0.8,0,0.8-1.2,0-1.2c-2.3,0.1-4.2-0.8-6.1-2
				c-1.6-1-4-2.2-4.9-3.9C-1964,164.6-1965,165.2-1964.6,165.8L-1964.6,165.8z"/>
		</g>
	</g>
	<g>
		<text transform="matrix(1 0 0 1 -2256.6843 122.5293)" class="st0 st18" style="font-size:90px;">A </text>
		<text transform="matrix(1 0 0 1 -2080.5337 126.0974)" class="st0 st18" style="font-size:90px;">E</text>
		<text transform="matrix(1 0 0 1 -1994.8723 126.0976)" class="st0 st18" style="font-size:90px;">C</text>
		<text transform="matrix(1 0 0 1 -2196.8794 146.4797)" class="st0 st18" style="font-size:72px;">nna </text>
		<text transform="matrix(1 0 0 1 -1940.7524 146.4797)" class="st0 st18" style="font-size:72px;">herian</text>
		<circle class="st0" cx="-2030.6" cy="141.9" r="4.6"/>
		<text transform="matrix(1 0 0 1 -1609.238 195.6827)" class="st0 st18" style="font-size:90px;">A </text>
		<text transform="matrix(1 0 0 1 -1549.2234 218.7743)" class="st0 st18" style="font-size:72px;">nna </text>
		<text transform="matrix(1 0 0 1 -1498.5898 263.6419)" class="st0 st18" style="font-size:40px;">elizabeth</text>
		<text transform="matrix(1 0 0 1 -1458.5664 199.0232)" class="st0 st18" style="font-size:90px;">C</text>
		<text transform="matrix(1 0 0 1 -1402.5273 218.7744)" class="st0 st18" style="font-size:72px;">herian</text>
	</g>
	
		<image style="overflow:visible;enable-background:new    ;" width="427" height="304" xlink:href="../../Content for portfolio/magenta.png"  transform="matrix(9.112003e-02 0 0 9.112003e-02 -1961.2908 162.7861)">
	</image>
	
		<image style="overflow:visible;enable-background:new    ;" width="427" height="304" xlink:href="../../Content for portfolio/magenta.png"  transform="matrix(9.112003e-02 0 0 9.112003e-02 -2209.876 165.5082)">
	</image>
	
		<image style="overflow:visible;enable-background:new    ;" width="427" height="304" xlink:href="../../Content for portfolio/magenta.png"  transform="matrix(9.112003e-02 0 0 9.112003e-02 -1820.6348 291.3319)">
	</image>
	<g>
		<g>
			<path class="st0" d="M-1803.7,315c-10,5.3-8.7,18.8-14.1,27.4c-7.9,12.6-24.4,16.4-38.3,15.3c-16.3-1.3-31.8-7.5-48-9.6
				c-16-2.1-32.4-1.4-48.2,2c-31.8,6.8-58.5,26.9-90,34.7c-30.6,7.6-63.6,5.3-93-6.2c-16.1-6.3-30.2-17.3-46.8-22.3
				c-6.9-2.1-14.8-3.1-21.9-1c-4.5,1.3-9.1,4.6-8.5,9.7c0.1,0.8,1.3,0.8,1.2,0c-1.1-10.4,16-10.2,22.5-9.1c8,1.3,15.5,4.8,22.6,8.5
				c12.9,6.8,25.3,13.9,39.3,18.4c27,8.7,56.5,9.9,84.1,3.3c30.9-7.4,57.2-27,88.1-34.3c16.2-3.8,33.1-4.7,49.6-2.7
				c16,2,31.1,8,47.2,9.6c12.5,1.3,26.3-1,35.9-9.6c4.3-3.8,6.9-8.6,8.6-14.1c2.1-6.9,3.2-15.4,10.2-19.1
				C-1802.4,315.7-1803,314.6-1803.7,315L-1803.7,315z"/>
		</g>
	</g>
	<g>
		<g>
			<path class="st0" d="M-2126.7,377.4c1.9,1.1,3.2,3.1,3.3,5.4c0.1,0.8,1.3,0.8,1.2,0c-0.2-2.7-1.6-5-3.9-6.4
				C-2126.8,376-2127.4,377-2126.7,377.4L-2126.7,377.4z"/>
		</g>
	</g>
	<g>
		<g>
			<path class="st0" d="M-2134.7,368.1c-0.4,3.9,2.1,7.5,5.9,8.7c0.7,0.2,1.1-0.9,0.3-1.2c-3.3-1-5.3-4.2-5-7.5
				C-2133.4,367.3-2134.6,367.3-2134.7,368.1L-2134.7,368.1z"/>
		</g>
	</g>
	<g>
		<g>
			<path class="st0" d="M-2134.3,368.6c3.9,0.1,7.3,3.3,7.5,7.2c0.1,0.8,1.3,0.8,1.2,0c-0.3-4.6-4.1-8.3-8.7-8.4
				C-2135.1,367.4-2135.1,368.6-2134.3,368.6L-2134.3,368.6z"/>
		</g>
	</g>
	<g>
		<g>
			<path class="st0" d="M-2129.9,376.6c1,1.2,2.7,1.6,4.1,0.9c0.7-0.3,0.1-1.4-0.6-1c-1,0.4-2,0.1-2.7-0.7
				C-2129.5,375.2-2130.4,376-2129.9,376.6L-2129.9,376.6z"/>
		</g>
	</g>
	<g>
		<g>
			<path class="st0" d="M-2132,371.8c1.5,2.3,3.4,4.3,5.5,6c0.6,0.5,1.5-0.4,0.8-0.8c-2.1-1.7-3.9-3.6-5.4-5.8
				C-2131.4,370.6-2132.4,371.2-2132,371.8L-2132,371.8z"/>
		</g>
	</g>
	<g>
		<g>
			<path class="st0" d="M-2007,371.8c0-1.7,1.2-3.3,2.8-3.8c0.7-0.2,0.4-1.4-0.3-1.2c-2.2,0.7-3.7,2.7-3.7,5
				C-2008.3,372.6-2007.1,372.6-2007,371.8L-2007,371.8z"/>
		</g>
	</g>
	<g>
		<g>
			<path class="st0" d="M-2004.3,366.5C-2004.4,366.5-2004.4,366.5-2004.3,366.5c0.1,0.1,0.3,0.1,0.5,0.2c0.1,0.1,0.1-0.5,0.2-0.6
				c0.1-0.3,0.2-0.5,0.3-0.7c0.3-0.5,0.7-0.9,1.1-1.2c0.6-0.4,0-1.5-0.6-1c-0.9,0.6-1.7,1.5-1.9,2.6c-0.2,0.7-0.4,2.2,0.8,2.1
				C-2003.3,367.6-2003.6,366.4-2004.3,366.5L-2004.3,366.5z"/>
		</g>
	</g>
	<g>
		<g>
			<path class="st0" d="M-2002.2,364.1c0.6-0.8,1.4-1.3,2.4-1.5c0.8-0.1,0.4-1.3-0.3-1.2c-1.3,0.2-2.4,1-3.2,2
				C-2003.7,364.2-2002.6,364.8-2002.2,364.1L-2002.2,364.1z"/>
		</g>
	</g>
	<g>
		<g>
			<path class="st0" d="M-2004.6,368.4c1.9,0.2,3.1-0.8,4.4-2.2c1.1-1.3,1.8-2.8,1.4-4.6c-0.2-0.7-1.3-0.4-1.2,0.3
				c0.4,1.4-0.4,2.7-1.3,3.7c-1,1-1.8,1.7-3.3,1.5C-2005.4,367.2-2005.4,368.4-2004.6,368.4L-2004.6,368.4z"/>
		</g>
	</g>
	<g>
		<g>
			<path class="st0" d="M-2003,367.2c0.3-0.5,0.7-1,1.2-1.5s-0.3-1.4-0.8-0.8c-0.5,0.5-1,1.1-1.4,1.7
				C-2004.4,367.3-2003.4,367.9-2003,367.2L-2003,367.2z"/>
		</g>
	</g>
	<g>
		<g>
			<path class="st0" d="M-1813.7,336.5c0.9-3,4.5-3,7-3.8c1.9-0.6,3.6-1.6,5.2-2.7c0.6-0.4,0-1.5-0.6-1c-2.7,1.8-5.5,2.6-8.6,3.6
				c-1.9,0.6-3.5,1.6-4.1,3.6C-1815.1,336.9-1813.9,337.2-1813.7,336.5L-1813.7,336.5z"/>
		</g>
	</g>
	<g>
		<g>
			<path class="st0" d="M-1801.4,329.4c-0.2-1.6,1.2-2.9,2.3-3.9c1.1-0.9,2.3-1.7,3.5-2.4c0.7-0.4,0.1-1.4-0.6-1
				c-2.5,1.3-6.9,4-6.5,7.3C-1802.5,330.2-1801.3,330.2-1801.4,329.4L-1801.4,329.4z"/>
		</g>
	</g>
	<g>
		<g>
			<path class="st0" d="M-1802.6,330.4c1.9,1.5,4.6,0.5,6.3-1c2-1.7,1.7-4.9,1.9-7.3c0.1-0.8-1.1-0.8-1.2,0
				c-0.1,1.7,0.1,4.1-0.8,5.6c-1,1.7-3.8,2.9-5.5,1.6C-1802.6,328.9-1803.2,329.9-1802.6,330.4L-1802.6,330.4z"/>
		</g>
	</g>
	<g>
		<g>
			<path class="st0" d="M-1801.4,330c1.5-0.9,3-1.8,4.6-2.7c0.7-0.4,0.1-1.4-0.6-1c-1.6,0.9-3.1,1.7-4.6,2.7
				C-1802.7,329.4-1802.1,330.4-1801.4,330L-1801.4,330z"/>
		</g>
	</g>
	<g>
		<g>
			<path class="st0" d="M-1821.9,347.6c-0.6-0.4-0.6-2.1-0.6-2.7c0.1-1,0.4-2,1-2.8c0.4-0.6-0.6-1.3-1-0.6c-0.8,1.2-1.2,2.6-1.1,4
				c0.1,1,0.3,2.5,1.2,3.1C-1821.8,349.1-1821.2,348-1821.9,347.6L-1821.9,347.6z"/>
		</g>
	</g>
	<g>
		<g>
			<path class="st0" d="M-1821.7,341.2c-0.9-1.3-1.5-3.5-0.6-5c0.6-1,1.6-1.9,2.5-2.6c0.6-0.5-0.3-1.4-0.8-0.8
				c-1.2,1.1-2.9,2.5-3.3,4.1c-0.3,1.6,0.3,3.6,1.2,4.9C-1822.3,342.4-1821.2,341.8-1821.7,341.2L-1821.7,341.2z"/>
		</g>
	</g>
	<g>
		<g>
			<path class="st0" d="M-1821.3,342.5c3.5-2.3,4.4-6.7,2-10.1c-0.4-0.6-1.5,0-1,0.6c2,2.9,1.4,6.6-1.6,8.5
				C-1822.5,341.9-1821.9,342.9-1821.3,342.5L-1821.3,342.5z"/>
		</g>
	</g>
	<g>
		<g>
			<path class="st0" d="M-1820.8,341.6c0.1-1.3-0.1-2.9,0.4-4c0.3-0.7-0.7-1.3-1-0.6c-0.6,1.4-0.5,3.1-0.6,4.6
				C-1822.1,342.3-1820.9,342.3-1820.8,341.6L-1820.8,341.6z"/>
		</g>
	</g>
	<g>
		<g>
			<path class="st0" d="M-2203.6,354.9c-1.4-1.2-3.4-1.2-5.1-1.2c-0.8,0-0.8,1.2,0,1.2c1.3,0,3.1-0.1,4.2,0.8
				C-2203.8,356.3-2203,355.4-2203.6,354.9L-2203.6,354.9z"/>
		</g>
	</g>
	<g>
		<g>
			<path class="st0" d="M-2215.7,357.2c0.2-1.2,2-2.1,2.9-2.7c1.4-0.8,3.1-1.1,4.2,0.3c0.5,0.6,1.3-0.2,0.8-0.8
				c-1.2-1.6-3.2-1.6-4.9-0.9c-1.5,0.6-3.9,2-4.3,3.8C-2217,357.7-2215.9,358-2215.7,357.2L-2215.7,357.2z"/>
		</g>
	</g>
	<g>
		<g>
			<path class="st0" d="M-2217,357.9c3.3,2.1,7.5-0.4,9.7-3c0.5-0.6-0.4-1.4-0.8-0.8c-1.8,2.2-5.4,4.7-8.2,2.8
				C-2217,356.5-2217.6,357.5-2217,357.9L-2217,357.9z"/>
		</g>
	</g>
	<g>
		<g>
			<path class="st0" d="M-2208.6,354.2c-1.2,0.1-2.4,0.5-3.5,1c-0.7,0.3-0.1,1.3,0.6,1c0.9-0.4,1.9-0.7,2.9-0.8
				C-2207.9,355.3-2207.9,354.1-2208.6,354.2L-2208.6,354.2z"/>
		</g>
	</g>
	<g>
		<g>
			<path class="st0" d="M-2171.5,369.5c0.1-1,3.8-1.8,4.5-1.9c1.8-0.4,3.6-0.4,5.4-0.1c0.8,0.1,1.1-1,0.3-1.2
				c-2.4-0.4-4.7-0.3-7,0.4c-1.2,0.3-4.1,1.1-4.3,2.5C-2172.7,369.9-2171.6,370.2-2171.5,369.5L-2171.5,369.5z"/>
		</g>
	</g>
	<g>
		<g>
			<path class="st0" d="M-1987.4,363.5c1.1,2,3.5,3.1,5.3,4.3c2.1,1.3,4.2,2.3,6.7,2.2c0.8,0,0.8-1.2,0-1.2c-2.3,0.1-4.2-0.8-6.1-2
				c-1.6-1-4-2.2-4.9-3.9C-1986.8,362.2-1987.8,362.8-1987.4,363.5L-1987.4,363.5z"/>
		</g>
	</g>
	<text transform="matrix(1 0 0 1 -2279.5029 320.208)" class="st0 st18" style="font-size:120px;">A </text>
	<text transform="matrix(1 0 0 1 -2103.3521 323.776)" class="st0 st18" style="font-size:120px;">E</text>
	<text transform="matrix(1 0 0 1 -2017.6909 323.7762)" class="st0 st18" style="font-size:120px;">C</text>
	<text transform="matrix(1 0 0 1 -2219.6978 344.1584)" class="st0 st18" style="font-size:90px;">nna </text>
	<text transform="matrix(1 0 0 1 -1963.5709 344.1584)" class="st0 st18" style="font-size:90px;">herian</text>
	<circle class="st0" cx="-2053.4" cy="339.6" r="4.6"/>
	<g>
		<text transform="matrix(1 0 0 1 -2282.8892 531.9297)" class="st0 st18" style="font-size:120px;">A </text>
		<text transform="matrix(1 0 0 1 -2072.4937 538.4604)" class="st0 st18" style="font-size:120px;">E</text>
		<text transform="matrix(1 0 0 1 -1966.2192 536.2838)" class="st0 st18" style="font-size:120px;">C</text>
		<text transform="matrix(1 0 0 1 -2206.54 560.5706)" class="st0 st18" style="font-size:90px;">nna </text>
		<text transform="matrix(1 0 0 1 -1895.9673 560.5708)" class="st0 st18" style="font-size:90px;">herian</text>
		<circle class="st0" cx="-2005" cy="556.4" r="4.6"/>
	</g>
	
		<image style="overflow:visible;enable-background:new    ;" width="427" height="304" xlink:href="../../Content for portfolio/magenta.png"  transform="matrix(9.112003e-02 0 0 9.112003e-02 -1984.1094 360.4648)">
	</image>
	
		<image style="overflow:visible;enable-background:new    ;" width="427" height="304" xlink:href="../../Content for portfolio/magenta.png"  transform="matrix(9.112003e-02 0 0 9.112003e-02 -2232.6943 363.1868)">
	</image>
	<circle class="st2" cx="-2019" cy="749.1" r="78.2"/>
	<circle class="st3" cx="-2019" cy="749.1" r="65.4"/>
	<line class="st2" x1="-2052.9" y1="714.3" x2="-1981.5" y2="786"/>
	<line class="st2" x1="-1981.1" y1="714.5" x2="-2053.2" y2="786.4"/>
	<text transform="matrix(1 0 0 1 -2065.3301 754.328)" class="st0" style="font-family:'Chameleon-Outline2'; font-size:28px;">A </text>
	<text transform="matrix(1 0 0 1 -2025.2694 719.7668)" class="st0" style="font-family:'Chameleon-Outline2'; font-size:28px;">E </text>
	<text transform="matrix(1 0 0 1 -1996.8787 755.7343)" class="st0" style="font-family:'Chameleon-Outline2'; font-size:28px;">C </text>
	<circle class="st4" cx="-1823.4" cy="747.3" r="78.2"/>
	<circle class="st5" cx="-1823.4" cy="747.3" r="65.4"/>
	<line class="st6" x1="-1857.3" y1="712.5" x2="-1785.9" y2="784.3"/>
	<line class="st6" x1="-1785.5" y1="712.7" x2="-1857.6" y2="784.7"/>
	<text transform="matrix(1 0 0 1 -1869.7538 760.946)" class="st7" style="font-family:'Chameleon-Outline2'; font-size:32px;">A </text>
	<text transform="matrix(1 0 0 1 -1829.2196 725.9527)" class="st7" style="font-family:'Chameleon-Outline2'; font-size:32px;">E </text>
	<text transform="matrix(1 0 0 1 -1792.7949 762.438)" class="st7" style="font-family:'Chameleon-Outline2'; font-size:32px;">C </text>
	
		<image style="overflow:visible;enable-background:new    ;" width="427" height="304" xlink:href="../../Content for portfolio/magenta.png"  transform="matrix(9.112003e-02 0 0 9.112003e-02 -1840.2317 770.6909)">
	</image>
	
		<image style="overflow:visible;enable-background:new    ;" width="512" height="512" xlink:href="../../Content for portfolio/white.png"  transform="matrix(0.1145 0 0 0.1145 -1774.5208 785.218)">
	</image>
	
		<image style="overflow:visible;enable-background:new    ;" width="427" height="304" xlink:href="../../Content for portfolio/magenta.png"  transform="matrix(5.321394e-02 0 0 5.321394e-02 -1513.239 281.7269)">
	</image>
	
		<image style="overflow:visible;enable-background:new    ;" width="427" height="304" xlink:href="../../Content for portfolio/magenta.png"  transform="matrix(5.321394e-02 0 0 5.321394e-02 -1458.5664 281.7269)">
	</image>
	
		<image style="overflow:visible;enable-background:new    ;" width="427" height="304" xlink:href="../../Content for portfolio/magenta.png"  transform="matrix(5.321394e-02 0 0 5.321394e-02 -1410.0725 281.7269)">
	</image>
	
		<image style="overflow:visible;enable-background:new    ;" width="427" height="304" xlink:href="../../Content for portfolio/magenta.png"  transform="matrix(7.459591e-02 0 0 7.459591e-02 -2033.0643 774.7143)">
	</image>
	<circle class="st6" cx="-2228.3" cy="734.5" r="78.2"/>
	<circle class="st8" cx="-2228.3" cy="734.5" r="65.4"/>
	<line class="st6" x1="-2262.2" y1="699.7" x2="-2190.8" y2="771.4"/>
	<line class="st6" x1="-2190.4" y1="699.9" x2="-2262.5" y2="771.8"/>
	<text transform="matrix(1 0 0 1 -2274.6509 739.727)" class="st7" style="font-family:'Chameleon-Outline2'; font-size:28px;">A </text>
	<text transform="matrix(1 0 0 1 -2234.5901 705.1659)" class="st7" style="font-family:'Chameleon-Outline2'; font-size:28px;">E </text>
	<text transform="matrix(1 0 0 1 -2206.1992 741.1333)" class="st7" style="font-family:'Chameleon-Outline2'; font-size:28px;">C </text>
	
		<image style="overflow:visible;enable-background:new    ;" width="427" height="304" xlink:href="../../Content for portfolio/magenta.png"  transform="matrix(7.459591e-02 0 0 7.459591e-02 -1864.0198 700.7407)">
	</image>
	<g>
		<g>
			<circle class="st9" cx="-839.2" cy="146.5" r="133.4"/>
			<circle class="st10" cx="-839.2" cy="146.5" r="111.5"/>
			<line class="st9" x1="-896.9" y1="87.2" x2="-775.2" y2="209.5"/>
			<line class="st9" x1="-774.6" y1="87.5" x2="-897.4" y2="210.1"/>
			<text transform="matrix(1 0 0 1 -918.1483 155.3756)" class="st11 st18 st19">A </text>
			<text transform="matrix(1 0 0 1 -849.8611 96.4624)" class="st12 st18 st19">E </text>
			<text transform="matrix(1 0 0 1 -801.4656 157.7726)" class="st12 st18 st19">C </text>
		</g>
		
			<image style="overflow:visible;enable-background:new    ;" width="512" height="512" xlink:href="../../Content for portfolio/white.png"  transform="matrix(0.125 0 0 0.125 -867.9964 176.1908)">
		</image>
	</g>
	<g>
		<circle class="st9" cx="-505.7" cy="146.5" r="133.4"/>
		<circle class="st10" cx="-505.7" cy="146.5" r="111.5"/>
		<line class="st9" x1="-563.4" y1="87.2" x2="-441.7" y2="209.5"/>
		<line class="st9" x1="-441.1" y1="87.5" x2="-563.9" y2="210.1"/>
		<text transform="matrix(1 0 0 1 -584.6483 155.3756)" class="st11 st18 st19">A </text>
		<text transform="matrix(1 0 0 1 -516.3611 96.4624)" class="st12 st18 st19">E </text>
		<text transform="matrix(1 0 0 1 -467.9656 157.7726)" class="st12 st18 st19">C </text>
	</g>
	
		<image style="overflow:visible;enable-background:new    ;" width="512" height="512" xlink:href="../../Content for portfolio/white.png"  transform="matrix(0.125 0 0 0.125 -534.4964 176.1908)">
	</image>
	<circle class="st13" cx="-510.2" cy="153.3" r="133.4"/>
	<circle class="st14" cx="-510.2" cy="153.3" r="111.5"/>
	<line class="st13" x1="-570.1" y1="91.9" x2="-448.4" y2="214.2"/>
	<line class="st13" x1="-447.9" y1="92" x2="-570.7" y2="214.6"/>
	<text transform="matrix(1 0 0 1 -587.4117 163.1354)" class="st15 st18 st19">A </text>
	<text transform="matrix(1 0 0 1 -520.5372 93.6854)" class="st15 st18 st19">E </text>
	<text transform="matrix(1 0 0 1 -462.8306 165.9546)" class="st15 st18 st19">C </text>
	<g>
		<g>
			<circle class="st9" cx="-172.2" cy="146.5" r="133.4"/>
			<circle class="st10" cx="-172.2" cy="146.5" r="111.5"/>
			<line class="st9" x1="-229.9" y1="87.2" x2="-108.2" y2="209.5"/>
			<line class="st9" x1="-107.6" y1="87.5" x2="-230.4" y2="210.1"/>
			<text transform="matrix(1 0 0 1 -251.1483 155.3756)" class="st11 st18 st19">A </text>
			<text transform="matrix(1 0 0 1 -182.8611 96.4624)" class="st12 st18 st19">E </text>
			<text transform="matrix(1 0 0 1 -134.4656 157.7726)" class="st12 st18 st19">C </text>
		</g>
		
			<image style="overflow:visible;enable-background:new    ;" width="512" height="512" xlink:href="../../Content for portfolio/white.png"  transform="matrix(0.125 0 0 0.125 -200.9964 176.1908)">
		</image>
	</g>
	<circle class="st9" cx="-176.8" cy="153.3" r="133.4"/>
	<circle class="st10" cx="-176.8" cy="153.3" r="111.5"/>
	<line class="st9" x1="-236.6" y1="91.9" x2="-114.9" y2="214.2"/>
	<line class="st9" x1="-114.4" y1="92" x2="-237.2" y2="214.6"/>
	<text transform="matrix(1 0 0 1 -253.9117 163.1354)" class="st12 st18 st19">A </text>
	<text transform="matrix(1 0 0 1 -187.0372 93.6854)" class="st12 st18 st19">E </text>
	<text transform="matrix(1 0 0 1 -129.3306 165.9546)" class="st12 st18 st19">C </text>
</g>
<g id="Layer_2">
	<rect class="st16" width="313.5" height="306.5"/>
	<circle class="st17" cx="151" cy="153.1" r="133.3"/>
	<circle class="st14" cx="151" cy="153" r="111.5"/>
	<line class="st13" x1="85" y1="90.9" x2="206.7" y2="213.2"/>
	<line class="st13" x1="208.9" y1="90.7" x2="86.1" y2="213.3"/>
	<text transform="matrix(1 0 0 1 68.8386 163.1352)" class="st15 st18 st19">A </text>
	<text transform="matrix(1 0 0 1 135.7129 98.4411)" class="st15 st18 st19">E </text>
	<text transform="matrix(1 0 0 1 193.4189 165.9542)" class="st15 st18 st19">C </text>
</g>
</svg>
